<svg width="85" height="85" viewBox="0 0 85 85" fill="none" xmlns="http://www.w3.org/2000/svg">
<rect x="10" y="10" width="65" height="65" fill="#EB8683"/>
<line x1="10" y1="77.5" x2="75" y2="77.5" stroke="white" stroke-width="5"/>
<line x1="10" y1="7.5" x2="75" y2="7.5" stroke="white" stroke-width="5"/>
<line x1="77.5208" y1="10" x2="77.5208" y2="75" stroke="white" stroke-width="5"/>
<line x1="7.52075" y1="10" x2="7.52075" y2="75" stroke="white" stroke-width="5"/>
<rect x="70" y="10" width="5" height="5" fill="white"/>
<rect x="75" y="7" width="3" height="3" fill="white"/>
<rect x="70" y="12" width="3" height="3" fill="#EB8683"/>
<rect x="75" y="75" width="3" height="3" fill="white"/>
<rect x="7" y="7" width="3" height="3" fill="white"/>
<rect x="7" y="75" width="3" height="3" fill="white"/>
<rect x="70" y="70" width="5" height="5" fill="white"/>
<rect x="10" y="10" width="5" height="5" fill="white"/>
<rect x="10" y="70" width="5" height="5" fill="white"/>
<rect x="12" y="12" width="3" height="3" fill="#EB8683"/>
<rect x="10" y="61" width="6" height="9" fill="#D67774"/>
<rect x="69" y="61" width="6" height="9" fill="#D67774"/>
<rect x="15" y="67" width="55" height="8" fill="#D67774"/>
<rect x="70" y="70" width="3" height="3" fill="#D67774"/>
<rect x="66" y="64" width="3" height="3" fill="#D67774"/>
<rect x="72" y="58" width="3" height="3" fill="#D67774"/>
<rect x="12" y="70" width="3" height="3" fill="#D67774"/>
<rect x="16" y="64" width="3" height="3" fill="#D67774"/>
<rect x="10" y="58" width="3" height="3" fill="#D67774"/>
<rect x="21" y="18" width="3" height="3" fill="white"/>
<rect x="21" y="24" width="3" height="3" fill="white"/>
<rect x="21" y="30" width="3" height="3" fill="white"/>
<rect x="21" y="48" width="3" height="3" fill="white"/>
<rect x="21" y="54" width="3" height="3" fill="white"/>
<rect x="24" y="18" width="3" height="3" fill="white"/>
<rect x="24" y="24" width="3" height="3" fill="white"/>
<rect x="24" y="30" width="3" height="3" fill="white"/>
<rect x="24" y="42" width="3" height="3" fill="white"/>
<rect x="21" y="42" width="3" height="3" fill="white"/>
<rect x="24" y="48" width="3" height="3" fill="white"/>
<rect x="24" y="54" width="3" height="3" fill="white"/>
<rect x="27" y="18" width="3" height="3" fill="white"/>
<rect x="27" y="24" width="3" height="3" fill="white"/>
<rect x="27" y="30" width="3" height="3" fill="white"/>
<rect x="27" y="36" width="3" height="3" fill="white"/>
<rect x="21" y="36" width="3" height="3" fill="white"/>
<rect x="27" y="42" width="3" height="3" fill="white"/>
<rect x="27" y="48" width="3" height="3" fill="white"/>
<rect x="27" y="54" width="3" height="3" fill="white"/>
<rect x="30" y="18" width="3" height="3" fill="white"/>
<rect x="30" y="24" width="3" height="3" fill="white"/>
<rect x="30" y="30" width="3" height="3" fill="white"/>
<rect x="30" y="36" width="3" height="3" fill="white"/>
<rect x="30" y="42" width="3" height="3" fill="white"/>
<rect x="30" y="54" width="3" height="3" fill="white"/>
<rect x="33" y="18" width="3" height="3" fill="white"/>
<rect x="33" y="30" width="3" height="3" fill="white"/>
<rect x="33" y="36" width="3" height="3" fill="white"/>
<rect x="33" y="42" width="3" height="3" fill="white"/>
<rect x="36" y="18" width="3" height="3" fill="white"/>
<rect x="36" y="30" width="3" height="3" fill="white"/>
<rect x="36" y="42" width="3" height="3" fill="white"/>
<rect x="36" y="48" width="3" height="3" fill="white"/>
<rect x="36" y="54" width="3" height="3" fill="white"/>
<rect x="39" y="24" width="3" height="3" fill="white"/>
<rect x="39" y="30" width="3" height="3" fill="white"/>
<rect x="39" y="36" width="3" height="3" fill="white"/>
<rect x="39" y="42" width="3" height="3" fill="white"/>
<rect x="39" y="48" width="3" height="3" fill="white"/>
<rect x="39" y="54" width="3" height="3" fill="white"/>
<rect x="42" y="18" width="3" height="3" fill="white"/>
<rect x="42" y="24" width="3" height="3" fill="white"/>
<rect x="42" y="30" width="3" height="3" fill="white"/>
<rect x="42" y="36" width="3" height="3" fill="white"/>
<rect x="42" y="42" width="3" height="3" fill="white"/>
<rect x="45" y="18" width="3" height="3" fill="white"/>
<rect x="45" y="24" width="3" height="3" fill="white"/>
<rect x="45" y="30" width="3" height="3" fill="white"/>
<rect x="45" y="36" width="3" height="3" fill="white"/>
<rect x="45" y="42" width="3" height="3" fill="white"/>
<rect x="48" y="18" width="3" height="3" fill="white"/>
<rect x="48" y="24" width="3" height="3" fill="white"/>
<rect x="48" y="30" width="3" height="3" fill="white"/>
<rect x="48" y="42" width="3" height="3" fill="white"/>
<rect x="48" y="48" width="3" height="3" fill="white"/>
<rect x="51" y="18" width="3" height="3" fill="white"/>
<rect x="51" y="24" width="3" height="3" fill="white"/>
<rect x="51" y="30" width="3" height="3" fill="white"/>
<rect x="51" y="42" width="3" height="3" fill="white"/>
<rect x="51" y="48" width="3" height="3" fill="white"/>
<rect x="51" y="54" width="3" height="3" fill="white"/>
<rect x="54" y="18" width="3" height="3" fill="white"/>
<rect x="54" y="24" width="3" height="3" fill="white"/>
<rect x="54" y="30" width="3" height="3" fill="white"/>
<rect x="54" y="36" width="3" height="3" fill="white"/>
<rect x="54" y="42" width="3" height="3" fill="white"/>
<rect x="54" y="48" width="3" height="3" fill="white"/>
<rect x="54" y="54" width="3" height="3" fill="white"/>
<rect x="57" y="18" width="3" height="3" fill="white"/>
<rect x="57" y="30" width="3" height="3" fill="white"/>
<rect x="57" y="36" width="3" height="3" fill="white"/>
<rect x="57" y="42" width="3" height="3" fill="white"/>
<rect x="57" y="48" width="3" height="3" fill="white"/>
<rect x="57" y="54" width="3" height="3" fill="white"/>
<rect x="60" y="18" width="3" height="3" fill="white"/>
<rect x="60" y="24" width="3" height="3" fill="white"/>
<rect x="60" y="36" width="3" height="3" fill="white"/>
<rect x="60" y="42" width="3" height="3" fill="white"/>
<rect x="60" y="48" width="3" height="3" fill="white"/>
<rect x="60" y="54" width="3" height="3" fill="white"/>
<rect x="63" y="18" width="3" height="3" fill="white"/>
<rect x="63" y="24" width="3" height="3" fill="white"/>
<rect x="63" y="36" width="3" height="3" fill="white"/>
<rect x="63" y="42" width="3" height="3" fill="white"/>
<rect x="63" y="54" width="3" height="3" fill="white"/>
</svg>
