<svg width="576" height="337" viewBox="0 0 576 337" fill="none" xmlns="http://www.w3.org/2000/svg">
<mask id="path-1-outside-1" maskUnits="userSpaceOnUse" x="8" y="46.9412" width="549" height="245" fill="black">
<rect fill="white" x="8" y="46.9412" width="549" height="245"/>
<path d="M96.0588 55.9412H79.1176V61.5882H73.4706V84.1765H67.8235V89.8235H62.1765V84.1765H56.5294V61.5882H50.8824V55.9412H22.6471V61.5882H33.9412V67.2353H28.2941V72.8823H22.6471V61.5882H17V129.353H22.6471V135H50.8824V129.353H56.5294V112.412H62.1765V118.059H67.8235V112.412H73.4706V129.353H79.1176V135H96.0588V129.353H101.706V61.5882H96.0588V55.9412Z"/>
<path d="M186.412 67.2353H180.765V61.5882H175.118V55.9412H124.294V61.5882H129.941V67.2353H124.294V72.8823H118.647V67.2353H113V129.353H118.647V135H146.882V129.353H152.529V95.4706H169.471V129.353H175.118V135H186.412V129.353H192.059V72.8823H186.412V67.2353ZM152.529 72.8823H169.471V84.1765H152.529V72.8823Z"/>
<path d="M276.787 61.5882H271.14V55.9412H209.022V61.5882H220.316V67.2353H214.669V72.8823H209.022V61.5882H203.375V129.353H209.022V135H237.257V129.353H242.904V112.412H248.551V118.059H254.199V123.706H259.846V129.353H265.493V135H276.787V129.353H282.434V106.765H276.787V101.118H271.14V95.4706H276.787V89.8235H282.434V67.2353H276.787V61.5882ZM259.846 84.1765H242.904V72.8823H259.846V84.1765Z"/>
<path d="M367.162 61.5882H361.515V55.9412H299.397V61.5882H310.691V67.2353H305.044V72.8823H299.397V61.5882H293.75V129.353H299.397V135H361.515V129.353H367.162V123.706H372.809V95.4706H367.162V89.8235H372.809V67.2353H367.162V61.5882ZM350.221 84.1765H333.279V72.8823H350.221V84.1765ZM333.279 112.412V101.118H350.221V112.412H333.279Z"/>
<path d="M451.89 112.412H423.654V61.5882H418.007V55.9412H389.772V61.5882H401.066V67.2353H395.419V72.8823H389.772V61.5882H384.125V129.353H389.772V135H451.89V129.353H457.537V118.059H451.89V112.412Z"/>
<path d="M542.287 55.9412H474.522V61.5882H485.816V67.2353H480.169V72.8823H474.522V61.5882H468.875V129.353H474.522V135H542.287V129.353H547.934V118.059H542.287V112.412H508.404V101.118H542.287V95.4706H547.934V89.8235H542.287V84.1765H508.404V72.8823H542.287V67.2353H547.934V61.5882H542.287V55.9412Z"/>
<path d="M134.765 164.235H109.529V172.647H101.118V206.294H92.7059V214.706H84.2941V206.294H75.8824V172.647H67.4706V164.235H25.4118V172.647H42.2353V181.059H33.8235V189.471H25.4118V172.647H17V273.588H25.4118V282H67.4706V273.588H75.8824V248.353H84.2941V256.765H92.7059V248.353H101.118V273.588H109.529V282H134.765V273.588H143.176V172.647H134.765V164.235Z"/>
<path d="M269.353 181.059H260.941V172.647H252.529V164.235H176.824V172.647H185.235V181.059H176.824V189.471H168.412V181.059H160V273.588H168.412V282H210.471V273.588H218.882V223.118H244.118V273.588H252.529V282H269.353V273.588H277.765V189.471H269.353V181.059ZM218.882 189.471H244.118V206.294H218.882V189.471Z"/>
<path d="M403.974 164.235H303.033V172.647H319.856V181.059H311.445V189.471H303.033V197.882H345.092V206.294H336.68V214.706H328.268V223.118H319.856V231.529H311.445V239.941H303.033V248.353H294.621V273.588H303.033V282H403.974V273.588H412.386V248.353H403.974V239.941H370.327V231.529H378.739V223.118H387.151V214.706H395.562V206.294H403.974V197.882H412.386V172.647H403.974V164.235ZM303.033 172.647H294.621V189.471H303.033V172.647Z"/>
<path d="M538.595 164.235H437.654V172.647H454.477V181.059H446.066V189.471H437.654V172.647H429.242V273.588H437.654V282H538.595V273.588H547.007V256.765H538.595V248.353H488.125V231.529H538.595V223.118H547.007V214.706H538.595V206.294H488.125V189.471H538.595V181.059H547.007V172.647H538.595V164.235Z"/>
</mask>
<path d="M96.0588 55.9412H79.1176V61.5882H73.4706V84.1765H67.8235V89.8235H62.1765V84.1765H56.5294V61.5882H50.8824V55.9412H22.6471V61.5882H33.9412V67.2353H28.2941V72.8823H22.6471V61.5882H17V129.353H22.6471V135H50.8824V129.353H56.5294V112.412H62.1765V118.059H67.8235V112.412H73.4706V129.353H79.1176V135H96.0588V129.353H101.706V61.5882H96.0588V55.9412Z" fill="black"/>
<path d="M186.412 67.2353H180.765V61.5882H175.118V55.9412H124.294V61.5882H129.941V67.2353H124.294V72.8823H118.647V67.2353H113V129.353H118.647V135H146.882V129.353H152.529V95.4706H169.471V129.353H175.118V135H186.412V129.353H192.059V72.8823H186.412V67.2353ZM152.529 72.8823H169.471V84.1765H152.529V72.8823Z" fill="black"/>
<path d="M276.787 61.5882H271.14V55.9412H209.022V61.5882H220.316V67.2353H214.669V72.8823H209.022V61.5882H203.375V129.353H209.022V135H237.257V129.353H242.904V112.412H248.551V118.059H254.199V123.706H259.846V129.353H265.493V135H276.787V129.353H282.434V106.765H276.787V101.118H271.14V95.4706H276.787V89.8235H282.434V67.2353H276.787V61.5882ZM259.846 84.1765H242.904V72.8823H259.846V84.1765Z" fill="black"/>
<path d="M367.162 61.5882H361.515V55.9412H299.397V61.5882H310.691V67.2353H305.044V72.8823H299.397V61.5882H293.75V129.353H299.397V135H361.515V129.353H367.162V123.706H372.809V95.4706H367.162V89.8235H372.809V67.2353H367.162V61.5882ZM350.221 84.1765H333.279V72.8823H350.221V84.1765ZM333.279 112.412V101.118H350.221V112.412H333.279Z" fill="black"/>
<path d="M451.89 112.412H423.654V61.5882H418.007V55.9412H389.772V61.5882H401.066V67.2353H395.419V72.8823H389.772V61.5882H384.125V129.353H389.772V135H451.89V129.353H457.537V118.059H451.89V112.412Z" fill="black"/>
<path d="M542.287 55.9412H474.522V61.5882H485.816V67.2353H480.169V72.8823H474.522V61.5882H468.875V129.353H474.522V135H542.287V129.353H547.934V118.059H542.287V112.412H508.404V101.118H542.287V95.4706H547.934V89.8235H542.287V84.1765H508.404V72.8823H542.287V67.2353H547.934V61.5882H542.287V55.9412Z" fill="black"/>
<path d="M134.765 164.235H109.529V172.647H101.118V206.294H92.7059V214.706H84.2941V206.294H75.8824V172.647H67.4706V164.235H25.4118V172.647H42.2353V181.059H33.8235V189.471H25.4118V172.647H17V273.588H25.4118V282H67.4706V273.588H75.8824V248.353H84.2941V256.765H92.7059V248.353H101.118V273.588H109.529V282H134.765V273.588H143.176V172.647H134.765V164.235Z" fill="black"/>
<path d="M269.353 181.059H260.941V172.647H252.529V164.235H176.824V172.647H185.235V181.059H176.824V189.471H168.412V181.059H160V273.588H168.412V282H210.471V273.588H218.882V223.118H244.118V273.588H252.529V282H269.353V273.588H277.765V189.471H269.353V181.059ZM218.882 189.471H244.118V206.294H218.882V189.471Z" fill="black"/>
<path d="M403.974 164.235H303.033V172.647H319.856V181.059H311.445V189.471H303.033V197.882H345.092V206.294H336.68V214.706H328.268V223.118H319.856V231.529H311.445V239.941H303.033V248.353H294.621V273.588H303.033V282H403.974V273.588H412.386V248.353H403.974V239.941H370.327V231.529H378.739V223.118H387.151V214.706H395.562V206.294H403.974V197.882H412.386V172.647H403.974V164.235ZM303.033 172.647H294.621V189.471H303.033V172.647Z" fill="black"/>
<path d="M538.595 164.235H437.654V172.647H454.477V181.059H446.066V189.471H437.654V172.647H429.242V273.588H437.654V282H538.595V273.588H547.007V256.765H538.595V248.353H488.125V231.529H538.595V223.118H547.007V214.706H538.595V206.294H488.125V189.471H538.595V181.059H547.007V172.647H538.595V164.235Z" fill="black"/>
<path d="M96.0588 55.9412H105.059V46.9412H96.0588V55.9412ZM79.1176 55.9412V46.9412H70.1176V55.9412H79.1176ZM79.1176 61.5882V70.5882H88.1176V61.5882H79.1176ZM73.4706 61.5882V52.5882H64.4706V61.5882H73.4706ZM73.4706 84.1765V93.1765H82.4706V84.1765H73.4706ZM67.8235 84.1765V75.1765H58.8235V84.1765H67.8235ZM67.8235 89.8235V98.8235H76.8235V89.8235H67.8235ZM62.1765 89.8235H53.1765V98.8235H62.1765V89.8235ZM62.1765 84.1765H71.1765V75.1765H62.1765V84.1765ZM56.5294 84.1765H47.5294V93.1765H56.5294V84.1765ZM56.5294 61.5882H65.5294V52.5882H56.5294V61.5882ZM50.8824 61.5882H41.8824V70.5882H50.8824V61.5882ZM50.8824 55.9412H59.8824V46.9412H50.8824V55.9412ZM22.6471 55.9412V46.9412H13.6471V55.9412H22.6471ZM33.9412 61.5882H42.9412V52.5882H33.9412V61.5882ZM33.9412 67.2353V76.2353H42.9412V67.2353H33.9412ZM28.2941 67.2353V58.2353H19.2941V67.2353H28.2941ZM28.2941 72.8823V81.8823H37.2941V72.8823H28.2941ZM22.6471 72.8823H13.6471V81.8823H22.6471V72.8823ZM17 61.5882V52.5882H8V61.5882H17ZM17 129.353H8V138.353H17V129.353ZM22.6471 129.353H31.6471V120.353H22.6471V129.353ZM22.6471 135H13.6471V144H22.6471V135ZM50.8824 135V144H59.8824V135H50.8824ZM50.8824 129.353V120.353H41.8824V129.353H50.8824ZM56.5294 129.353V138.353H65.5294V129.353H56.5294ZM56.5294 112.412V103.412H47.5294V112.412H56.5294ZM62.1765 112.412H71.1765V103.412H62.1765V112.412ZM62.1765 118.059H53.1765V127.059H62.1765V118.059ZM67.8235 118.059V127.059H76.8235V118.059H67.8235ZM67.8235 112.412V103.412H58.8235V112.412H67.8235ZM73.4706 112.412H82.4706V103.412H73.4706V112.412ZM73.4706 129.353H64.4706V138.353H73.4706V129.353ZM79.1176 129.353H88.1176V120.353H79.1176V129.353ZM79.1176 135H70.1176V144H79.1176V135ZM96.0588 135V144H105.059V135H96.0588ZM96.0588 129.353V120.353H87.0588V129.353H96.0588ZM101.706 129.353V138.353H110.706V129.353H101.706ZM101.706 61.5882H110.706V52.5882H101.706V61.5882ZM96.0588 61.5882H87.0588V70.5882H96.0588V61.5882ZM186.412 67.2353H195.412V58.2353H186.412V67.2353ZM180.765 67.2353H171.765V76.2353H180.765V67.2353ZM180.765 61.5882H189.765V52.5882H180.765V61.5882ZM175.118 61.5882H166.118V70.5882H175.118V61.5882ZM175.118 55.9412H184.118V46.9412H175.118V55.9412ZM124.294 55.9412V46.9412H115.294V55.9412H124.294ZM124.294 61.5882H115.294V70.5882H124.294V61.5882ZM129.941 61.5882H138.941V52.5882H129.941V61.5882ZM129.941 67.2353V76.2353H138.941V67.2353H129.941ZM124.294 67.2353V58.2353H115.294V67.2353H124.294ZM124.294 72.8823V81.8823H133.294V72.8823H124.294ZM118.647 72.8823H109.647V81.8823H118.647V72.8823ZM118.647 67.2353H127.647V58.2353H118.647V67.2353ZM113 67.2353V58.2353H104V67.2353H113ZM113 129.353H104V138.353H113V129.353ZM118.647 129.353H127.647V120.353H118.647V129.353ZM118.647 135H109.647V144H118.647V135ZM146.882 135V144H155.882V135H146.882ZM146.882 129.353V120.353H137.882V129.353H146.882ZM152.529 129.353V138.353H161.529V129.353H152.529ZM152.529 95.4706V86.4706H143.529V95.4706H152.529ZM169.471 95.4706H178.471V86.4706H169.471V95.4706ZM169.471 129.353H160.471V138.353H169.471V129.353ZM175.118 129.353H184.118V120.353H175.118V129.353ZM175.118 135H166.118V144H175.118V135ZM186.412 135V144H195.412V135H186.412ZM186.412 129.353V120.353H177.412V129.353H186.412ZM192.059 129.353V138.353H201.059V129.353H192.059ZM192.059 72.8823H201.059V63.8823H192.059V72.8823ZM186.412 72.8823H177.412V81.8823H186.412V72.8823ZM152.529 72.8823V63.8823H143.529V72.8823H152.529ZM169.471 72.8823H178.471V63.8823H169.471V72.8823ZM169.471 84.1765V93.1765H178.471V84.1765H169.471ZM152.529 84.1765H143.529V93.1765H152.529V84.1765ZM276.787 61.5882H285.787V52.5882H276.787V61.5882ZM271.14 61.5882H262.14V70.5882H271.14V61.5882ZM271.14 55.9412H280.14V46.9412H271.14V55.9412ZM209.022 55.9412V46.9412H200.022V55.9412H209.022ZM220.316 61.5882H229.316V52.5882H220.316V61.5882ZM220.316 67.2353V76.2353H229.316V67.2353H220.316ZM214.669 67.2353V58.2353H205.669V67.2353H214.669ZM214.669 72.8823V81.8823H223.669V72.8823H214.669ZM209.022 72.8823H200.022V81.8823H209.022V72.8823ZM203.375 61.5882V52.5882H194.375V61.5882H203.375ZM203.375 129.353H194.375V138.353H203.375V129.353ZM209.022 129.353H218.022V120.353H209.022V129.353ZM209.022 135H200.022V144H209.022V135ZM237.257 135V144H246.257V135H237.257ZM237.257 129.353V120.353H228.257V129.353H237.257ZM242.904 129.353V138.353H251.904V129.353H242.904ZM242.904 112.412V103.412H233.904V112.412H242.904ZM248.551 112.412H257.551V103.412H248.551V112.412ZM248.551 118.059H239.551V127.059H248.551V118.059ZM254.199 118.059H263.199V109.059H254.199V118.059ZM254.199 123.706H245.199V132.706H254.199V123.706ZM259.846 123.706H268.846V114.706H259.846V123.706ZM259.846 129.353H250.846V138.353H259.846V129.353ZM265.493 129.353H274.493V120.353H265.493V129.353ZM265.493 135H256.493V144H265.493V135ZM276.787 135V144H285.787V135H276.787ZM276.787 129.353V120.353H267.787V129.353H276.787ZM282.434 129.353V138.353H291.434V129.353H282.434ZM282.434 106.765H291.434V97.7647H282.434V106.765ZM276.787 106.765H267.787V115.765H276.787V106.765ZM276.787 101.118H285.787V92.1176H276.787V101.118ZM271.14 101.118H262.14V110.118H271.14V101.118ZM271.14 95.4706V86.4706H262.14V95.4706H271.14ZM276.787 95.4706V104.471H285.787V95.4706H276.787ZM276.787 89.8235V80.8235H267.787V89.8235H276.787ZM282.434 89.8235V98.8235H291.434V89.8235H282.434ZM282.434 67.2353H291.434V58.2353H282.434V67.2353ZM276.787 67.2353H267.787V76.2353H276.787V67.2353ZM259.846 84.1765V93.1765H268.846V84.1765H259.846ZM242.904 84.1765H233.904V93.1765H242.904V84.1765ZM242.904 72.8823V63.8823H233.904V72.8823H242.904ZM259.846 72.8823H268.846V63.8823H259.846V72.8823ZM367.162 61.5882H376.162V52.5882H367.162V61.5882ZM361.515 61.5882H352.515V70.5882H361.515V61.5882ZM361.515 55.9412H370.515V46.9412H361.515V55.9412ZM299.397 55.9412V46.9412H290.397V55.9412H299.397ZM310.691 61.5882H319.691V52.5882H310.691V61.5882ZM310.691 67.2353V76.2353H319.691V67.2353H310.691ZM305.044 67.2353V58.2353H296.044V67.2353H305.044ZM305.044 72.8823V81.8823H314.044V72.8823H305.044ZM299.397 72.8823H290.397V81.8823H299.397V72.8823ZM293.75 61.5882V52.5882H284.75V61.5882H293.75ZM293.75 129.353H284.75V138.353H293.75V129.353ZM299.397 129.353H308.397V120.353H299.397V129.353ZM299.397 135H290.397V144H299.397V135ZM361.515 135V144H370.515V135H361.515ZM361.515 129.353V120.353H352.515V129.353H361.515ZM367.162 129.353V138.353H376.162V129.353H367.162ZM367.162 123.706V114.706H358.162V123.706H367.162ZM372.809 123.706V132.706H381.809V123.706H372.809ZM372.809 95.4706H381.809V86.4706H372.809V95.4706ZM367.162 95.4706H358.162V104.471H367.162V95.4706ZM367.162 89.8235V80.8235H358.162V89.8235H367.162ZM372.809 89.8235V98.8235H381.809V89.8235H372.809ZM372.809 67.2353H381.809V58.2353H372.809V67.2353ZM367.162 67.2353H358.162V76.2353H367.162V67.2353ZM350.221 84.1765V93.1765H359.221V84.1765H350.221ZM333.279 84.1765H324.279V93.1765H333.279V84.1765ZM333.279 72.8823V63.8823H324.279V72.8823H333.279ZM350.221 72.8823H359.221V63.8823H350.221V72.8823ZM333.279 112.412H324.279V121.412H333.279V112.412ZM333.279 101.118V92.1176H324.279V101.118H333.279ZM350.221 101.118H359.221V92.1176H350.221V101.118ZM350.221 112.412V121.412H359.221V112.412H350.221ZM451.89 112.412H460.89V103.412H451.89V112.412ZM423.654 112.412H414.654V121.412H423.654V112.412ZM423.654 61.5882H432.654V52.5882H423.654V61.5882ZM418.007 61.5882H409.007V70.5882H418.007V61.5882ZM418.007 55.9412H427.007V46.9412H418.007V55.9412ZM389.772 55.9412V46.9412H380.772V55.9412H389.772ZM401.066 61.5882H410.066V52.5882H401.066V61.5882ZM401.066 67.2353V76.2353H410.066V67.2353H401.066ZM395.419 67.2353V58.2353H386.419V67.2353H395.419ZM395.419 72.8823V81.8823H404.419V72.8823H395.419ZM389.772 72.8823H380.772V81.8823H389.772V72.8823ZM384.125 61.5882V52.5882H375.125V61.5882H384.125ZM384.125 129.353H375.125V138.353H384.125V129.353ZM389.772 129.353H398.772V120.353H389.772V129.353ZM389.772 135H380.772V144H389.772V135ZM451.89 135V144H460.89V135H451.89ZM451.89 129.353V120.353H442.89V129.353H451.89ZM457.537 129.353V138.353H466.537V129.353H457.537ZM457.537 118.059H466.537V109.059H457.537V118.059ZM451.89 118.059H442.89V127.059H451.89V118.059ZM542.287 55.9412H551.287V46.9412H542.287V55.9412ZM474.522 55.9412V46.9412H465.522V55.9412H474.522ZM485.816 61.5882H494.816V52.5882H485.816V61.5882ZM485.816 67.2353V76.2353H494.816V67.2353H485.816ZM480.169 67.2353V58.2353H471.169V67.2353H480.169ZM480.169 72.8823V81.8823H489.169V72.8823H480.169ZM474.522 72.8823H465.522V81.8823H474.522V72.8823ZM468.875 61.5882V52.5882H459.875V61.5882H468.875ZM468.875 129.353H459.875V138.353H468.875V129.353ZM474.522 129.353H483.522V120.353H474.522V129.353ZM474.522 135H465.522V144H474.522V135ZM542.287 135V144H551.287V135H542.287ZM542.287 129.353V120.353H533.287V129.353H542.287ZM547.934 129.353V138.353H556.934V129.353H547.934ZM547.934 118.059H556.934V109.059H547.934V118.059ZM542.287 118.059H533.287V127.059H542.287V118.059ZM542.287 112.412H551.287V103.412H542.287V112.412ZM508.404 112.412H499.404V121.412H508.404V112.412ZM508.404 101.118V92.1176H499.404V101.118H508.404ZM542.287 101.118V110.118H551.287V101.118H542.287ZM542.287 95.4706V86.4706H533.287V95.4706H542.287ZM547.934 95.4706V104.471H556.934V95.4706H547.934ZM547.934 89.8235H556.934V80.8235H547.934V89.8235ZM542.287 89.8235H533.287V98.8235H542.287V89.8235ZM542.287 84.1765H551.287V75.1765H542.287V84.1765ZM508.404 84.1765H499.404V93.1765H508.404V84.1765ZM508.404 72.8823V63.8823H499.404V72.8823H508.404ZM542.287 72.8823V81.8823H551.287V72.8823H542.287ZM542.287 67.2353V58.2353H533.287V67.2353H542.287ZM547.934 67.2353V76.2353H556.934V67.2353H547.934ZM547.934 61.5882H556.934V52.5882H547.934V61.5882ZM542.287 61.5882H533.287V70.5882H542.287V61.5882ZM134.765 164.235H143.765V155.235H134.765V164.235ZM109.529 164.235V155.235H100.529V164.235H109.529ZM109.529 172.647V181.647H118.529V172.647H109.529ZM101.118 172.647V163.647H92.1177V172.647H101.118ZM101.118 206.294V215.294H110.118V206.294H101.118ZM92.7059 206.294V197.294H83.7059V206.294H92.7059ZM92.7059 214.706V223.706H101.706V214.706H92.7059ZM84.2941 214.706H75.2941V223.706H84.2941V214.706ZM84.2941 206.294H93.2941V197.294H84.2941V206.294ZM75.8824 206.294H66.8824V215.294H75.8824V206.294ZM75.8824 172.647H84.8824V163.647H75.8824V172.647ZM67.4706 172.647H58.4706V181.647H67.4706V172.647ZM67.4706 164.235H76.4706V155.235H67.4706V164.235ZM25.4118 164.235V155.235H16.4118V164.235H25.4118ZM42.2353 172.647H51.2353V163.647H42.2353V172.647ZM42.2353 181.059V190.059H51.2353V181.059H42.2353ZM33.8235 181.059V172.059H24.8235V181.059H33.8235ZM33.8235 189.471V198.471H42.8235V189.471H33.8235ZM25.4118 189.471H16.4118V198.471H25.4118V189.471ZM17 172.647V163.647H8V172.647H17ZM17 273.588H8V282.588H17V273.588ZM25.4118 273.588H34.4118V264.588H25.4118V273.588ZM25.4118 282H16.4118V291H25.4118V282ZM67.4706 282V291H76.4706V282H67.4706ZM67.4706 273.588V264.588H58.4706V273.588H67.4706ZM75.8824 273.588V282.588H84.8824V273.588H75.8824ZM75.8824 248.353V239.353H66.8824V248.353H75.8824ZM84.2941 248.353H93.2941V239.353H84.2941V248.353ZM84.2941 256.765H75.2941V265.765H84.2941V256.765ZM92.7059 256.765V265.765H101.706V256.765H92.7059ZM92.7059 248.353V239.353H83.7059V248.353H92.7059ZM101.118 248.353H110.118V239.353H101.118V248.353ZM101.118 273.588H92.1177V282.588H101.118V273.588ZM109.529 273.588H118.529V264.588H109.529V273.588ZM109.529 282H100.529V291H109.529V282ZM134.765 282V291H143.765V282H134.765ZM134.765 273.588V264.588H125.765V273.588H134.765ZM143.176 273.588V282.588H152.176V273.588H143.176ZM143.176 172.647H152.176V163.647H143.176V172.647ZM134.765 172.647H125.765V181.647H134.765V172.647ZM269.353 181.059H278.353V172.059H269.353V181.059ZM260.941 181.059H251.941V190.059H260.941V181.059ZM260.941 172.647H269.941V163.647H260.941V172.647ZM252.529 172.647H243.529V181.647H252.529V172.647ZM252.529 164.235H261.529V155.235H252.529V164.235ZM176.824 164.235V155.235H167.824V164.235H176.824ZM176.824 172.647H167.824V181.647H176.824V172.647ZM185.235 172.647H194.235V163.647H185.235V172.647ZM185.235 181.059V190.059H194.235V181.059H185.235ZM176.824 181.059V172.059H167.824V181.059H176.824ZM176.824 189.471V198.471H185.824V189.471H176.824ZM168.412 189.471H159.412V198.471H168.412V189.471ZM168.412 181.059H177.412V172.059H168.412V181.059ZM160 181.059V172.059H151V181.059H160ZM160 273.588H151V282.588H160V273.588ZM168.412 273.588H177.412V264.588H168.412V273.588ZM168.412 282H159.412V291H168.412V282ZM210.471 282V291H219.471V282H210.471ZM210.471 273.588V264.588H201.471V273.588H210.471ZM218.882 273.588V282.588H227.882V273.588H218.882ZM218.882 223.118V214.118H209.882V223.118H218.882ZM244.118 223.118H253.118V214.118H244.118V223.118ZM244.118 273.588H235.118V282.588H244.118V273.588ZM252.529 273.588H261.529V264.588H252.529V273.588ZM252.529 282H243.529V291H252.529V282ZM269.353 282V291H278.353V282H269.353ZM269.353 273.588V264.588H260.353V273.588H269.353ZM277.765 273.588V282.588H286.765V273.588H277.765ZM277.765 189.471H286.765V180.471H277.765V189.471ZM269.353 189.471H260.353V198.471H269.353V189.471ZM218.882 189.471V180.471H209.882V189.471H218.882ZM244.118 189.471H253.118V180.471H244.118V189.471ZM244.118 206.294V215.294H253.118V206.294H244.118ZM218.882 206.294H209.882V215.294H218.882V206.294ZM403.974 164.235H412.974V155.235H403.974V164.235ZM303.033 164.235V155.235H294.033V164.235H303.033ZM319.856 172.647H328.856V163.647H319.856V172.647ZM319.856 181.059V190.059H328.856V181.059H319.856ZM311.445 181.059V172.059H302.445V181.059H311.445ZM311.445 189.471V198.471H320.445V189.471H311.445ZM303.033 197.882H294.033V206.882H303.033V197.882ZM345.092 197.882H354.092V188.882H345.092V197.882ZM345.092 206.294V215.294H354.092V206.294H345.092ZM336.68 206.294V197.294H327.68V206.294H336.68ZM336.68 214.706V223.706H345.68V214.706H336.68ZM328.268 214.706V205.706H319.268V214.706H328.268ZM328.268 223.118V232.118H337.268V223.118H328.268ZM319.856 223.118V214.118H310.856V223.118H319.856ZM319.856 231.529V240.529H328.856V231.529H319.856ZM311.445 231.529V222.529H302.445V231.529H311.445ZM311.445 239.941V248.941H320.445V239.941H311.445ZM303.033 239.941V230.941H294.033V239.941H303.033ZM303.033 248.353V257.353H312.033V248.353H303.033ZM294.621 248.353V239.353H285.621V248.353H294.621ZM294.621 273.588H285.621V282.588H294.621V273.588ZM303.033 273.588H312.033V264.588H303.033V273.588ZM303.033 282H294.033V291H303.033V282ZM403.974 282V291H412.974V282H403.974ZM403.974 273.588V264.588H394.974V273.588H403.974ZM412.386 273.588V282.588H421.386V273.588H412.386ZM412.386 248.353H421.386V239.353H412.386V248.353ZM403.974 248.353H394.974V257.353H403.974V248.353ZM403.974 239.941H412.974V230.941H403.974V239.941ZM370.327 239.941H361.327V248.941H370.327V239.941ZM370.327 231.529V222.529H361.327V231.529H370.327ZM378.739 231.529V240.529H387.739V231.529H378.739ZM378.739 223.118V214.118H369.739V223.118H378.739ZM387.151 223.118V232.118H396.151V223.118H387.151ZM387.151 214.706V205.706H378.151V214.706H387.151ZM395.562 214.706V223.706H404.562V214.706H395.562ZM395.562 206.294V197.294H386.562V206.294H395.562ZM403.974 206.294V215.294H412.974V206.294H403.974ZM403.974 197.882V188.882H394.974V197.882H403.974ZM412.386 197.882V206.882H421.386V197.882H412.386ZM412.386 172.647H421.386V163.647H412.386V172.647ZM403.974 172.647H394.974V181.647H403.974V172.647ZM294.621 172.647V163.647H285.621V172.647H294.621ZM294.621 189.471H285.621V198.471H294.621V189.471ZM538.595 164.235H547.595V155.235H538.595V164.235ZM437.654 164.235V155.235H428.654V164.235H437.654ZM454.477 172.647H463.477V163.647H454.477V172.647ZM454.477 181.059V190.059H463.477V181.059H454.477ZM446.066 181.059V172.059H437.066V181.059H446.066ZM446.066 189.471V198.471H455.066V189.471H446.066ZM437.654 189.471H428.654V198.471H437.654V189.471ZM429.242 172.647V163.647H420.242V172.647H429.242ZM429.242 273.588H420.242V282.588H429.242V273.588ZM437.654 273.588H446.654V264.588H437.654V273.588ZM437.654 282H428.654V291H437.654V282ZM538.595 282V291H547.595V282H538.595ZM538.595 273.588V264.588H529.595V273.588H538.595ZM547.007 273.588V282.588H556.007V273.588H547.007ZM547.007 256.765H556.007V247.765H547.007V256.765ZM538.595 256.765H529.595V265.765H538.595V256.765ZM538.595 248.353H547.595V239.353H538.595V248.353ZM488.125 248.353H479.125V257.353H488.125V248.353ZM488.125 231.529V222.529H479.125V231.529H488.125ZM538.595 231.529V240.529H547.595V231.529H538.595ZM538.595 223.118V214.118H529.595V223.118H538.595ZM547.007 223.118V232.118H556.007V223.118H547.007ZM547.007 214.706H556.007V205.706H547.007V214.706ZM538.595 214.706H529.595V223.706H538.595V214.706ZM538.595 206.294H547.595V197.294H538.595V206.294ZM488.125 206.294H479.125V215.294H488.125V206.294ZM488.125 189.471V180.471H479.125V189.471H488.125ZM538.595 189.471V198.471H547.595V189.471H538.595ZM538.595 181.059V172.059H529.595V181.059H538.595ZM547.007 181.059V190.059H556.007V181.059H547.007ZM547.007 172.647H556.007V163.647H547.007V172.647ZM538.595 172.647H529.595V181.647H538.595V172.647ZM96.0588 46.9412H79.1176V64.9412H96.0588V46.9412ZM70.1176 55.9412V61.5882H88.1176V55.9412H70.1176ZM79.1176 52.5882H73.4706V70.5882H79.1176V52.5882ZM64.4706 61.5882V84.1765H82.4706V61.5882H64.4706ZM73.4706 75.1765H67.8235V93.1765H73.4706V75.1765ZM58.8235 84.1765V89.8235H76.8235V84.1765H58.8235ZM67.8235 80.8235H62.1765V98.8235H67.8235V80.8235ZM71.1765 89.8235V84.1765H53.1765V89.8235H71.1765ZM62.1765 75.1765H56.5294V93.1765H62.1765V75.1765ZM65.5294 84.1765V61.5882H47.5294V84.1765H65.5294ZM56.5294 52.5882H50.8824V70.5882H56.5294V52.5882ZM59.8824 61.5882V55.9412H41.8824V61.5882H59.8824ZM50.8824 46.9412H22.6471V64.9412H50.8824V46.9412ZM13.6471 55.9412V61.5882H31.6471V55.9412H13.6471ZM22.6471 70.5882H33.9412V52.5882H22.6471V70.5882ZM24.9412 61.5882V67.2353H42.9412V61.5882H24.9412ZM33.9412 58.2353H28.2941V76.2353H33.9412V58.2353ZM19.2941 67.2353V72.8823H37.2941V67.2353H19.2941ZM28.2941 63.8823H22.6471V81.8823H28.2941V63.8823ZM31.6471 72.8823V61.5882H13.6471V72.8823H31.6471ZM22.6471 52.5882H17V70.5882H22.6471V52.5882ZM8 61.5882V129.353H26V61.5882H8ZM17 138.353H22.6471V120.353H17V138.353ZM13.6471 129.353V135H31.6471V129.353H13.6471ZM22.6471 144H50.8824V126H22.6471V144ZM59.8824 135V129.353H41.8824V135H59.8824ZM50.8824 138.353H56.5294V120.353H50.8824V138.353ZM65.5294 129.353V112.412H47.5294V129.353H65.5294ZM56.5294 121.412H62.1765V103.412H56.5294V121.412ZM53.1765 112.412V118.059H71.1765V112.412H53.1765ZM62.1765 127.059H67.8235V109.059H62.1765V127.059ZM76.8235 118.059V112.412H58.8235V118.059H76.8235ZM67.8235 121.412H73.4706V103.412H67.8235V121.412ZM64.4706 112.412V129.353H82.4706V112.412H64.4706ZM73.4706 138.353H79.1176V120.353H73.4706V138.353ZM70.1176 129.353V135H88.1176V129.353H70.1176ZM79.1176 144H96.0588V126H79.1176V144ZM105.059 135V129.353H87.0588V135H105.059ZM96.0588 138.353H101.706V120.353H96.0588V138.353ZM110.706 129.353V61.5882H92.7059V129.353H110.706ZM101.706 52.5882H96.0588V70.5882H101.706V52.5882ZM105.059 61.5882V55.9412H87.0588V61.5882H105.059ZM186.412 58.2353H180.765V76.2353H186.412V58.2353ZM189.765 67.2353V61.5882H171.765V67.2353H189.765ZM180.765 52.5882H175.118V70.5882H180.765V52.5882ZM184.118 61.5882V55.9412H166.118V61.5882H184.118ZM175.118 46.9412H124.294V64.9412H175.118V46.9412ZM115.294 55.9412V61.5882H133.294V55.9412H115.294ZM124.294 70.5882H129.941V52.5882H124.294V70.5882ZM120.941 61.5882V67.2353H138.941V61.5882H120.941ZM129.941 58.2353H124.294V76.2353H129.941V58.2353ZM115.294 67.2353V72.8823H133.294V67.2353H115.294ZM124.294 63.8823H118.647V81.8823H124.294V63.8823ZM127.647 72.8823V67.2353H109.647V72.8823H127.647ZM118.647 58.2353H113V76.2353H118.647V58.2353ZM104 67.2353V129.353H122V67.2353H104ZM113 138.353H118.647V120.353H113V138.353ZM109.647 129.353V135H127.647V129.353H109.647ZM118.647 144H146.882V126H118.647V144ZM155.882 135V129.353H137.882V135H155.882ZM146.882 138.353H152.529V120.353H146.882V138.353ZM161.529 129.353V95.4706H143.529V129.353H161.529ZM152.529 104.471H169.471V86.4706H152.529V104.471ZM160.471 95.4706V129.353H178.471V95.4706H160.471ZM169.471 138.353H175.118V120.353H169.471V138.353ZM166.118 129.353V135H184.118V129.353H166.118ZM175.118 144H186.412V126H175.118V144ZM195.412 135V129.353H177.412V135H195.412ZM186.412 138.353H192.059V120.353H186.412V138.353ZM201.059 129.353V72.8823H183.059V129.353H201.059ZM192.059 63.8823H186.412V81.8823H192.059V63.8823ZM195.412 72.8823V67.2353H177.412V72.8823H195.412ZM152.529 81.8823H169.471V63.8823H152.529V81.8823ZM160.471 72.8823V84.1765H178.471V72.8823H160.471ZM169.471 75.1765H152.529V93.1765H169.471V75.1765ZM161.529 84.1765V72.8823H143.529V84.1765H161.529ZM276.787 52.5882H271.14V70.5882H276.787V52.5882ZM280.14 61.5882V55.9412H262.14V61.5882H280.14ZM271.14 46.9412H209.022V64.9412H271.14V46.9412ZM200.022 55.9412V61.5882H218.022V55.9412H200.022ZM209.022 70.5882H220.316V52.5882H209.022V70.5882ZM211.316 61.5882V67.2353H229.316V61.5882H211.316ZM220.316 58.2353H214.669V76.2353H220.316V58.2353ZM205.669 67.2353V72.8823H223.669V67.2353H205.669ZM214.669 63.8823H209.022V81.8823H214.669V63.8823ZM218.022 72.8823V61.5882H200.022V72.8823H218.022ZM209.022 52.5882H203.375V70.5882H209.022V52.5882ZM194.375 61.5882V129.353H212.375V61.5882H194.375ZM203.375 138.353H209.022V120.353H203.375V138.353ZM200.022 129.353V135H218.022V129.353H200.022ZM209.022 144H237.257V126H209.022V144ZM246.257 135V129.353H228.257V135H246.257ZM237.257 138.353H242.904V120.353H237.257V138.353ZM251.904 129.353V112.412H233.904V129.353H251.904ZM242.904 121.412H248.551V103.412H242.904V121.412ZM239.551 112.412V118.059H257.551V112.412H239.551ZM248.551 127.059H254.199V109.059H248.551V127.059ZM245.199 118.059V123.706H263.199V118.059H245.199ZM254.199 132.706H259.846V114.706H254.199V132.706ZM250.846 123.706V129.353H268.846V123.706H250.846ZM259.846 138.353H265.493V120.353H259.846V138.353ZM256.493 129.353V135H274.493V129.353H256.493ZM265.493 144H276.787V126H265.493V144ZM285.787 135V129.353H267.787V135H285.787ZM276.787 138.353H282.434V120.353H276.787V138.353ZM291.434 129.353V106.765H273.434V129.353H291.434ZM282.434 97.7647H276.787V115.765H282.434V97.7647ZM285.787 106.765V101.118H267.787V106.765H285.787ZM276.787 92.1176H271.14V110.118H276.787V92.1176ZM280.14 101.118V95.4706H262.14V101.118H280.14ZM271.14 104.471H276.787V86.4706H271.14V104.471ZM285.787 95.4706V89.8235H267.787V95.4706H285.787ZM276.787 98.8235H282.434V80.8235H276.787V98.8235ZM291.434 89.8235V67.2353H273.434V89.8235H291.434ZM282.434 58.2353H276.787V76.2353H282.434V58.2353ZM285.787 67.2353V61.5882H267.787V67.2353H285.787ZM259.846 75.1765H242.904V93.1765H259.846V75.1765ZM251.904 84.1765V72.8823H233.904V84.1765H251.904ZM242.904 81.8823H259.846V63.8823H242.904V81.8823ZM250.846 72.8823V84.1765H268.846V72.8823H250.846ZM367.162 52.5882H361.515V70.5882H367.162V52.5882ZM370.515 61.5882V55.9412H352.515V61.5882H370.515ZM361.515 46.9412H299.397V64.9412H361.515V46.9412ZM290.397 55.9412V61.5882H308.397V55.9412H290.397ZM299.397 70.5882H310.691V52.5882H299.397V70.5882ZM301.691 61.5882V67.2353H319.691V61.5882H301.691ZM310.691 58.2353H305.044V76.2353H310.691V58.2353ZM296.044 67.2353V72.8823H314.044V67.2353H296.044ZM305.044 63.8823H299.397V81.8823H305.044V63.8823ZM308.397 72.8823V61.5882H290.397V72.8823H308.397ZM299.397 52.5882H293.75V70.5882H299.397V52.5882ZM284.75 61.5882V129.353H302.75V61.5882H284.75ZM293.75 138.353H299.397V120.353H293.75V138.353ZM290.397 129.353V135H308.397V129.353H290.397ZM299.397 144H361.515V126H299.397V144ZM370.515 135V129.353H352.515V135H370.515ZM361.515 138.353H367.162V120.353H361.515V138.353ZM376.162 129.353V123.706H358.162V129.353H376.162ZM367.162 132.706H372.809V114.706H367.162V132.706ZM381.809 123.706V95.4706H363.809V123.706H381.809ZM372.809 86.4706H367.162V104.471H372.809V86.4706ZM376.162 95.4706V89.8235H358.162V95.4706H376.162ZM367.162 98.8235H372.809V80.8235H367.162V98.8235ZM381.809 89.8235V67.2353H363.809V89.8235H381.809ZM372.809 58.2353H367.162V76.2353H372.809V58.2353ZM376.162 67.2353V61.5882H358.162V67.2353H376.162ZM350.221 75.1765H333.279V93.1765H350.221V75.1765ZM342.279 84.1765V72.8823H324.279V84.1765H342.279ZM333.279 81.8823H350.221V63.8823H333.279V81.8823ZM341.221 72.8823V84.1765H359.221V72.8823H341.221ZM342.279 112.412V101.118H324.279V112.412H342.279ZM333.279 110.118H350.221V92.1176H333.279V110.118ZM341.221 101.118V112.412H359.221V101.118H341.221ZM350.221 103.412H333.279V121.412H350.221V103.412ZM451.89 103.412H423.654V121.412H451.89V103.412ZM432.654 112.412V61.5882H414.654V112.412H432.654ZM423.654 52.5882H418.007V70.5882H423.654V52.5882ZM427.007 61.5882V55.9412H409.007V61.5882H427.007ZM418.007 46.9412H389.772V64.9412H418.007V46.9412ZM380.772 55.9412V61.5882H398.772V55.9412H380.772ZM389.772 70.5882H401.066V52.5882H389.772V70.5882ZM392.066 61.5882V67.2353H410.066V61.5882H392.066ZM401.066 58.2353H395.419V76.2353H401.066V58.2353ZM386.419 67.2353V72.8823H404.419V67.2353H386.419ZM395.419 63.8823H389.772V81.8823H395.419V63.8823ZM398.772 72.8823V61.5882H380.772V72.8823H398.772ZM389.772 52.5882H384.125V70.5882H389.772V52.5882ZM375.125 61.5882V129.353H393.125V61.5882H375.125ZM384.125 138.353H389.772V120.353H384.125V138.353ZM380.772 129.353V135H398.772V129.353H380.772ZM389.772 144H451.89V126H389.772V144ZM460.89 135V129.353H442.89V135H460.89ZM451.89 138.353H457.537V120.353H451.89V138.353ZM466.537 129.353V118.059H448.537V129.353H466.537ZM457.537 109.059H451.89V127.059H457.537V109.059ZM460.89 118.059V112.412H442.89V118.059H460.89ZM542.287 46.9412H474.522V64.9412H542.287V46.9412ZM465.522 55.9412V61.5882H483.522V55.9412H465.522ZM474.522 70.5882H485.816V52.5882H474.522V70.5882ZM476.816 61.5882V67.2353H494.816V61.5882H476.816ZM485.816 58.2353H480.169V76.2353H485.816V58.2353ZM471.169 67.2353V72.8823H489.169V67.2353H471.169ZM480.169 63.8823H474.522V81.8823H480.169V63.8823ZM483.522 72.8823V61.5882H465.522V72.8823H483.522ZM474.522 52.5882H468.875V70.5882H474.522V52.5882ZM459.875 61.5882V129.353H477.875V61.5882H459.875ZM468.875 138.353H474.522V120.353H468.875V138.353ZM465.522 129.353V135H483.522V129.353H465.522ZM474.522 144H542.287V126H474.522V144ZM551.287 135V129.353H533.287V135H551.287ZM542.287 138.353H547.934V120.353H542.287V138.353ZM556.934 129.353V118.059H538.934V129.353H556.934ZM547.934 109.059H542.287V127.059H547.934V109.059ZM551.287 118.059V112.412H533.287V118.059H551.287ZM542.287 103.412H508.404V121.412H542.287V103.412ZM517.404 112.412V101.118H499.404V112.412H517.404ZM508.404 110.118H542.287V92.1176H508.404V110.118ZM551.287 101.118V95.4706H533.287V101.118H551.287ZM542.287 104.471H547.934V86.4706H542.287V104.471ZM556.934 95.4706V89.8235H538.934V95.4706H556.934ZM547.934 80.8235H542.287V98.8235H547.934V80.8235ZM551.287 89.8235V84.1765H533.287V89.8235H551.287ZM542.287 75.1765H508.404V93.1765H542.287V75.1765ZM517.404 84.1765V72.8823H499.404V84.1765H517.404ZM508.404 81.8823H542.287V63.8823H508.404V81.8823ZM551.287 72.8823V67.2353H533.287V72.8823H551.287ZM542.287 76.2353H547.934V58.2353H542.287V76.2353ZM556.934 67.2353V61.5882H538.934V67.2353H556.934ZM547.934 52.5882H542.287V70.5882H547.934V52.5882ZM551.287 61.5882V55.9412H533.287V61.5882H551.287ZM134.765 155.235H109.529V173.235H134.765V155.235ZM100.529 164.235V172.647H118.529V164.235H100.529ZM109.529 163.647H101.118V181.647H109.529V163.647ZM92.1177 172.647V206.294H110.118V172.647H92.1177ZM101.118 197.294H92.7059V215.294H101.118V197.294ZM83.7059 206.294V214.706H101.706V206.294H83.7059ZM92.7059 205.706H84.2941V223.706H92.7059V205.706ZM93.2941 214.706V206.294H75.2941V214.706H93.2941ZM84.2941 197.294H75.8824V215.294H84.2941V197.294ZM84.8824 206.294V172.647H66.8824V206.294H84.8824ZM75.8824 163.647H67.4706V181.647H75.8824V163.647ZM76.4706 172.647V164.235H58.4706V172.647H76.4706ZM67.4706 155.235H25.4118V173.235H67.4706V155.235ZM16.4118 164.235V172.647H34.4118V164.235H16.4118ZM25.4118 181.647H42.2353V163.647H25.4118V181.647ZM33.2353 172.647V181.059H51.2353V172.647H33.2353ZM42.2353 172.059H33.8235V190.059H42.2353V172.059ZM24.8235 181.059V189.471H42.8235V181.059H24.8235ZM33.8235 180.471H25.4118V198.471H33.8235V180.471ZM34.4118 189.471V172.647H16.4118V189.471H34.4118ZM25.4118 163.647H17V181.647H25.4118V163.647ZM8 172.647V273.588H26V172.647H8ZM17 282.588H25.4118V264.588H17V282.588ZM16.4118 273.588V282H34.4118V273.588H16.4118ZM25.4118 291H67.4706V273H25.4118V291ZM76.4706 282V273.588H58.4706V282H76.4706ZM67.4706 282.588H75.8824V264.588H67.4706V282.588ZM84.8824 273.588V248.353H66.8824V273.588H84.8824ZM75.8824 257.353H84.2941V239.353H75.8824V257.353ZM75.2941 248.353V256.765H93.2941V248.353H75.2941ZM84.2941 265.765H92.7059V247.765H84.2941V265.765ZM101.706 256.765V248.353H83.7059V256.765H101.706ZM92.7059 257.353H101.118V239.353H92.7059V257.353ZM92.1177 248.353V273.588H110.118V248.353H92.1177ZM101.118 282.588H109.529V264.588H101.118V282.588ZM100.529 273.588V282H118.529V273.588H100.529ZM109.529 291H134.765V273H109.529V291ZM143.765 282V273.588H125.765V282H143.765ZM134.765 282.588H143.176V264.588H134.765V282.588ZM152.176 273.588V172.647H134.176V273.588H152.176ZM143.176 163.647H134.765V181.647H143.176V163.647ZM143.765 172.647V164.235H125.765V172.647H143.765ZM269.353 172.059H260.941V190.059H269.353V172.059ZM269.941 181.059V172.647H251.941V181.059H269.941ZM260.941 163.647H252.529V181.647H260.941V163.647ZM261.529 172.647V164.235H243.529V172.647H261.529ZM252.529 155.235H176.824V173.235H252.529V155.235ZM167.824 164.235V172.647H185.824V164.235H167.824ZM176.824 181.647H185.235V163.647H176.824V181.647ZM176.235 172.647V181.059H194.235V172.647H176.235ZM185.235 172.059H176.824V190.059H185.235V172.059ZM167.824 181.059V189.471H185.824V181.059H167.824ZM176.824 180.471H168.412V198.471H176.824V180.471ZM177.412 189.471V181.059H159.412V189.471H177.412ZM168.412 172.059H160V190.059H168.412V172.059ZM151 181.059V273.588H169V181.059H151ZM160 282.588H168.412V264.588H160V282.588ZM159.412 273.588V282H177.412V273.588H159.412ZM168.412 291H210.471V273H168.412V291ZM219.471 282V273.588H201.471V282H219.471ZM210.471 282.588H218.882V264.588H210.471V282.588ZM227.882 273.588V223.118H209.882V273.588H227.882ZM218.882 232.118H244.118V214.118H218.882V232.118ZM235.118 223.118V273.588H253.118V223.118H235.118ZM244.118 282.588H252.529V264.588H244.118V282.588ZM243.529 273.588V282H261.529V273.588H243.529ZM252.529 291H269.353V273H252.529V291ZM278.353 282V273.588H260.353V282H278.353ZM269.353 282.588H277.765V264.588H269.353V282.588ZM286.765 273.588V189.471H268.765V273.588H286.765ZM277.765 180.471H269.353V198.471H277.765V180.471ZM278.353 189.471V181.059H260.353V189.471H278.353ZM218.882 198.471H244.118V180.471H218.882V198.471ZM235.118 189.471V206.294H253.118V189.471H235.118ZM244.118 197.294H218.882V215.294H244.118V197.294ZM227.882 206.294V189.471H209.882V206.294H227.882ZM403.974 155.235H303.033V173.235H403.974V155.235ZM294.033 164.235V172.647H312.033V164.235H294.033ZM303.033 181.647H319.856V163.647H303.033V181.647ZM310.856 172.647V181.059H328.856V172.647H310.856ZM319.856 172.059H311.445V190.059H319.856V172.059ZM302.445 181.059V189.471H320.445V181.059H302.445ZM311.445 180.471H303.033V198.471H311.445V180.471ZM294.033 189.471V197.882H312.033V189.471H294.033ZM303.033 206.882H345.092V188.882H303.033V206.882ZM336.092 197.882V206.294H354.092V197.882H336.092ZM345.092 197.294H336.68V215.294H345.092V197.294ZM327.68 206.294V214.706H345.68V206.294H327.68ZM336.68 205.706H328.268V223.706H336.68V205.706ZM319.268 214.706V223.118H337.268V214.706H319.268ZM328.268 214.118H319.856V232.118H328.268V214.118ZM310.856 223.118V231.529H328.856V223.118H310.856ZM319.856 222.529H311.445V240.529H319.856V222.529ZM302.445 231.529V239.941H320.445V231.529H302.445ZM311.445 230.941H303.033V248.941H311.445V230.941ZM294.033 239.941V248.353H312.033V239.941H294.033ZM303.033 239.353H294.621V257.353H303.033V239.353ZM285.621 248.353V273.588H303.621V248.353H285.621ZM294.621 282.588H303.033V264.588H294.621V282.588ZM294.033 273.588V282H312.033V273.588H294.033ZM303.033 291H403.974V273H303.033V291ZM412.974 282V273.588H394.974V282H412.974ZM403.974 282.588H412.386V264.588H403.974V282.588ZM421.386 273.588V248.353H403.386V273.588H421.386ZM412.386 239.353H403.974V257.353H412.386V239.353ZM412.974 248.353V239.941H394.974V248.353H412.974ZM403.974 230.941H370.327V248.941H403.974V230.941ZM379.327 239.941V231.529H361.327V239.941H379.327ZM370.327 240.529H378.739V222.529H370.327V240.529ZM387.739 231.529V223.118H369.739V231.529H387.739ZM378.739 232.118H387.151V214.118H378.739V232.118ZM396.151 223.118V214.706H378.151V223.118H396.151ZM387.151 223.706H395.562V205.706H387.151V223.706ZM404.562 214.706V206.294H386.562V214.706H404.562ZM395.562 215.294H403.974V197.294H395.562V215.294ZM412.974 206.294V197.882H394.974V206.294H412.974ZM403.974 206.882H412.386V188.882H403.974V206.882ZM421.386 197.882V172.647H403.386V197.882H421.386ZM412.386 163.647H403.974V181.647H412.386V163.647ZM412.974 172.647V164.235H394.974V172.647H412.974ZM303.033 163.647H294.621V181.647H303.033V163.647ZM285.621 172.647V189.471H303.621V172.647H285.621ZM294.621 198.471H303.033V180.471H294.621V198.471ZM312.033 189.471V172.647H294.033V189.471H312.033ZM538.595 155.235H437.654V173.235H538.595V155.235ZM428.654 164.235V172.647H446.654V164.235H428.654ZM437.654 181.647H454.477V163.647H437.654V181.647ZM445.477 172.647V181.059H463.477V172.647H445.477ZM454.477 172.059H446.066V190.059H454.477V172.059ZM437.066 181.059V189.471H455.066V181.059H437.066ZM446.066 180.471H437.654V198.471H446.066V180.471ZM446.654 189.471V172.647H428.654V189.471H446.654ZM437.654 163.647H429.242V181.647H437.654V163.647ZM420.242 172.647V273.588H438.242V172.647H420.242ZM429.242 282.588H437.654V264.588H429.242V282.588ZM428.654 273.588V282H446.654V273.588H428.654ZM437.654 291H538.595V273H437.654V291ZM547.595 282V273.588H529.595V282H547.595ZM538.595 282.588H547.007V264.588H538.595V282.588ZM556.007 273.588V256.765H538.007V273.588H556.007ZM547.007 247.765H538.595V265.765H547.007V247.765ZM547.595 256.765V248.353H529.595V256.765H547.595ZM538.595 239.353H488.125V257.353H538.595V239.353ZM497.125 248.353V231.529H479.125V248.353H497.125ZM488.125 240.529H538.595V222.529H488.125V240.529ZM547.595 231.529V223.118H529.595V231.529H547.595ZM538.595 232.118H547.007V214.118H538.595V232.118ZM556.007 223.118V214.706H538.007V223.118H556.007ZM547.007 205.706H538.595V223.706H547.007V205.706ZM547.595 214.706V206.294H529.595V214.706H547.595ZM538.595 197.294H488.125V215.294H538.595V197.294ZM497.125 206.294V189.471H479.125V206.294H497.125ZM488.125 198.471H538.595V180.471H488.125V198.471ZM547.595 189.471V181.059H529.595V189.471H547.595ZM538.595 190.059H547.007V172.059H538.595V190.059ZM556.007 181.059V172.647H538.007V181.059H556.007ZM547.007 163.647H538.595V181.647H547.007V163.647ZM547.595 172.647V164.235H529.595V172.647H547.595Z" fill="black" mask="url(#path-1-outside-1)"/>
<path d="M95.0588 51.9412H78.1176V57.5882H72.4706V80.1765H66.8235V85.8235H61.1765V80.1765H55.5294V57.5882H49.8824V51.9412H21.6471V57.5882H32.9412V63.2353H27.2941V68.8823H21.6471V57.5882H16V125.353H21.6471V131H49.8824V125.353H55.5294V108.412H61.1765V114.059H66.8235V108.412H72.4706V125.353H78.1176V131H95.0588V125.353H100.706V57.5882H95.0588V51.9412Z" fill="white"/>
<path d="M185.412 63.2353H179.765V57.5882H174.118V51.9412H123.294V57.5882H128.941V63.2353H123.294V68.8823H117.647V63.2353H112V125.353H117.647V131H145.882V125.353H151.529V91.4706H168.471V125.353H174.118V131H185.412V125.353H191.059V68.8823H185.412V63.2353ZM151.529 68.8823H168.471V80.1765H151.529V68.8823Z" fill="white"/>
<path d="M275.787 57.5882H270.14V51.9412H208.022V57.5882H219.316V63.2353H213.669V68.8823H208.022V57.5882H202.375V125.353H208.022V131H236.257V125.353H241.904V108.412H247.551V114.059H253.199V119.706H258.846V125.353H264.493V131H275.787V125.353H281.434V102.765H275.787V97.1176H270.14V91.4706H275.787V85.8235H281.434V63.2353H275.787V57.5882ZM258.846 80.1765H241.904V68.8823H258.846V80.1765Z" fill="white"/>
<path d="M366.162 57.5882H360.515V51.9412H298.397V57.5882H309.691V63.2353H304.044V68.8823H298.397V57.5882H292.75V125.353H298.397V131H360.515V125.353H366.162V119.706H371.809V91.4706H366.162V85.8235H371.809V63.2353H366.162V57.5882ZM349.221 80.1765H332.279V68.8823H349.221V80.1765ZM332.279 108.412V97.1176H349.221V108.412H332.279Z" fill="white"/>
<path d="M450.89 108.412H422.654V57.5882H417.007V51.9412H388.772V57.5882H400.066V63.2353H394.419V68.8823H388.772V57.5882H383.125V125.353H388.772V131H450.89V125.353H456.537V114.059H450.89V108.412Z" fill="white"/>
<path d="M541.287 51.9412H473.522V57.5882H484.816V63.2353H479.169V68.8823H473.522V57.5882H467.875V125.353H473.522V131H541.287V125.353H546.934V114.059H541.287V108.412H507.404V97.1176H541.287V91.4706H546.934V85.8235H541.287V80.1765H507.404V68.8823H541.287V63.2353H546.934V57.5882H541.287V51.9412Z" fill="white"/>
<path d="M133.765 160.235H108.529V168.647H100.118V202.294H91.7059V210.706H83.2941V202.294H74.8824V168.647H66.4706V160.235H24.4118V168.647H41.2353V177.059H32.8235V185.471H24.4118V168.647H16V269.588H24.4118V278H66.4706V269.588H74.8824V244.353H83.2941V252.765H91.7059V244.353H100.118V269.588H108.529V278H133.765V269.588H142.176V168.647H133.765V160.235Z" fill="white"/>
<path d="M268.353 177.059H259.941V168.647H251.529V160.235H175.824V168.647H184.235V177.059H175.824V185.471H167.412V177.059H159V269.588H167.412V278H209.471V269.588H217.882V219.118H243.118V269.588H251.529V278H268.353V269.588H276.765V185.471H268.353V177.059ZM217.882 185.471H243.118V202.294H217.882V185.471Z" fill="white"/>
<path d="M402.974 160.235H302.033V168.647H318.856V177.059H310.445V185.471H302.033V193.882H344.092V202.294H335.68V210.706H327.268V219.118H318.856V227.529H310.445V235.941H302.033V244.353H293.621V269.588H302.033V278H402.974V269.588H411.386V244.353H402.974V235.941H369.327V227.529H377.739V219.118H386.151V210.706H394.562V202.294H402.974V193.882H411.386V168.647H402.974V160.235ZM302.033 168.647H293.621V185.471H302.033V168.647Z" fill="white"/>
<path d="M537.595 160.235H436.654V168.647H453.477V177.059H445.066V185.471H436.654V168.647H428.242V269.588H436.654V278H537.595V269.588H546.007V252.765H537.595V244.353H487.125V227.529H537.595V219.118H546.007V210.706H537.595V202.294H487.125V185.471H537.595V177.059H546.007V168.647H537.595V160.235Z" fill="white"/>
</svg>
