<svg width="85" height="85" viewBox="0 0 85 85" fill="none" xmlns="http://www.w3.org/2000/svg">
<rect x="10" y="10" width="65" height="65" fill="#EB8683"/>
<line x1="10" y1="77.5" x2="75" y2="77.5" stroke="white" stroke-width="5"/>
<line x1="10" y1="7.5" x2="75" y2="7.5" stroke="white" stroke-width="5"/>
<line x1="77.5208" y1="10" x2="77.5208" y2="75" stroke="white" stroke-width="5"/>
<line x1="7.52075" y1="10" x2="7.52075" y2="75" stroke="white" stroke-width="5"/>
<rect x="70" y="10" width="5" height="5" fill="white"/>
<rect x="75" y="7" width="3" height="3" fill="white"/>
<rect x="70" y="12" width="3" height="3" fill="#EB8683"/>
<rect x="75" y="75" width="3" height="3" fill="white"/>
<rect x="7" y="7" width="3" height="3" fill="white"/>
<rect x="7" y="75" width="3" height="3" fill="white"/>
<rect x="70" y="70" width="5" height="5" fill="white"/>
<rect x="10" y="10" width="5" height="5" fill="white"/>
<rect x="10" y="70" width="5" height="5" fill="white"/>
<rect x="12" y="12" width="3" height="3" fill="#EB8683"/>
<rect x="10" y="61" width="6" height="9" fill="#D67774"/>
<rect x="69" y="61" width="6" height="9" fill="#D67774"/>
<rect x="15" y="67" width="55" height="8" fill="#D67774"/>
<rect x="70" y="70" width="3" height="3" fill="#D67774"/>
<rect x="66" y="64" width="3" height="3" fill="#D67774"/>
<rect x="72" y="58" width="3" height="3" fill="#D67774"/>
<rect x="12" y="70" width="3" height="3" fill="#D67774"/>
<rect x="16" y="64" width="3" height="3" fill="#D67774"/>
<rect x="10" y="58" width="3" height="3" fill="#D67774"/>
<rect x="41" y="20" width="3" height="3" fill="white"/>
<rect x="44" y="23" width="3" height="3" fill="white"/>
<rect x="44" y="26" width="3" height="3" fill="white"/>
<rect x="53" y="35" width="3" height="3" fill="white"/>
<rect x="35" y="35" width="3" height="3" fill="white"/>
<rect x="35" y="26" width="3" height="3" fill="white"/>
<rect x="53" y="26" width="3" height="3" fill="white"/>
<rect x="56" y="26" width="3" height="3" fill="white"/>
<rect x="56" y="29" width="3" height="3" fill="white"/>
<rect x="53" y="23" width="3" height="3" fill="white"/>
<rect x="50" y="23" width="3" height="3" fill="white"/>
<rect x="53" y="44" width="3" height="3" fill="white"/>
<rect x="35" y="44" width="3" height="3" fill="white"/>
<rect x="26" y="35" width="3" height="3" fill="white"/>
<rect x="23" y="35" width="3" height="3" fill="white"/>
<rect x="44" y="44" width="3" height="3" fill="white"/>
<rect x="44" y="53" width="3" height="3" fill="white"/>
<rect x="44" y="56" width="3" height="3" fill="white"/>
<rect x="44" y="20" width="3" height="3" fill="white"/>
<rect x="44" y="29" width="3" height="3" fill="white"/>
<rect x="53" y="38" width="3" height="3" fill="white"/>
<rect x="35" y="38" width="3" height="3" fill="white"/>
<rect x="35" y="29" width="3" height="3" fill="white"/>
<rect x="53" y="29" width="3" height="3" fill="white"/>
<rect x="53" y="47" width="3" height="3" fill="white"/>
<rect x="56" y="50" width="3" height="3" fill="white"/>
<rect x="56" y="47" width="3" height="3" fill="white"/>
<rect x="35" y="47" width="3" height="3" fill="white"/>
<rect x="26" y="38" width="3" height="3" fill="white"/>
<rect x="44" y="47" width="3" height="3" fill="white"/>
<rect x="44" y="32" width="3" height="3" fill="white"/>
<rect x="53" y="41" width="3" height="3" fill="white"/>
<rect x="35" y="41" width="3" height="3" fill="white"/>
<rect x="35" y="32" width="3" height="3" fill="white"/>
<rect x="53" y="32" width="3" height="3" fill="white"/>
<rect x="53" y="50" width="3" height="3" fill="white"/>
<rect x="35" y="50" width="3" height="3" fill="white"/>
<rect x="26" y="41" width="3" height="3" fill="white"/>
<rect x="23" y="41" width="3" height="3" fill="white"/>
<rect x="44" y="50" width="3" height="3" fill="white"/>
<rect x="41" y="32" width="3" height="3" fill="white"/>
<rect x="50" y="41" width="3" height="3" fill="white"/>
<rect x="32" y="41" width="3" height="3" fill="white"/>
<rect x="32" y="32" width="3" height="3" fill="white"/>
<rect x="50" y="32" width="3" height="3" fill="white"/>
<rect x="50" y="50" width="3" height="3" fill="white"/>
<rect x="53" y="53" width="3" height="3" fill="white"/>
<rect x="50" y="53" width="3" height="3" fill="white"/>
<rect x="32" y="50" width="3" height="3" fill="white"/>
<rect x="41" y="50" width="3" height="3" fill="white"/>
<rect x="38" y="32" width="3" height="3" fill="white"/>
<rect x="47" y="41" width="3" height="3" fill="white"/>
<rect x="29" y="41" width="3" height="3" fill="white"/>
<rect x="29" y="32" width="3" height="3" fill="white"/>
<rect x="47" y="32" width="3" height="3" fill="white"/>
<rect x="47" y="50" width="3" height="3" fill="white"/>
<rect x="29" y="50" width="3" height="3" fill="white"/>
<rect x="29" y="53" width="3" height="3" fill="white"/>
<rect x="32" y="53" width="3" height="3" fill="white"/>
<rect x="56" y="41" width="3" height="3" fill="white"/>
<rect x="59" y="41" width="3" height="3" fill="white"/>
<rect x="38" y="50" width="3" height="3" fill="white"/>
<rect x="41" y="23" width="3" height="3" fill="white"/>
<rect x="41" y="26" width="3" height="3" fill="white"/>
<rect x="50" y="35" width="3" height="3" fill="white"/>
<rect x="32" y="35" width="3" height="3" fill="white"/>
<rect x="32" y="26" width="3" height="3" fill="white"/>
<rect x="50" y="26" width="3" height="3" fill="white"/>
<rect x="50" y="44" width="3" height="3" fill="white"/>
<rect x="32" y="44" width="3" height="3" fill="white"/>
<rect x="41" y="44" width="3" height="3" fill="white"/>
<rect x="41" y="53" width="3" height="3" fill="white"/>
<rect x="41" y="29" width="3" height="3" fill="white"/>
<rect x="50" y="38" width="3" height="3" fill="white"/>
<rect x="32" y="38" width="3" height="3" fill="white"/>
<rect x="32" y="29" width="3" height="3" fill="white"/>
<rect x="50" y="29" width="3" height="3" fill="white"/>
<rect x="50" y="47" width="3" height="3" fill="white"/>
<rect x="32" y="47" width="3" height="3" fill="white"/>
<rect x="59" y="38" width="3" height="3" fill="white"/>
<rect x="23" y="38" width="3" height="3" fill="white"/>
<rect x="41" y="47" width="3" height="3" fill="white"/>
<rect x="41" y="56" width="3" height="3" fill="white"/>
<rect x="38" y="23" width="3" height="3" fill="white"/>
<rect x="38" y="26" width="3" height="3" fill="white"/>
<rect x="47" y="35" width="3" height="3" fill="white"/>
<rect x="29" y="35" width="3" height="3" fill="white"/>
<rect x="29" y="26" width="3" height="3" fill="white"/>
<rect x="26" y="26" width="3" height="3" fill="white"/>
<rect x="26" y="29" width="3" height="3" fill="white"/>
<rect x="29" y="23" width="3" height="3" fill="white"/>
<rect x="32" y="23" width="3" height="3" fill="white"/>
<rect x="47" y="26" width="3" height="3" fill="white"/>
<rect x="47" y="44" width="3" height="3" fill="white"/>
<rect x="29" y="44" width="3" height="3" fill="white"/>
<rect x="56" y="35" width="3" height="3" fill="white"/>
<rect x="59" y="35" width="3" height="3" fill="white"/>
<rect x="38" y="44" width="3" height="3" fill="white"/>
<rect x="38" y="53" width="3" height="3" fill="white"/>
<rect x="38" y="56" width="3" height="3" fill="white"/>
<rect x="38" y="20" width="3" height="3" fill="white"/>
<rect x="38" y="29" width="3" height="3" fill="white"/>
<rect x="47" y="38" width="3" height="3" fill="white"/>
<rect x="29" y="38" width="3" height="3" fill="white"/>
<rect x="29" y="29" width="3" height="3" fill="white"/>
<rect x="47" y="29" width="3" height="3" fill="white"/>
<rect x="47" y="47" width="3" height="3" fill="white"/>
<rect x="29" y="47" width="3" height="3" fill="white"/>
<rect x="26" y="50" width="3" height="3" fill="white"/>
<rect x="26" y="47" width="3" height="3" fill="white"/>
<rect x="56" y="38" width="3" height="3" fill="white"/>
<rect x="38" y="47" width="3" height="3" fill="white"/>
</svg>
