<svg width="816" height="66" viewBox="0 0 816 66" fill="none" xmlns="http://www.w3.org/2000/svg">
<rect x="7.76471" y="7.76465" width="800.541" height="50.4706" fill="#EB8683"/>
<line x1="7.76471" y1="60.1765" x2="808.306" y2="60.1765" stroke="#D67774" stroke-width="3.88235"/>
<line x1="7.76471" y1="5.82347" x2="808.306" y2="5.82347" stroke="#D67774" stroke-width="3.88235"/>
<line x1="810.263" y1="7.76465" x2="810.263" y2="58.2352" stroke="#D67774" stroke-width="3.88235"/>
<line x1="5.83961" y1="7.76465" x2="5.83962" y2="58.2352" stroke="#D67774" stroke-width="3.88235"/>
<rect x="804.812" y="8.15288" width="3.10588" height="3.10588" fill="#D67774" stroke="#D67774" stroke-width="0.776471"/>
<rect x="808.694" y="5.82354" width="1.55294" height="1.55294" fill="#D67774" stroke="#D67774" stroke-width="0.776471"/>
<rect x="804.424" y="9.31763" width="2.32941" height="2.32941" fill="#EB8683"/>
<rect x="808.694" y="58.6236" width="1.55294" height="1.55294" fill="#D67774" stroke="#D67774" stroke-width="0.776471"/>
<rect x="5.82354" y="5.82354" width="1.55294" height="1.55294" fill="#D67774" stroke="#D67774" stroke-width="0.776471"/>
<rect x="5.82354" y="58.6236" width="1.55294" height="1.55294" fill="#D67774" stroke="#D67774" stroke-width="0.776471"/>
<rect x="804.812" y="54.7411" width="3.10588" height="3.10588" fill="#D67774" stroke="#D67774" stroke-width="0.776471"/>
<rect x="8.15294" y="8.15288" width="3.10588" height="3.10588" fill="#D67774" stroke="#D67774" stroke-width="0.776471"/>
<rect x="8.15294" y="54.7411" width="3.10588" height="3.10588" fill="#D67774" stroke="#D67774" stroke-width="0.776471"/>
<rect x="9.31763" y="9.31763" width="2.32941" height="2.32941" fill="#EB8683"/>
<rect x="7.76471" y="47.3647" width="4.65882" height="6.98824" fill="#D67774"/>
<rect x="803.647" y="47.3647" width="4.65882" height="6.98824" fill="#D67774"/>
<rect x="11.647" y="52.0236" width="792.776" height="6.21176" fill="#D67774"/>
<rect x="804.424" y="54.3529" width="2.32941" height="2.32941" fill="#D67774"/>
<rect x="801.318" y="49.6941" width="2.32941" height="2.32941" fill="#D67774"/>
<rect x="805.977" y="45.0353" width="2.32941" height="2.32941" fill="#D67774"/>
<rect x="9.31763" y="54.3529" width="2.32941" height="2.32941" fill="#D67774"/>
<rect x="12.4235" y="49.6941" width="2.32941" height="2.32941" fill="#D67774"/>
<rect x="7.76471" y="45.0353" width="2.32941" height="2.32941" fill="#D67774"/>
</svg>
