<svg width="399" height="59" viewBox="0 0 399 59" fill="none" xmlns="http://www.w3.org/2000/svg">
<rect x="8.36481" y="8.36475" width="382.27" height="41.8239" fill="#BD6562"/>
<line x1="8.36481" y1="52.2799" x2="390.635" y2="52.2799" stroke="#D67774" stroke-width="4.18239"/>
<line x1="8.36481" y1="6.27355" x2="390.635" y2="6.27355" stroke="#D67774" stroke-width="4.18239"/>
<line x1="392.744" y1="8.36475" x2="392.744" y2="50.1886" stroke="#D67774" stroke-width="4.18239"/>
<line x1="6.29096" y1="8.36475" x2="6.29097" y2="50.1886" stroke="#D67774" stroke-width="4.18239"/>
<rect x="386.871" y="8.78299" width="3.34591" height="3.34591" fill="#D67774" stroke="#D67774" stroke-width="0.836478"/>
<rect x="391.053" y="6.27359" width="1.67296" height="1.67296" fill="#D67774" stroke="#D67774" stroke-width="0.836478"/>
<rect x="386.453" y="10.0377" width="2.50943" height="2.50943" fill="#BD6562"/>
<rect x="391.053" y="50.607" width="1.67296" height="1.67296" fill="#D67774" stroke="#D67774" stroke-width="0.836478"/>
<rect x="6.27359" y="6.27359" width="1.67296" height="1.67296" fill="#D67774" stroke="#D67774" stroke-width="0.836478"/>
<rect x="6.27359" y="50.607" width="1.67296" height="1.67296" fill="#D67774" stroke="#D67774" stroke-width="0.836478"/>
<rect x="386.871" y="46.4246" width="3.34591" height="3.34591" fill="#D67774" stroke="#D67774" stroke-width="0.836478"/>
<rect x="8.78305" y="8.78299" width="3.34591" height="3.34591" fill="#D67774" stroke="#D67774" stroke-width="0.836478"/>
<rect x="8.78305" y="46.4246" width="3.34591" height="3.34591" fill="#D67774" stroke="#D67774" stroke-width="0.836478"/>
<rect x="10.0377" y="10.0377" width="2.50943" height="2.50943" fill="#BD6562"/>
<rect x="386.453" y="46.0063" width="2.50943" height="2.50943" fill="#D67774"/>
<rect x="386.453" y="46.0063" width="2.50943" height="2.50943" fill="#BD6562"/>
<rect x="10.0377" y="46.0063" width="2.50943" height="2.50943" fill="#D67774"/>
<rect x="10.0377" y="46.0063" width="2.50943" height="2.50943" fill="#BD6562"/>
</svg>
