<svg width="399" height="66" viewBox="0 0 399 66" fill="none" xmlns="http://www.w3.org/2000/svg">
<rect x="7.76471" y="7.76465" width="383.576" height="50.4706" fill="#EB8683"/>
<line x1="7.76471" y1="60.1765" x2="391.341" y2="60.1765" stroke="#D67774" stroke-width="3.88235"/>
<line x1="7.76471" y1="5.82347" x2="391.341" y2="5.82347" stroke="#D67774" stroke-width="3.88235"/>
<line x1="393.298" y1="7.76465" x2="393.298" y2="58.2352" stroke="#D67774" stroke-width="3.88235"/>
<line x1="5.83961" y1="7.76465" x2="5.83962" y2="58.2352" stroke="#D67774" stroke-width="3.88235"/>
<rect x="387.847" y="8.15288" width="3.10588" height="3.10588" fill="#D67774" stroke="#D67774" stroke-width="0.776471"/>
<rect x="391.729" y="5.82354" width="1.55294" height="1.55294" fill="#D67774" stroke="#D67774" stroke-width="0.776471"/>
<rect x="387.459" y="9.31763" width="2.32941" height="2.32941" fill="#EB8683"/>
<rect x="391.729" y="58.6236" width="1.55294" height="1.55294" fill="#D67774" stroke="#D67774" stroke-width="0.776471"/>
<rect x="5.82354" y="5.82354" width="1.55294" height="1.55294" fill="#D67774" stroke="#D67774" stroke-width="0.776471"/>
<rect x="5.82354" y="58.6236" width="1.55294" height="1.55294" fill="#D67774" stroke="#D67774" stroke-width="0.776471"/>
<rect x="387.847" y="54.7413" width="3.10588" height="3.10588" fill="#D67774" stroke="#D67774" stroke-width="0.776471"/>
<rect x="8.15294" y="8.15288" width="3.10588" height="3.10588" fill="#D67774" stroke="#D67774" stroke-width="0.776471"/>
<rect x="8.15294" y="54.7413" width="3.10588" height="3.10588" fill="#D67774" stroke="#D67774" stroke-width="0.776471"/>
<rect x="9.31763" y="9.31763" width="2.32941" height="2.32941" fill="#EB8683"/>
<rect x="7.76471" y="47.3647" width="4.65882" height="6.98824" fill="#D67774"/>
<rect x="386.682" y="47.3647" width="4.65882" height="6.98824" fill="#D67774"/>
<rect x="11.647" y="52.0234" width="375.812" height="6.21176" fill="#D67774"/>
<rect x="387.459" y="54.353" width="2.32941" height="2.32941" fill="#D67774"/>
<rect x="384.353" y="49.6941" width="2.32941" height="2.32941" fill="#D67774"/>
<rect x="389.012" y="45.0354" width="2.32941" height="2.32941" fill="#D67774"/>
<rect x="9.31763" y="54.353" width="2.32941" height="2.32941" fill="#D67774"/>
<rect x="12.4235" y="49.6941" width="2.32941" height="2.32941" fill="#D67774"/>
<rect x="7.76471" y="45.0354" width="2.32941" height="2.32941" fill="#D67774"/>
</svg>
