<svg width="175" height="66" viewBox="0 0 175 66" fill="none" xmlns="http://www.w3.org/2000/svg">
<rect x="7.74338" y="7.74341" width="159.513" height="50.3319" fill="#EB8683"/>
<line x1="7.74338" y1="60.0112" x2="167.257" y2="60.0112" stroke="white" stroke-width="3.87168"/>
<line x1="7.74338" y1="5.80757" x2="167.257" y2="5.80757" stroke="white" stroke-width="3.87168"/>
<line x1="169.209" y1="7.74341" x2="169.209" y2="58.0753" stroke="white" stroke-width="3.87168"/>
<line x1="5.8236" y1="7.74341" x2="5.8236" y2="58.0753" stroke="white" stroke-width="3.87168"/>
<rect x="163.385" y="7.74341" width="3.87168" height="3.87168" fill="white"/>
<rect x="167.257" y="5.42041" width="2.32301" height="2.32301" fill="white"/>
<rect x="163.385" y="9.29199" width="2.32301" height="2.32301" fill="#EB8683"/>
<rect x="167.257" y="58.0752" width="2.32301" height="2.32301" fill="white"/>
<rect x="5.42035" y="5.42041" width="2.32301" height="2.32301" fill="white"/>
<rect x="5.42035" y="58.0752" width="2.32301" height="2.32301" fill="white"/>
<rect x="163.385" y="54.2036" width="3.87168" height="3.87168" fill="white"/>
<rect x="7.74338" y="7.74341" width="3.87168" height="3.87168" fill="white"/>
<rect x="7.74338" y="54.2036" width="3.87168" height="3.87168" fill="white"/>
<rect x="9.29202" y="9.29199" width="2.32301" height="2.32301" fill="#EB8683"/>
<rect x="7.74338" y="47.2346" width="4.64602" height="6.96903" fill="#D67774"/>
<rect x="162.611" y="47.2346" width="4.64602" height="6.96903" fill="#D67774"/>
<rect x="11.6151" y="51.8806" width="151.77" height="6.19469" fill="#D67774"/>
<rect x="163.385" y="54.2036" width="2.32301" height="2.32301" fill="#D67774"/>
<rect x="160.288" y="49.5576" width="2.32301" height="2.32301" fill="#D67774"/>
<rect x="164.934" y="44.9116" width="2.32301" height="2.32301" fill="#D67774"/>
<rect x="9.29202" y="54.2036" width="2.32301" height="2.32301" fill="#D67774"/>
<rect x="12.3894" y="49.5576" width="2.32301" height="2.32301" fill="#D67774"/>
<rect x="7.74338" y="44.9116" width="2.32301" height="2.32301" fill="#D67774"/>
<path d="M57.6973 21.0968H55.9664V19.3659H54.2356V17.635H36.9269V19.3659H40.3886V21.0968H38.6577V22.8276H36.9269V19.3659H35.196V40.1363H36.9269V41.8672H55.9664V40.1363H57.6973V38.4054H59.4282V22.8276H57.6973V21.0968ZM52.5047 24.5585V33.2128H50.7738V34.9437H47.3121V22.8276H50.7738V24.5585H52.5047ZM85.398 19.3659H83.6671V17.635H66.3584V19.3659H68.0893V21.0968H66.3584V22.8276H64.6275V21.0968H62.8967V38.4054H64.6275V40.1363H66.3584V41.8672H83.6671V40.1363H85.398V38.4054H87.1288V21.0968H85.398V19.3659ZM75.0128 34.9437V22.8276H80.2054V34.9437H75.0128ZM113.099 17.635H107.906V19.3659H106.175V28.0202H104.444V26.2894H102.713V19.3659H100.983V17.635H92.3282V19.3659H95.79V21.0968H94.0591V22.8276H92.3282V19.3659H90.5973V40.1363H92.3282V41.8672H100.983V40.1363H102.713V33.2128H104.444V34.9437H106.175V40.1363H107.906V41.8672H113.099V40.1363H114.83V19.3659H113.099V17.635ZM140.799 17.635H120.029V19.3659H123.491V21.0968H121.76V22.8276H120.029V19.3659H118.298V40.1363H120.029V41.8672H140.799V40.1363H142.53V36.6746H140.799V34.9437H130.414V31.482H140.799V29.7511H142.53V28.0202H140.799V26.2894H130.414V22.8276H140.799V21.0968H142.53V19.3659H140.799V17.635Z" fill="white"/>
</svg>
