<svg width="875" height="498" viewBox="0 0 875 498" fill="none" xmlns="http://www.w3.org/2000/svg">
<rect x="10" y="10" width="855" height="478" fill="#EB8683"/>
<line x1="10" y1="490.5" x2="865" y2="490.5" stroke="#D67774" stroke-width="5"/>
<line x1="10" y1="7.5" x2="865" y2="7.5" stroke="#D67774" stroke-width="5"/>
<line x1="867.521" y1="10" x2="867.521" y2="488" stroke="#D67774" stroke-width="5"/>
<line x1="7.52075" y1="10" x2="7.52077" y2="488" stroke="#D67774" stroke-width="5"/>
<rect x="860.5" y="10.5" width="4" height="4" fill="#D67774" stroke="#D67774"/>
<rect x="865.5" y="7.5" width="2" height="2" fill="#D67774" stroke="#D67774"/>
<rect x="860" y="12" width="3" height="3" fill="#EB8683"/>
<rect x="865.5" y="488.5" width="2" height="2" fill="#D67774" stroke="#D67774"/>
<rect x="7.5" y="7.5" width="2" height="2" fill="#D67774" stroke="#D67774"/>
<rect x="7.5" y="488.5" width="2" height="2" fill="#D67774" stroke="#D67774"/>
<rect x="860.5" y="483.5" width="4" height="4" fill="#D67774" stroke="#D67774"/>
<rect x="10.5" y="10.5" width="4" height="4" fill="#D67774" stroke="#D67774"/>
<rect x="10.5" y="483.5" width="4" height="4" fill="#D67774" stroke="#D67774"/>
<rect x="12" y="12" width="3" height="3" fill="#EB8683"/>
<rect x="10" y="477" width="6" height="6" fill="#D67774"/>
<rect x="859" y="477" width="6" height="6" fill="#D67774"/>
<rect x="15" y="483" width="845" height="5" fill="#D67774"/>
<rect x="860" y="483" width="3" height="3" fill="#D67774"/>
<rect x="856" y="480" width="3" height="3" fill="#D67774"/>
<rect x="862" y="474" width="3" height="3" fill="#D67774"/>
<rect x="12" y="483" width="3" height="3" fill="#D67774"/>
<rect x="16" y="480" width="3" height="3" fill="#D67774"/>
<rect x="10" y="474" width="3" height="3" fill="#D67774"/>
</svg>
