<svg width="303" height="82" viewBox="0 0 303 82" fill="none" xmlns="http://www.w3.org/2000/svg">
<rect x="10" y="10" width="283" height="62" fill="#EB8683"/>
<line x1="10" y1="74.5" x2="293" y2="74.5" stroke="#D67774" stroke-width="5"/>
<line x1="10" y1="7.5" x2="293" y2="7.5" stroke="#D67774" stroke-width="5"/>
<line x1="295.521" y1="10" x2="295.521" y2="72" stroke="#D67774" stroke-width="5"/>
<line x1="7.52075" y1="10" x2="7.52075" y2="72" stroke="#D67774" stroke-width="5"/>
<rect x="288.5" y="10.5" width="4" height="4" fill="#D67774" stroke="#D67774"/>
<rect x="293.5" y="7.5" width="2" height="2" fill="#D67774" stroke="#D67774"/>
<rect x="288" y="12" width="3" height="3" fill="#EB8683"/>
<rect x="293.5" y="72.5" width="2" height="2" fill="#D67774" stroke="#D67774"/>
<rect x="7.5" y="7.5" width="2" height="2" fill="#D67774" stroke="#D67774"/>
<rect x="7.5" y="72.5" width="2" height="2" fill="#D67774" stroke="#D67774"/>
<rect x="288.5" y="67.5" width="4" height="4" fill="#D67774" stroke="#D67774"/>
<rect x="10.5" y="10.5" width="4" height="4" fill="#D67774" stroke="#D67774"/>
<rect x="10.5" y="67.5" width="4" height="4" fill="#D67774" stroke="#D67774"/>
<rect x="12" y="12" width="3" height="3" fill="#EB8683"/>
<rect x="10" y="61" width="6" height="6" fill="#D67774"/>
<rect x="287" y="61" width="6" height="6" fill="#D67774"/>
<rect x="15" y="67" width="273" height="5" fill="#D67774"/>
<rect x="288" y="67" width="3" height="3" fill="#D67774"/>
<rect x="284" y="64" width="3" height="3" fill="#D67774"/>
<rect x="290" y="58" width="3" height="3" fill="#D67774"/>
<rect x="12" y="67" width="3" height="3" fill="#D67774"/>
<rect x="16" y="64" width="3" height="3" fill="#D67774"/>
<rect x="10" y="58" width="3" height="3" fill="#D67774"/>
<path d="M75.5207 24.9412H73.2854V22.7059H50.9325V24.9412H53.1678V27.1765H50.9325V29.4118H48.6972V27.1765H46.4619V49.5294H48.6972V51.7647H50.9325V54H73.2854V51.7647H75.5207V49.5294H77.756V27.1765H75.5207V24.9412ZM62.109 45.0588V29.4118H68.8149V45.0588H62.109ZM106.824 31.6471V29.4118H104.588V27.1765H84.4706V29.4118H88.9412V31.6471H86.7059V33.8824H84.4706V29.4118H82.2354V51.7647H84.4706V54H93.4118V51.7647H95.6471V45.0588H104.588V42.8235H106.824V40.5882H109.059V31.6471H106.824ZM95.6471 33.8824H100.118V40.5882H95.6471V33.8824ZM138.107 27.1765H115.754V29.4118H120.224V31.6471H117.989V33.8824H115.754V36.1176H120.224V51.7647H122.46V54H131.401V51.7647H133.636V36.1176H138.107V33.8824H140.342V29.4118H138.107V27.1765ZM115.754 29.4118H113.519V33.8824H115.754V29.4118ZM155.978 27.1765H147.037V29.4118H151.508V31.6471H149.272V33.8824H147.037V29.4118H144.802V51.7647H147.037V54H155.978V51.7647H158.214V29.4118H155.978V27.1765ZM187.277 29.4118H185.041V27.1765H167.159V29.4118H169.394V31.6471H167.159V33.8824H164.924V31.6471H162.688V49.5294H164.924V51.7647H167.159V54H185.041V51.7647H187.277V49.5294H189.512V31.6471H187.277V29.4118ZM182.806 45.0588H176.1V33.8824H182.806V45.0588ZM218.56 27.1765H214.089V29.4118H211.854V36.1176H209.619V33.8824H207.383V29.4118H205.148V27.1765H196.207V29.4118H200.678V31.6471H198.442V33.8824H196.207V29.4118H193.972V51.7647H196.207V54H205.148V51.7647H207.383V40.5882H209.619V42.8235H211.854V51.7647H214.089V54H218.56V51.7647H220.795V29.4118H218.56V27.1765ZM249.843 27.1765H229.725V29.4118H231.961V31.6471H229.725V33.8824H227.49V31.6471H225.255V38.3529H227.49V40.5882H243.137V42.8235H227.49V45.0588H225.255V51.7647H227.49V54H247.608V51.7647H249.843V49.5294H252.078V38.3529H249.843V36.1176H238.667V33.8824H249.843V31.6471H252.078V29.4118H249.843V27.1765Z" fill="white"/>
</svg>
