<svg width="18" height="43" viewBox="0 0 18 43" fill="none" xmlns="http://www.w3.org/2000/svg">
<rect x="0.786194" y="2.03772" width="1.67296" height="1.67296" fill="#E3BDBD"/>
<rect x="0.786194" y="3.71069" width="1.67296" height="1.67296" fill="#E3BDBD"/>
<rect x="0.786194" y="5.38367" width="1.67296" height="1.67296" fill="#E3BDBD"/>
<rect x="0.786194" y="7.05664" width="1.67296" height="1.67296" fill="#E3BDBD"/>
<rect x="0.786194" y="8.72961" width="1.67296" height="1.67296" fill="#E3BDBD"/>
<rect x="0.786194" y="10.4025" width="1.67296" height="1.67296" fill="#E3BDBD"/>
<rect x="0.786194" y="12.0754" width="1.67296" height="1.67296" fill="#E3BDBD"/>
<rect x="0.786194" y="13.7484" width="1.67296" height="1.67296" fill="#E3BDBD"/>
<rect x="0.786194" y="15.4214" width="1.67296" height="1.67296" fill="#E3BDBD"/>
<rect x="0.786194" y="17.0944" width="1.67296" height="1.67296" fill="#E3BDBD"/>
<rect x="0.786194" y="18.7673" width="1.67296" height="1.67296" fill="#E3BDBD"/>
<rect x="0.786194" y="20.4403" width="1.67296" height="1.67296" fill="#E3BDBD"/>
<rect x="0.786194" y="22.1132" width="1.67296" height="1.67296" fill="#E3BDBD"/>
<rect x="0.786194" y="23.7861" width="1.67296" height="1.67296" fill="#E3BDBD"/>
<rect x="0.786194" y="25.4591" width="1.67296" height="1.67296" fill="#E3BDBD"/>
<rect x="0.786194" y="27.1321" width="1.67296" height="1.67296" fill="#E3BDBD"/>
<rect x="0.786194" y="28.8051" width="1.67296" height="1.67296" fill="#E3BDBD"/>
<rect x="0.786194" y="30.478" width="1.67296" height="1.67296" fill="#E3BDBD"/>
<rect x="0.786194" y="32.151" width="1.67296" height="1.67296" fill="#E3BDBD"/>
<rect x="0.786194" y="33.8239" width="1.67296" height="1.67296" fill="#E3BDBD"/>
<rect x="0.786194" y="35.4968" width="1.67296" height="1.67296" fill="#E3BDBD"/>
<rect x="0.786194" y="37.1698" width="1.67296" height="1.67296" fill="#E3BDBD"/>
<rect x="0.786194" y="38.8428" width="1.67296" height="1.67296" fill="#E3BDBD"/>
<rect x="2.45911" y="0.364746" width="1.67296" height="1.67296" fill="#E3BDBD"/>
<rect x="2.45911" y="5.38367" width="1.67296" height="1.67296" fill="white"/>
<rect x="2.45911" y="7.05664" width="1.67296" height="1.67296" fill="white"/>
<rect x="2.45911" y="8.72961" width="1.67296" height="1.67296" fill="white"/>
<rect x="2.45911" y="10.4025" width="1.67296" height="1.67296" fill="white"/>
<rect x="2.45911" y="12.0754" width="1.67296" height="1.67296" fill="white"/>
<rect x="2.45911" y="13.7484" width="1.67296" height="1.67296" fill="white"/>
<rect x="2.45911" y="15.4214" width="1.67296" height="1.67296" fill="white"/>
<rect x="2.45911" y="17.0944" width="1.67296" height="1.67296" fill="white"/>
<rect x="2.45911" y="18.7673" width="1.67296" height="1.67296" fill="white"/>
<rect x="2.45911" y="20.4403" width="1.67296" height="1.67296" fill="white"/>
<rect x="2.45911" y="22.1132" width="1.67296" height="1.67296" fill="white"/>
<rect x="2.45911" y="23.7861" width="1.67296" height="1.67296" fill="white"/>
<rect x="2.45911" y="25.4591" width="1.67296" height="1.67296" fill="white"/>
<rect x="2.45911" y="27.1321" width="1.67296" height="1.67296" fill="white"/>
<rect x="2.45911" y="28.8051" width="1.67296" height="1.67296" fill="white"/>
<rect x="2.45911" y="30.478" width="1.67296" height="1.67296" fill="white"/>
<rect x="2.45911" y="32.151" width="1.67296" height="1.67296" fill="white"/>
<rect x="2.45911" y="33.8239" width="1.67296" height="1.67296" fill="white"/>
<rect x="2.45911" y="35.4968" width="1.67296" height="1.67296" fill="white"/>
<rect x="2.45911" y="37.1698" width="1.67296" height="1.67296" fill="white"/>
<rect x="2.45911" y="38.8428" width="1.67296" height="1.67296" fill="white"/>
<rect x="2.45911" y="40.5157" width="1.67296" height="1.67296" fill="#E3BDBD"/>
<rect x="4.13208" y="0.364746" width="1.67296" height="1.67296" fill="#E3BDBD"/>
<rect x="4.13208" y="3.71069" width="1.67296" height="1.67296" fill="white"/>
<rect x="4.13208" y="5.38367" width="1.67296" height="1.67296" fill="#ECECEC"/>
<rect x="4.13208" y="7.05664" width="1.67296" height="1.67296" fill="#ECECEC"/>
<rect x="4.13208" y="8.72961" width="1.67296" height="1.67296" fill="#ECECEC"/>
<rect x="4.13208" y="10.4025" width="1.67296" height="1.67296" fill="#ECECEC"/>
<rect x="4.13208" y="12.0754" width="1.67296" height="1.67296" fill="#ECECEC"/>
<rect x="4.13208" y="13.7484" width="1.67296" height="1.67296" fill="#ECECEC"/>
<rect x="4.13208" y="15.4214" width="1.67296" height="1.67296" fill="#ECECEC"/>
<rect x="4.13208" y="17.0944" width="1.67296" height="1.67296" fill="#ECECEC"/>
<rect x="4.13208" y="18.7673" width="1.67296" height="1.67296" fill="#ECECEC"/>
<rect x="4.13208" y="20.4403" width="1.67296" height="1.67296" fill="#ECECEC"/>
<rect x="4.13208" y="22.1132" width="1.67296" height="1.67296" fill="#ECECEC"/>
<rect x="4.13208" y="23.7861" width="1.67296" height="1.67296" fill="#ECECEC"/>
<rect x="4.13208" y="25.4591" width="1.67296" height="1.67296" fill="#ECECEC"/>
<rect x="4.13208" y="27.1321" width="1.67296" height="1.67296" fill="#ECECEC"/>
<rect x="4.13208" y="28.8051" width="1.67296" height="1.67296" fill="#ECECEC"/>
<rect x="4.13208" y="30.478" width="1.67296" height="1.67296" fill="#ECECEC"/>
<rect x="4.13208" y="32.151" width="1.67296" height="1.67296" fill="#ECECEC"/>
<rect x="4.13208" y="33.8239" width="1.67296" height="1.67296" fill="#ECECEC"/>
<rect x="4.13208" y="35.4968" width="1.67296" height="1.67296" fill="#ECECEC"/>
<rect x="4.13208" y="37.1698" width="1.67296" height="1.67296" fill="#ECECEC"/>
<rect x="4.13208" y="38.8428" width="1.67296" height="1.67296" fill="#ECECEC"/>
<rect x="4.13208" y="40.5157" width="1.67296" height="1.67296" fill="#E3BDBD"/>
<rect x="5.80505" y="0.364746" width="1.67296" height="1.67296" fill="#E3BDBD"/>
<rect x="5.80505" y="2.03772" width="1.67296" height="1.67296" fill="white"/>
<rect x="4.13208" y="2.03772" width="1.67296" height="1.67296" fill="white"/>
<rect x="2.45911" y="2.03772" width="1.67296" height="1.67296" fill="white"/>
<rect x="2.45911" y="3.71069" width="1.67296" height="1.67296" fill="white"/>
<rect x="5.80505" y="3.71069" width="1.67296" height="1.67296" fill="#ECECEC"/>
<rect x="5.80505" y="5.38367" width="1.67296" height="1.67296" fill="#ECECEC"/>
<rect x="5.80505" y="7.05664" width="1.67296" height="1.67296" fill="#ECECEC"/>
<rect x="5.80505" y="8.72961" width="1.67296" height="1.67296" fill="#ECECEC"/>
<rect x="5.80505" y="10.4025" width="1.67296" height="1.67296" fill="#ECECEC"/>
<rect x="5.80505" y="12.0754" width="1.67296" height="1.67296" fill="#ECECEC"/>
<rect x="5.80505" y="13.7484" width="1.67296" height="1.67296" fill="#ECECEC"/>
<rect x="5.80505" y="15.4214" width="1.67296" height="1.67296" fill="#ECECEC"/>
<rect x="5.80505" y="17.0944" width="1.67296" height="1.67296" fill="#ECECEC"/>
<rect x="5.80505" y="18.7673" width="1.67296" height="1.67296" fill="#ECECEC"/>
<rect x="5.80505" y="20.4403" width="1.67296" height="1.67296" fill="#ECECEC"/>
<rect x="5.80505" y="22.1132" width="1.67296" height="1.67296" fill="#ECECEC"/>
<rect x="5.80505" y="23.7861" width="1.67296" height="1.67296" fill="#ECECEC"/>
<rect x="5.80505" y="25.4591" width="1.67296" height="1.67296" fill="#ECECEC"/>
<rect x="5.80505" y="27.1321" width="1.67296" height="1.67296" fill="#ECECEC"/>
<rect x="5.80505" y="28.8051" width="1.67296" height="1.67296" fill="#ECECEC"/>
<rect x="5.80505" y="30.478" width="1.67296" height="1.67296" fill="#ECECEC"/>
<rect x="5.80505" y="32.151" width="1.67296" height="1.67296" fill="#ECECEC"/>
<rect x="5.80505" y="33.8239" width="1.67296" height="1.67296" fill="#ECECEC"/>
<rect x="5.80505" y="35.4968" width="1.67296" height="1.67296" fill="#ECECEC"/>
<rect x="5.80505" y="37.1698" width="1.67296" height="1.67296" fill="#ECECEC"/>
<rect x="5.80505" y="38.8428" width="1.67296" height="1.67296" fill="#ECECEC"/>
<rect x="5.80505" y="40.5157" width="1.67296" height="1.67296" fill="#E3BDBD"/>
<rect x="7.47797" y="0.364746" width="1.67296" height="1.67296" fill="#E3BDBD"/>
<rect x="7.47797" y="2.03772" width="1.67296" height="1.67296" fill="white"/>
<rect x="7.47797" y="3.71069" width="1.67296" height="1.67296" fill="#ECECEC"/>
<rect x="7.47797" y="5.38367" width="1.67296" height="1.67296" fill="#ECECEC"/>
<rect x="7.47797" y="7.05664" width="1.67296" height="1.67296" fill="#ECECEC"/>
<rect x="7.47797" y="8.72961" width="1.67296" height="1.67296" fill="#ECECEC"/>
<rect x="7.47797" y="10.4025" width="1.67296" height="1.67296" fill="#ECECEC"/>
<rect x="7.47797" y="12.0754" width="1.67296" height="1.67296" fill="#ECECEC"/>
<rect x="7.47797" y="13.7484" width="1.67296" height="1.67296" fill="#ECECEC"/>
<rect x="7.47797" y="15.4214" width="1.67296" height="1.67296" fill="#ECECEC"/>
<rect x="7.47797" y="17.0944" width="1.67296" height="1.67296" fill="#ECECEC"/>
<rect x="7.47797" y="18.7673" width="1.67296" height="1.67296" fill="#ECECEC"/>
<rect x="7.47797" y="20.4403" width="1.67296" height="1.67296" fill="#ECECEC"/>
<rect x="7.47797" y="22.1132" width="1.67296" height="1.67296" fill="#ECECEC"/>
<rect x="7.47797" y="23.7861" width="1.67296" height="1.67296" fill="#ECECEC"/>
<rect x="7.47797" y="25.4591" width="1.67296" height="1.67296" fill="#ECECEC"/>
<rect x="7.47797" y="27.1321" width="1.67296" height="1.67296" fill="#ECECEC"/>
<rect x="7.47797" y="28.8051" width="1.67296" height="1.67296" fill="#ECECEC"/>
<rect x="7.47797" y="30.478" width="1.67296" height="1.67296" fill="#ECECEC"/>
<rect x="7.47797" y="32.151" width="1.67296" height="1.67296" fill="#ECECEC"/>
<rect x="7.47797" y="33.8239" width="1.67296" height="1.67296" fill="#ECECEC"/>
<rect x="7.47797" y="35.4968" width="1.67296" height="1.67296" fill="#ECECEC"/>
<rect x="7.47797" y="37.1698" width="1.67296" height="1.67296" fill="#ECECEC"/>
<rect x="7.47797" y="38.8428" width="1.67296" height="1.67296" fill="#ECECEC"/>
<rect x="7.47797" y="40.5157" width="1.67296" height="1.67296" fill="#E3BDBD"/>
<rect x="9.15094" y="0.364746" width="1.67296" height="1.67296" fill="#E3BDBD"/>
<rect x="9.15094" y="2.03772" width="1.67296" height="1.67296" fill="white"/>
<rect x="9.15094" y="3.71069" width="1.67296" height="1.67296" fill="#ECECEC"/>
<rect x="9.15094" y="5.38367" width="1.67296" height="1.67296" fill="#ECECEC"/>
<rect x="9.15094" y="7.05664" width="1.67296" height="1.67296" fill="#ECECEC"/>
<rect x="9.15094" y="8.72961" width="1.67296" height="1.67296" fill="#ECECEC"/>
<rect x="9.15094" y="10.4025" width="1.67296" height="1.67296" fill="#ECECEC"/>
<rect x="9.15094" y="12.0754" width="1.67296" height="1.67296" fill="#ECECEC"/>
<rect x="9.15094" y="13.7484" width="1.67296" height="1.67296" fill="#ECECEC"/>
<rect x="9.15094" y="15.4214" width="1.67296" height="1.67296" fill="#ECECEC"/>
<rect x="9.15094" y="17.0944" width="1.67296" height="1.67296" fill="#ECECEC"/>
<rect x="9.15094" y="18.7673" width="1.67296" height="1.67296" fill="#ECECEC"/>
<rect x="9.15094" y="20.4403" width="1.67296" height="1.67296" fill="#ECECEC"/>
<rect x="9.15094" y="22.1132" width="1.67296" height="1.67296" fill="#ECECEC"/>
<rect x="9.15094" y="23.7861" width="1.67296" height="1.67296" fill="#ECECEC"/>
<rect x="9.15094" y="25.4591" width="1.67296" height="1.67296" fill="#ECECEC"/>
<rect x="9.15094" y="27.1321" width="1.67296" height="1.67296" fill="#ECECEC"/>
<rect x="9.15094" y="28.8051" width="1.67296" height="1.67296" fill="#ECECEC"/>
<rect x="9.15094" y="30.478" width="1.67296" height="1.67296" fill="#ECECEC"/>
<rect x="9.15094" y="32.151" width="1.67296" height="1.67296" fill="#ECECEC"/>
<rect x="9.15094" y="33.8239" width="1.67296" height="1.67296" fill="#ECECEC"/>
<rect x="9.15094" y="35.4968" width="1.67296" height="1.67296" fill="#ECECEC"/>
<rect x="9.15094" y="37.1698" width="1.67296" height="1.67296" fill="#ECECEC"/>
<rect x="9.15094" y="38.8428" width="1.67296" height="1.67296" fill="#ECECEC"/>
<rect x="9.15094" y="40.5157" width="1.67296" height="1.67296" fill="#E3BDBD"/>
<rect x="10.8239" y="0.364746" width="1.67296" height="1.67296" fill="#E3BDBD"/>
<rect x="10.8239" y="2.03772" width="1.67296" height="1.67296" fill="white"/>
<rect x="10.8239" y="3.71069" width="1.67296" height="1.67296" fill="#ECECEC"/>
<rect x="10.8239" y="5.38367" width="1.67296" height="1.67296" fill="#ECECEC"/>
<rect x="10.8239" y="7.05664" width="1.67296" height="1.67296" fill="#ECECEC"/>
<rect x="10.8239" y="8.72961" width="1.67296" height="1.67296" fill="#ECECEC"/>
<rect x="10.8239" y="10.4025" width="1.67296" height="1.67296" fill="#ECECEC"/>
<rect x="10.8239" y="12.0754" width="1.67296" height="1.67296" fill="#ECECEC"/>
<rect x="10.8239" y="13.7484" width="1.67296" height="1.67296" fill="#ECECEC"/>
<rect x="10.8239" y="15.4214" width="1.67296" height="1.67296" fill="#ECECEC"/>
<rect x="10.8239" y="17.0944" width="1.67296" height="1.67296" fill="#ECECEC"/>
<rect x="10.8239" y="18.7673" width="1.67296" height="1.67296" fill="#ECECEC"/>
<rect x="10.8239" y="20.4403" width="1.67296" height="1.67296" fill="#ECECEC"/>
<rect x="10.8239" y="22.1132" width="1.67296" height="1.67296" fill="#ECECEC"/>
<rect x="10.8239" y="23.7861" width="1.67296" height="1.67296" fill="#ECECEC"/>
<rect x="10.8239" y="25.4591" width="1.67296" height="1.67296" fill="#ECECEC"/>
<rect x="10.8239" y="27.1321" width="1.67296" height="1.67296" fill="#ECECEC"/>
<rect x="10.8239" y="28.8051" width="1.67296" height="1.67296" fill="#ECECEC"/>
<rect x="10.8239" y="30.478" width="1.67296" height="1.67296" fill="#ECECEC"/>
<rect x="10.8239" y="32.151" width="1.67296" height="1.67296" fill="#ECECEC"/>
<rect x="10.8239" y="33.8239" width="1.67296" height="1.67296" fill="#ECECEC"/>
<rect x="10.8239" y="35.4968" width="1.67296" height="1.67296" fill="#ECECEC"/>
<rect x="10.8239" y="37.1698" width="1.67296" height="1.67296" fill="#ECECEC"/>
<rect x="10.8239" y="38.8428" width="1.67296" height="1.67296" fill="#ECECEC"/>
<rect x="10.8239" y="40.5157" width="1.67296" height="1.67296" fill="#E3BDBD"/>
<rect x="12.4968" y="0.364746" width="1.67296" height="1.67296" fill="#E3BDBD"/>
<rect x="12.4968" y="2.03772" width="1.67296" height="1.67296" fill="white"/>
<rect x="12.4968" y="3.71069" width="1.67296" height="1.67296" fill="#ECECEC"/>
<rect x="12.4968" y="5.38367" width="1.67296" height="1.67296" fill="#ECECEC"/>
<rect x="12.4968" y="7.05664" width="1.67296" height="1.67296" fill="#ECECEC"/>
<rect x="12.4968" y="8.72961" width="1.67296" height="1.67296" fill="#ECECEC"/>
<rect x="12.4968" y="10.4025" width="1.67296" height="1.67296" fill="#ECECEC"/>
<rect x="12.4968" y="12.0754" width="1.67296" height="1.67296" fill="#ECECEC"/>
<rect x="12.4968" y="13.7484" width="1.67296" height="1.67296" fill="#ECECEC"/>
<rect x="12.4968" y="15.4214" width="1.67296" height="1.67296" fill="#ECECEC"/>
<rect x="12.4968" y="17.0944" width="1.67296" height="1.67296" fill="#ECECEC"/>
<rect x="12.4968" y="18.7673" width="1.67296" height="1.67296" fill="#ECECEC"/>
<rect x="12.4968" y="20.4403" width="1.67296" height="1.67296" fill="#ECECEC"/>
<rect x="12.4968" y="22.1132" width="1.67296" height="1.67296" fill="#ECECEC"/>
<rect x="12.4968" y="23.7861" width="1.67296" height="1.67296" fill="#ECECEC"/>
<rect x="12.4968" y="25.4591" width="1.67296" height="1.67296" fill="#ECECEC"/>
<rect x="12.4968" y="27.1321" width="1.67296" height="1.67296" fill="#ECECEC"/>
<rect x="12.4968" y="28.8051" width="1.67296" height="1.67296" fill="#ECECEC"/>
<rect x="12.4968" y="30.478" width="1.67296" height="1.67296" fill="#ECECEC"/>
<rect x="12.4968" y="32.151" width="1.67296" height="1.67296" fill="#ECECEC"/>
<rect x="12.4968" y="33.8239" width="1.67296" height="1.67296" fill="#ECECEC"/>
<rect x="12.4968" y="35.4968" width="1.67296" height="1.67296" fill="#ECECEC"/>
<rect x="12.4968" y="37.1698" width="1.67296" height="1.67296" fill="#ECECEC"/>
<rect x="12.4968" y="38.8428" width="1.67296" height="1.67296" fill="#ECECEC"/>
<rect x="12.4968" y="40.5157" width="1.67296" height="1.67296" fill="#E3BDBD"/>
<rect x="14.1698" y="0.364746" width="1.67296" height="1.67296" fill="#E3BDBD"/>
<rect x="14.1698" y="2.03772" width="1.67296" height="1.67296" fill="white"/>
<rect x="14.1698" y="3.71069" width="1.67296" height="1.67296" fill="#ECECEC"/>
<rect x="14.1698" y="5.38367" width="1.67296" height="1.67296" fill="#ECECEC"/>
<rect x="14.1698" y="7.05664" width="1.67296" height="1.67296" fill="#ECECEC"/>
<rect x="14.1698" y="8.72961" width="1.67296" height="1.67296" fill="#ECECEC"/>
<rect x="14.1698" y="10.4025" width="1.67296" height="1.67296" fill="#ECECEC"/>
<rect x="14.1698" y="12.0754" width="1.67296" height="1.67296" fill="#ECECEC"/>
<rect x="14.1698" y="13.7484" width="1.67296" height="1.67296" fill="#ECECEC"/>
<rect x="14.1698" y="15.4214" width="1.67296" height="1.67296" fill="#ECECEC"/>
<rect x="14.1698" y="17.0944" width="1.67296" height="1.67296" fill="#ECECEC"/>
<rect x="14.1698" y="18.7673" width="1.67296" height="1.67296" fill="#ECECEC"/>
<rect x="14.1698" y="20.4403" width="1.67296" height="1.67296" fill="#ECECEC"/>
<rect x="14.1698" y="22.1132" width="1.67296" height="1.67296" fill="#ECECEC"/>
<rect x="14.1698" y="23.7861" width="1.67296" height="1.67296" fill="#ECECEC"/>
<rect x="14.1698" y="25.4591" width="1.67296" height="1.67296" fill="#ECECEC"/>
<rect x="14.1698" y="27.1321" width="1.67296" height="1.67296" fill="#ECECEC"/>
<rect x="14.1698" y="28.8051" width="1.67296" height="1.67296" fill="#ECECEC"/>
<rect x="14.1698" y="30.478" width="1.67296" height="1.67296" fill="#ECECEC"/>
<rect x="14.1698" y="32.151" width="1.67296" height="1.67296" fill="#ECECEC"/>
<rect x="14.1698" y="33.8239" width="1.67296" height="1.67296" fill="#ECECEC"/>
<rect x="14.1698" y="35.4968" width="1.67296" height="1.67296" fill="#ECECEC"/>
<rect x="14.1698" y="37.1698" width="1.67296" height="1.67296" fill="#ECECEC"/>
<rect x="14.1698" y="38.8428" width="1.67296" height="1.67296" fill="#ECECEC"/>
<rect x="14.1698" y="40.5157" width="1.67296" height="1.67296" fill="#E3BDBD"/>
<rect x="15.8428" y="2.03772" width="1.67296" height="1.67296" fill="#E3BDBD"/>
<rect x="15.8428" y="3.71069" width="1.67296" height="1.67296" fill="#E3BDBD"/>
<rect x="15.8428" y="5.38367" width="1.67296" height="1.67296" fill="#E3BDBD"/>
<rect x="15.8428" y="7.05664" width="1.67296" height="1.67296" fill="#E3BDBD"/>
<rect x="15.8428" y="8.72961" width="1.67296" height="1.67296" fill="#E3BDBD"/>
<rect x="15.8428" y="10.4025" width="1.67296" height="1.67296" fill="#E3BDBD"/>
<rect x="15.8428" y="12.0754" width="1.67296" height="1.67296" fill="#E3BDBD"/>
<rect x="15.8428" y="13.7484" width="1.67296" height="1.67296" fill="#E3BDBD"/>
<rect x="15.8428" y="15.4214" width="1.67296" height="1.67296" fill="#E3BDBD"/>
<rect x="15.8428" y="17.0944" width="1.67296" height="1.67296" fill="#E3BDBD"/>
<rect x="15.8428" y="18.7673" width="1.67296" height="1.67296" fill="#E3BDBD"/>
<rect x="15.8428" y="20.4403" width="1.67296" height="1.67296" fill="#E3BDBD"/>
<rect x="15.8428" y="22.1132" width="1.67296" height="1.67296" fill="#E3BDBD"/>
<rect x="15.8428" y="23.7861" width="1.67296" height="1.67296" fill="#E3BDBD"/>
<rect x="15.8428" y="25.4591" width="1.67296" height="1.67296" fill="#E3BDBD"/>
<rect x="15.8428" y="27.1321" width="1.67296" height="1.67296" fill="#E3BDBD"/>
<rect x="15.8428" y="28.8051" width="1.67296" height="1.67296" fill="#E3BDBD"/>
<rect x="15.8428" y="30.478" width="1.67296" height="1.67296" fill="#E3BDBD"/>
<rect x="15.8428" y="32.151" width="1.67296" height="1.67296" fill="#E3BDBD"/>
<rect x="15.8428" y="33.8239" width="1.67296" height="1.67296" fill="#E3BDBD"/>
<rect x="15.8428" y="35.4968" width="1.67296" height="1.67296" fill="#E3BDBD"/>
<rect x="15.8428" y="37.1698" width="1.67296" height="1.67296" fill="#E3BDBD"/>
<rect x="15.8428" y="38.8428" width="1.67296" height="1.67296" fill="#E3BDBD"/>
</svg>
