<svg width="347" height="200" viewBox="0 0 347 200" fill="none" xmlns="http://www.w3.org/2000/svg">
<path d="M80.3682 24.8155H27.4943V29.6222H32.301V34.429H27.4943V39.2357H22.6875V34.429H17.8808V82.4962H22.6875V87.3029H27.4943V92.1096H75.5615V87.3029H80.3682V82.4962H85.1749V53.6558H80.3682V48.8491H61.1413V53.6558H56.3346V58.4626H61.1413V63.2693H65.948V72.8827H51.5279V39.2357H80.3682V34.429H85.1749V29.6222H80.3682V24.8155ZM157.295 34.429H152.488V29.6222H147.681V24.8155H104.421V29.6222H109.227V34.429H104.421V39.2357H99.6139V34.429H94.8071V87.3029H99.6139V92.1096H123.647V87.3029H128.454V58.4626H142.874V87.3029H147.681V92.1096H157.295V87.3029H162.101V39.2357H157.295V34.429ZM128.454 39.2357H142.874V48.8491H128.454V39.2357ZM239.028 24.8155H224.607V29.6222H219.801V48.8491H214.994V53.6558H210.187V48.8491H205.381V29.6222H200.574V24.8155H176.54V29.6222H186.154V34.429H181.347V39.2357H176.54V29.6222H171.733V87.3029H176.54V92.1096H200.574V87.3029H205.381V72.8827H210.187V77.6895H214.994V72.8827H219.801V87.3029H224.607V92.1096H239.028V87.3029H243.834V29.6222H239.028V24.8155ZM315.935 24.8155H258.254V29.6222H267.868V34.429H263.061V39.2357H258.254V29.6222H253.448V87.3029H258.254V92.1096H315.935V87.3029H320.742V77.6895H315.935V72.8827H287.095V63.2693H315.935V58.4626H320.742V53.6558H315.935V48.8491H287.095V39.2357H315.935V34.429H320.742V29.6222H315.935V24.8155ZM82.7622 111.622H77.9555V106.816H29.8882V111.622H34.695V116.429H29.8882V121.236H25.0815V116.429H20.2748V164.496H25.0815V169.303H29.8882V174.11H77.9555V169.303H82.7622V164.496H87.5689V116.429H82.7622V111.622ZM53.9219 154.883V121.236H68.342V154.883H53.9219ZM159.689 111.622V106.816H145.268V111.622H140.462V140.463H135.655V145.269H130.848V111.622H126.041V106.816H102.008V111.622H111.621V116.429H106.815V121.236H102.008V111.622H97.2011V164.496H102.008V169.303H106.815V174.11H135.655V169.303H140.462V164.496H145.268V159.689H150.075V154.883H154.882V150.076H159.689V145.269H164.495V111.622H159.689ZM236.615 106.816H178.934V111.622H188.548V116.429H183.741V121.236H178.934V111.622H174.127V169.303H178.934V174.11H236.615V169.303H241.422V159.689H236.615V154.883H207.775V145.269H236.615V140.463H241.422V135.656H236.615V130.849H207.775V121.236H236.615V116.429H241.422V111.622H236.615V106.816ZM313.541 111.622H308.734V106.816H255.861V111.622H265.474V116.429H260.667V121.236H255.861V111.622H251.054V169.303H255.861V174.11H279.894V169.303H284.701V154.883H289.508V159.689H294.314V164.496H299.121V169.303H303.928V174.11H313.541V169.303H318.348V150.076H313.541V145.269H308.734V140.463H313.541V135.656H318.348V116.429H313.541V111.622ZM299.121 130.849H284.701V121.236H299.121V130.849Z" fill="black"/>
<path d="M80.3682 24.8155H87.7968V17.3869H80.3682V24.8155ZM27.4943 24.8155V17.3869H20.0657V24.8155H27.4943ZM27.4943 29.6222H20.0657V37.0508H27.4943V29.6222ZM32.301 29.6222H39.7296V22.1937H32.301V29.6222ZM32.301 34.4289V41.8575H39.7296V34.4289H32.301ZM27.4943 34.4289V27.0004H20.0657V34.4289H27.4943ZM27.4943 39.2357V46.6642H34.9228V39.2357H27.4943ZM22.6875 39.2357H15.259V46.6642H22.6875V39.2357ZM22.6875 34.4289H30.1161V27.0004H22.6875V34.4289ZM17.8808 34.4289V27.0004H10.4522V34.4289H17.8808ZM17.8808 82.4962H10.4522V89.9247H17.8808V82.4962ZM22.6875 82.4962H30.1161V75.0676H22.6875V82.4962ZM22.6875 87.3029H15.259V94.7315H22.6875V87.3029ZM27.4943 87.3029H34.9228V79.8743H27.4943V87.3029ZM27.4943 92.1096H20.0657V99.5382H27.4943V92.1096ZM75.5615 92.1096V99.5382H82.9901V92.1096H75.5615ZM75.5615 87.3029V79.8743H68.1329V87.3029H75.5615ZM80.3682 87.3029V94.7315H87.7968V87.3029H80.3682ZM80.3682 82.4962V75.0676H72.9396V82.4962H80.3682ZM85.1749 82.4962V89.9247H92.6035V82.4962H85.1749ZM85.1749 53.6558H92.6035V46.2273H85.1749V53.6558ZM80.3682 53.6558H72.9396V61.0844H80.3682V53.6558ZM80.3682 48.8491H87.7968V41.4205H80.3682V48.8491ZM61.1413 48.8491V41.4205H53.7127V48.8491H61.1413ZM61.1413 53.6558V61.0844H68.5699V53.6558H61.1413ZM56.3346 53.6558V46.2273H48.906V53.6558H56.3346ZM56.3346 58.4626H48.906V65.8911H56.3346V58.4626ZM61.1413 58.4626H68.5699V51.034H61.1413V58.4626ZM61.1413 63.2693H53.7127V70.6979H61.1413V63.2693ZM65.948 63.2693H73.3766V55.8407H65.948V63.2693ZM65.948 72.8827V80.3113H73.3766V72.8827H65.948ZM51.5279 72.8827H44.0993V80.3113H51.5279V72.8827ZM51.5279 39.2357V31.8071H44.0993V39.2357H51.5279ZM80.3682 39.2357V46.6642H87.7968V39.2357H80.3682ZM80.3682 34.4289V27.0004H72.9396V34.4289H80.3682ZM85.1749 34.4289V41.8575H92.6035V34.4289H85.1749ZM85.1749 29.6222H92.6035V22.1937H85.1749V29.6222ZM80.3682 29.6222H72.9396V37.0508H80.3682V29.6222ZM80.3682 17.3869H27.4943V32.2441H80.3682V17.3869ZM20.0657 24.8155V29.6222H34.9228V24.8155H20.0657ZM27.4943 37.0508H32.301V22.1937H27.4943V37.0508ZM24.8724 29.6222V34.4289H39.7296V29.6222H24.8724ZM32.301 27.0004H27.4943V41.8575H32.301V27.0004ZM20.0657 34.4289V39.2357H34.9228V34.4289H20.0657ZM27.4943 31.8071H22.6875V46.6642H27.4943V31.8071ZM30.1161 39.2357V34.4289H15.259V39.2357H30.1161ZM22.6875 27.0004H17.8808V41.8575H22.6875V27.0004ZM10.4522 34.4289V82.4962H25.3094V34.4289H10.4522ZM17.8808 89.9247H22.6875V75.0676H17.8808V89.9247ZM15.259 82.4962V87.3029H30.1161V82.4962H15.259ZM22.6875 94.7315H27.4943V79.8743H22.6875V94.7315ZM20.0657 87.3029V92.1096H34.9228V87.3029H20.0657ZM27.4943 99.5382H75.5615V84.681H27.4943V99.5382ZM82.9901 92.1096V87.3029H68.1329V92.1096H82.9901ZM75.5615 94.7315H80.3682V79.8743H75.5615V94.7315ZM87.7968 87.3029V82.4962H72.9396V87.3029H87.7968ZM80.3682 89.9247H85.1749V75.0676H80.3682V89.9247ZM92.6035 82.4962V53.6558H77.7464V82.4962H92.6035ZM85.1749 46.2273H80.3682V61.0844H85.1749V46.2273ZM87.7968 53.6558V48.8491H72.9396V53.6558H87.7968ZM80.3682 41.4205H61.1413V56.2777H80.3682V41.4205ZM53.7127 48.8491V53.6558H68.5699V48.8491H53.7127ZM61.1413 46.2273H56.3346V61.0844H61.1413V46.2273ZM48.906 53.6558V58.4626H63.7632V53.6558H48.906ZM56.3346 65.8911H61.1413V51.034H56.3346V65.8911ZM53.7127 58.4626V63.2693H68.5699V58.4626H53.7127ZM61.1413 70.6979H65.948V55.8407H61.1413V70.6979ZM58.5195 63.2693V72.8827H73.3766V63.2693H58.5195ZM65.948 65.4542H51.5279V80.3113H65.948V65.4542ZM58.9564 72.8827V39.2357H44.0993V72.8827H58.9564ZM51.5279 46.6642H80.3682V31.8071H51.5279V46.6642ZM87.7968 39.2357V34.4289H72.9396V39.2357H87.7968ZM80.3682 41.8575H85.1749V27.0004H80.3682V41.8575ZM92.6035 34.4289V29.6222H77.7464V34.4289H92.6035ZM85.1749 22.1937H80.3682V37.0508H85.1749V22.1937ZM87.7968 29.6222V24.8155H72.9396V29.6222H87.7968ZM157.295 34.4289H164.723V27.0004H157.295V34.4289ZM152.488 34.4289H145.059V41.8575H152.488V34.4289ZM152.488 29.6222H159.916V22.1937H152.488V29.6222ZM147.681 29.6222H140.253V37.0508H147.681V29.6222ZM147.681 24.8155H155.11V17.3869H147.681V24.8155ZM104.421 24.8155V17.3869H96.992V24.8155H104.421ZM104.421 29.6222H96.992V37.0508H104.421V29.6222ZM109.227 29.6222H116.656V22.1937H109.227V29.6222ZM109.227 34.4289V41.8575H116.656V34.4289H109.227ZM104.421 34.4289V27.0004H96.992V34.4289H104.421ZM104.421 39.2357V46.6642H111.849V39.2357H104.421ZM99.6139 39.2357H92.1853V46.6642H99.6139V39.2357ZM99.6139 34.4289H107.042V27.0004H99.6139V34.4289ZM94.8071 34.4289V27.0004H87.3786V34.4289H94.8071ZM94.8071 87.3029H87.3786V94.7315H94.8071V87.3029ZM99.6139 87.3029H107.042V79.8743H99.6139V87.3029ZM99.6139 92.1096H92.1853V99.5382H99.6139V92.1096ZM123.647 92.1096V99.5382H131.076V92.1096H123.647ZM123.647 87.3029V79.8743H116.219V87.3029H123.647ZM128.454 87.3029V94.7315H135.883V87.3029H128.454ZM128.454 58.4626V51.034H121.026V58.4626H128.454ZM142.874 58.4626H150.303V51.034H142.874V58.4626ZM142.874 87.3029H135.446V94.7315H142.874V87.3029ZM147.681 87.3029H155.11V79.8743H147.681V87.3029ZM147.681 92.1096H140.253V99.5382H147.681V92.1096ZM157.295 92.1096V99.5382H164.723V92.1096H157.295ZM157.295 87.3029V79.8743H149.866V87.3029H157.295ZM162.101 87.3029V94.7315H169.53V87.3029H162.101ZM162.101 39.2357H169.53V31.8071H162.101V39.2357ZM157.295 39.2357H149.866V46.6642H157.295V39.2357ZM128.454 39.2357V31.8071H121.026V39.2357H128.454ZM142.874 39.2357H150.303V31.8071H142.874V39.2357ZM142.874 48.8491V56.2777H150.303V48.8491H142.874ZM128.454 48.8491H121.026V56.2777H128.454V48.8491ZM157.295 27.0004H152.488V41.8575H157.295V27.0004ZM159.916 34.4289V29.6222H145.059V34.4289H159.916ZM152.488 22.1937H147.681V37.0508H152.488V22.1937ZM155.11 29.6222V24.8155H140.253V29.6222H155.11ZM147.681 17.3869H104.421V32.2441H147.681V17.3869ZM96.992 24.8155V29.6222H111.849V24.8155H96.992ZM104.421 37.0508H109.227V22.1937H104.421V37.0508ZM101.799 29.6222V34.4289H116.656V29.6222H101.799ZM109.227 27.0004H104.421V41.8575H109.227V27.0004ZM96.992 34.4289V39.2357H111.849V34.4289H96.992ZM104.421 31.8071H99.6139V46.6642H104.421V31.8071ZM107.042 39.2357V34.4289H92.1853V39.2357H107.042ZM99.6139 27.0004H94.8071V41.8575H99.6139V27.0004ZM87.3786 34.4289V87.3029H102.236V34.4289H87.3786ZM94.8071 94.7315H99.6139V79.8743H94.8071V94.7315ZM92.1853 87.3029V92.1096H107.042V87.3029H92.1853ZM99.6139 99.5382H123.647V84.681H99.6139V99.5382ZM131.076 92.1096V87.3029H116.219V92.1096H131.076ZM123.647 94.7315H128.454V79.8743H123.647V94.7315ZM135.883 87.3029V58.4626H121.026V87.3029H135.883ZM128.454 65.8911H142.874V51.034H128.454V65.8911ZM135.446 58.4626V87.3029H150.303V58.4626H135.446ZM142.874 94.7315H147.681V79.8743H142.874V94.7315ZM140.253 87.3029V92.1096H155.11V87.3029H140.253ZM147.681 99.5382H157.295V84.681H147.681V99.5382ZM164.723 92.1096V87.3029H149.866V92.1096H164.723ZM157.295 94.7315H162.101V79.8743H157.295V94.7315ZM169.53 87.3029V39.2357H154.673V87.3029H169.53ZM162.101 31.8071H157.295V46.6642H162.101V31.8071ZM164.723 39.2357V34.4289H149.866V39.2357H164.723ZM128.454 46.6642H142.874V31.8071H128.454V46.6642ZM135.446 39.2357V48.8491H150.303V39.2357H135.446ZM142.874 41.4205H128.454V56.2777H142.874V41.4205ZM135.883 48.8491V39.2357H121.026V48.8491H135.883ZM239.028 24.8155H246.456V17.3869H239.028V24.8155ZM224.607 24.8155V17.3869H217.179V24.8155H224.607ZM224.607 29.6222V37.0508H232.036V29.6222H224.607ZM219.801 29.6222V22.1937H212.372V29.6222H219.801ZM219.801 48.8491V56.2777H227.229V48.8491H219.801ZM214.994 48.8491V41.4205H207.565V48.8491H214.994ZM214.994 53.6558V61.0844H222.423V53.6558H214.994ZM210.187 53.6558H202.759V61.0844H210.187V53.6558ZM210.187 48.8491H217.616V41.4205H210.187V48.8491ZM205.381 48.8491H197.952V56.2777H205.381V48.8491ZM205.381 29.6222H212.809V22.1937H205.381V29.6222ZM200.574 29.6222H193.145V37.0508H200.574V29.6222ZM200.574 24.8155H208.002V17.3869H200.574V24.8155ZM176.54 24.8155V17.3869H169.112V24.8155H176.54ZM176.54 29.6222H169.112V37.0508H176.54V29.6222ZM186.154 29.6222H193.582V22.1937H186.154V29.6222ZM186.154 34.4289V41.8575H193.582V34.4289H186.154ZM181.347 34.4289V27.0004H173.918V34.4289H181.347ZM181.347 39.2357V46.6642H188.775V39.2357H181.347ZM176.54 39.2357H169.112V46.6642H176.54V39.2357ZM176.54 29.6222H183.969V22.1937H176.54V29.6222ZM171.733 29.6222V22.1937H164.305V29.6222H171.733ZM171.733 87.3029H164.305V94.7315H171.733V87.3029ZM176.54 87.3029H183.969V79.8743H176.54V87.3029ZM176.54 92.1096H169.112V99.5382H176.54V92.1096ZM200.574 92.1096V99.5382H208.002V92.1096H200.574ZM200.574 87.3029V79.8743H193.145V87.3029H200.574ZM205.381 87.3029V94.7315H212.809V87.3029H205.381ZM205.381 72.8827V65.4542H197.952V72.8827H205.381ZM210.187 72.8827H217.616V65.4542H210.187V72.8827ZM210.187 77.6895H202.759V85.118H210.187V77.6895ZM214.994 77.6895V85.118H222.423V77.6895H214.994ZM214.994 72.8827V65.4542H207.565V72.8827H214.994ZM219.801 72.8827H227.229V65.4542H219.801V72.8827ZM219.801 87.3029H212.372V94.7315H219.801V87.3029ZM224.607 87.3029H232.036V79.8743H224.607V87.3029ZM224.607 92.1096H217.179V99.5382H224.607V92.1096ZM239.028 92.1096V99.5382H246.456V92.1096H239.028ZM239.028 87.3029V79.8743H231.599V87.3029H239.028ZM243.834 87.3029V94.7315H251.263V87.3029H243.834ZM243.834 29.6222H251.263V22.1937H243.834V29.6222ZM239.028 29.6222H231.599V37.0508H239.028V29.6222ZM239.028 17.3869H224.607V32.2441H239.028V17.3869ZM217.179 24.8155V29.6222H232.036V24.8155H217.179ZM224.607 22.1937H219.801V37.0508H224.607V22.1937ZM212.372 29.6222V48.8491H227.229V29.6222H212.372ZM219.801 41.4205H214.994V56.2777H219.801V41.4205ZM207.565 48.8491V53.6558H222.423V48.8491H207.565ZM214.994 46.2273H210.187V61.0844H214.994V46.2273ZM217.616 53.6558V48.8491H202.759V53.6558H217.616ZM210.187 41.4205H205.381V56.2777H210.187V41.4205ZM212.809 48.8491V29.6222H197.952V48.8491H212.809ZM205.381 22.1937H200.574V37.0508H205.381V22.1937ZM208.002 29.6222V24.8155H193.145V29.6222H208.002ZM200.574 17.3869H176.54V32.2441H200.574V17.3869ZM169.112 24.8155V29.6222H183.969V24.8155H169.112ZM176.54 37.0508H186.154V22.1937H176.54V37.0508ZM178.725 29.6222V34.4289H193.582V29.6222H178.725ZM186.154 27.0004H181.347V41.8575H186.154V27.0004ZM173.918 34.4289V39.2357H188.775V34.4289H173.918ZM181.347 31.8071H176.54V46.6642H181.347V31.8071ZM183.969 39.2357V29.6222H169.112V39.2357H183.969ZM176.54 22.1937H171.733V37.0508H176.54V22.1937ZM164.305 29.6222V87.3029H179.162V29.6222H164.305ZM171.733 94.7315H176.54V79.8743H171.733V94.7315ZM169.112 87.3029V92.1096H183.969V87.3029H169.112ZM176.54 99.5382H200.574V84.681H176.54V99.5382ZM208.002 92.1096V87.3029H193.145V92.1096H208.002ZM200.574 94.7315H205.381V79.8743H200.574V94.7315ZM212.809 87.3029V72.8827H197.952V87.3029H212.809ZM205.381 80.3113H210.187V65.4542H205.381V80.3113ZM202.759 72.8827V77.6895H217.616V72.8827H202.759ZM210.187 85.118H214.994V70.2609H210.187V85.118ZM222.423 77.6895V72.8827H207.565V77.6895H222.423ZM214.994 80.3113H219.801V65.4542H214.994V80.3113ZM212.372 72.8827V87.3029H227.229V72.8827H212.372ZM219.801 94.7315H224.607V79.8743H219.801V94.7315ZM217.179 87.3029V92.1096H232.036V87.3029H217.179ZM224.607 99.5382H239.028V84.681H224.607V99.5382ZM246.456 92.1096V87.3029H231.599V92.1096H246.456ZM239.028 94.7315H243.834V79.8743H239.028V94.7315ZM251.263 87.3029V29.6222H236.406V87.3029H251.263ZM243.834 22.1937H239.028V37.0508H243.834V22.1937ZM246.456 29.6222V24.8155H231.599V29.6222H246.456ZM315.935 24.8155H323.364V17.3869H315.935V24.8155ZM258.254 24.8155V17.3869H250.826V24.8155H258.254ZM258.254 29.6222H250.826V37.0508H258.254V29.6222ZM267.868 29.6222H275.296V22.1937H267.868V29.6222ZM267.868 34.4289V41.8575H275.296V34.4289H267.868ZM263.061 34.4289V27.0004H255.633V34.4289H263.061ZM263.061 39.2357V46.6642H270.49V39.2357H263.061ZM258.254 39.2357H250.826V46.6642H258.254V39.2357ZM258.254 29.6222H265.683V22.1937H258.254V29.6222ZM253.448 29.6222V22.1937H246.019V29.6222H253.448ZM253.448 87.3029H246.019V94.7315H253.448V87.3029ZM258.254 87.3029H265.683V79.8743H258.254V87.3029ZM258.254 92.1096H250.826V99.5382H258.254V92.1096ZM315.935 92.1096V99.5382H323.364V92.1096H315.935ZM315.935 87.3029V79.8743H308.507V87.3029H315.935ZM320.742 87.3029V94.7315H328.17V87.3029H320.742ZM320.742 77.6895H328.17V70.2609H320.742V77.6895ZM315.935 77.6895H308.507V85.118H315.935V77.6895ZM315.935 72.8827H323.364V65.4542H315.935V72.8827ZM287.095 72.8827H279.666V80.3113H287.095V72.8827ZM287.095 63.2693V55.8407H279.666V63.2693H287.095ZM315.935 63.2693V70.6979H323.364V63.2693H315.935ZM315.935 58.4626V51.034H308.507V58.4626H315.935ZM320.742 58.4626V65.8911H328.17V58.4626H320.742ZM320.742 53.6558H328.17V46.2273H320.742V53.6558ZM315.935 53.6558H308.507V61.0844H315.935V53.6558ZM315.935 48.8491H323.364V41.4205H315.935V48.8491ZM287.095 48.8491H279.666V56.2777H287.095V48.8491ZM287.095 39.2357V31.8071H279.666V39.2357H287.095ZM315.935 39.2357V46.6642H323.364V39.2357H315.935ZM315.935 34.4289V27.0004H308.507V34.4289H315.935ZM320.742 34.4289V41.8575H328.17V34.4289H320.742ZM320.742 29.6222H328.17V22.1937H320.742V29.6222ZM315.935 29.6222H308.507V37.0508H315.935V29.6222ZM315.935 17.3869H258.254V32.2441H315.935V17.3869ZM250.826 24.8155V29.6222H265.683V24.8155H250.826ZM258.254 37.0508H267.868V22.1937H258.254V37.0508ZM260.439 29.6222V34.4289H275.296V29.6222H260.439ZM267.868 27.0004H263.061V41.8575H267.868V27.0004ZM255.633 34.4289V39.2357H270.49V34.4289H255.633ZM263.061 31.8071H258.254V46.6642H263.061V31.8071ZM265.683 39.2357V29.6222H250.826V39.2357H265.683ZM258.254 22.1937H253.448V37.0508H258.254V22.1937ZM246.019 29.6222V87.3029H260.876V29.6222H246.019ZM253.448 94.7315H258.254V79.8743H253.448V94.7315ZM250.826 87.3029V92.1096H265.683V87.3029H250.826ZM258.254 99.5382H315.935V84.681H258.254V99.5382ZM323.364 92.1096V87.3029H308.507V92.1096H323.364ZM315.935 94.7315H320.742V79.8743H315.935V94.7315ZM328.17 87.3029V77.6895H313.313V87.3029H328.17ZM320.742 70.2609H315.935V85.118H320.742V70.2609ZM323.364 77.6895V72.8827H308.507V77.6895H323.364ZM315.935 65.4542H287.095V80.3113H315.935V65.4542ZM294.523 72.8827V63.2693H279.666V72.8827H294.523ZM287.095 70.6979H315.935V55.8407H287.095V70.6979ZM323.364 63.2693V58.4626H308.507V63.2693H323.364ZM315.935 65.8911H320.742V51.034H315.935V65.8911ZM328.17 58.4626V53.6558H313.313V58.4626H328.17ZM320.742 46.2273H315.935V61.0844H320.742V46.2273ZM323.364 53.6558V48.8491H308.507V53.6558H323.364ZM315.935 41.4205H287.095V56.2777H315.935V41.4205ZM294.523 48.8491V39.2357H279.666V48.8491H294.523ZM287.095 46.6642H315.935V31.8071H287.095V46.6642ZM323.364 39.2357V34.4289H308.507V39.2357H323.364ZM315.935 41.8575H320.742V27.0004H315.935V41.8575ZM328.17 34.4289V29.6222H313.313V34.4289H328.17ZM320.742 22.1937H315.935V37.0508H320.742V22.1937ZM323.364 29.6222V24.8155H308.507V29.6222H323.364ZM82.7622 111.622H90.1908V104.194H82.7622V111.622ZM77.9555 111.622H70.5269V119.051H77.9555V111.622ZM77.9555 106.815H85.384V99.3869H77.9555V106.815ZM29.8882 106.815V99.3869H22.4597V106.815H29.8882ZM29.8882 111.622H22.4597V119.051H29.8882V111.622ZM34.695 111.622H42.1235V104.194H34.695V111.622ZM34.695 116.429V123.858H42.1235V116.429H34.695ZM29.8882 116.429V109H22.4597V116.429H29.8882ZM29.8882 121.236V128.664H37.3168V121.236H29.8882ZM25.0815 121.236H17.6529V128.664H25.0815V121.236ZM25.0815 116.429H32.5101V109H25.0815V116.429ZM20.2748 116.429V109H12.8462V116.429H20.2748ZM20.2748 164.496H12.8462V171.925H20.2748V164.496ZM25.0815 164.496H32.5101V157.068H25.0815V164.496ZM25.0815 169.303H17.6529V176.731H25.0815V169.303ZM29.8882 169.303H37.3168V161.874H29.8882V169.303ZM29.8882 174.11H22.4597V181.538H29.8882V174.11ZM77.9555 174.11V181.538H85.384V174.11H77.9555ZM77.9555 169.303V161.874H70.5269V169.303H77.9555ZM82.7622 169.303V176.731H90.1908V169.303H82.7622ZM82.7622 164.496V157.068H75.3336V164.496H82.7622ZM87.5689 164.496V171.925H94.9975V164.496H87.5689ZM87.5689 116.429H94.9975V109H87.5689V116.429ZM82.7622 116.429H75.3336V123.858H82.7622V116.429ZM53.9219 154.883H46.4933V162.311H53.9219V154.883ZM53.9219 121.236V113.807H46.4933V121.236H53.9219ZM68.342 121.236H75.7706V113.807H68.342V121.236ZM68.342 154.883V162.311H75.7706V154.883H68.342ZM82.7622 104.194H77.9555V119.051H82.7622V104.194ZM85.384 111.622V106.815H70.5269V111.622H85.384ZM77.9555 99.3869H29.8882V114.244H77.9555V99.3869ZM22.4597 106.815V111.622H37.3168V106.815H22.4597ZM29.8882 119.051H34.695V104.194H29.8882V119.051ZM27.2664 111.622V116.429H42.1235V111.622H27.2664ZM34.695 109H29.8882V123.858H34.695V109ZM22.4597 116.429V121.236H37.3168V116.429H22.4597ZM29.8882 113.807H25.0815V128.664H29.8882V113.807ZM32.5101 121.236V116.429H17.6529V121.236H32.5101ZM25.0815 109H20.2748V123.858H25.0815V109ZM12.8462 116.429V164.496H27.7034V116.429H12.8462ZM20.2748 171.925H25.0815V157.068H20.2748V171.925ZM17.6529 164.496V169.303H32.5101V164.496H17.6529ZM25.0815 176.731H29.8882V161.874H25.0815V176.731ZM22.4597 169.303V174.11H37.3168V169.303H22.4597ZM29.8882 181.538H77.9555V166.681H29.8882V181.538ZM85.384 174.11V169.303H70.5269V174.11H85.384ZM77.9555 176.731H82.7622V161.874H77.9555V176.731ZM90.1908 169.303V164.496H75.3336V169.303H90.1908ZM82.7622 171.925H87.5689V157.068H82.7622V171.925ZM94.9975 164.496V116.429H80.1403V164.496H94.9975ZM87.5689 109H82.7622V123.858H87.5689V109ZM90.1908 116.429V111.622H75.3336V116.429H90.1908ZM61.3504 154.883V121.236H46.4933V154.883H61.3504ZM53.9219 128.664H68.342V113.807H53.9219V128.664ZM60.9134 121.236V154.883H75.7706V121.236H60.9134ZM68.342 147.454H53.9219V162.311H68.342V147.454ZM159.689 111.622H152.26V119.051H159.689V111.622ZM159.689 106.815H167.117V99.3869H159.689V106.815ZM145.268 106.815V99.3869H137.84V106.815H145.268ZM145.268 111.622V119.051H152.697V111.622H145.268ZM140.462 111.622V104.194H133.033V111.622H140.462ZM140.462 140.463V147.891H147.89V140.463H140.462ZM135.655 140.463V133.034H128.226V140.463H135.655ZM135.655 145.269V152.698H143.083V145.269H135.655ZM130.848 145.269H123.42V152.698H130.848V145.269ZM130.848 111.622H138.277V104.194H130.848V111.622ZM126.041 111.622H118.613V119.051H126.041V111.622ZM126.041 106.815H133.47V99.3869H126.041V106.815ZM102.008 106.815V99.3869H94.5793V106.815H102.008ZM102.008 111.622H94.5793V119.051H102.008V111.622ZM111.621 111.622H119.05V104.194H111.621V111.622ZM111.621 116.429V123.858H119.05V116.429H111.621ZM106.815 116.429V109H99.386V116.429H106.815ZM106.815 121.236V128.664H114.243V121.236H106.815ZM102.008 121.236H94.5793V128.664H102.008V121.236ZM102.008 111.622H109.436V104.194H102.008V111.622ZM97.2011 111.622V104.194H89.7726V111.622H97.2011ZM97.2011 164.496H89.7726V171.925H97.2011V164.496ZM102.008 164.496H109.436V157.068H102.008V164.496ZM102.008 169.303H94.5793V176.731H102.008V169.303ZM106.815 169.303H114.243V161.874H106.815V169.303ZM106.815 174.11H99.386V181.538H106.815V174.11ZM135.655 174.11V181.538H143.083V174.11H135.655ZM135.655 169.303V161.874H128.226V169.303H135.655ZM140.462 169.303V176.731H147.89V169.303H140.462ZM140.462 164.496V157.068H133.033V164.496H140.462ZM145.268 164.496V171.925H152.697V164.496H145.268ZM145.268 159.689V152.261H137.84V159.689H145.268ZM150.075 159.689V167.118H157.504V159.689H150.075ZM150.075 154.883V147.454H142.646V154.883H150.075ZM154.882 154.883V162.311H162.31V154.883H154.882ZM154.882 150.076V142.647H147.453V150.076H154.882ZM159.689 150.076V157.505H167.117V150.076H159.689ZM159.689 145.269V137.841H152.26V145.269H159.689ZM164.495 145.269V152.698H171.924V145.269H164.495ZM164.495 111.622H171.924V104.194H164.495V111.622ZM167.117 111.622V106.815H152.26V111.622H167.117ZM159.689 99.3869H145.268V114.244H159.689V99.3869ZM137.84 106.815V111.622H152.697V106.815H137.84ZM145.268 104.194H140.462V119.051H145.268V104.194ZM133.033 111.622V140.463H147.89V111.622H133.033ZM140.462 133.034H135.655V147.891H140.462V133.034ZM128.226 140.463V145.269H143.083V140.463H128.226ZM135.655 137.841H130.848V152.698H135.655V137.841ZM138.277 145.269V111.622H123.42V145.269H138.277ZM130.848 104.194H126.041V119.051H130.848V104.194ZM133.47 111.622V106.815H118.613V111.622H133.47ZM126.041 99.3869H102.008V114.244H126.041V99.3869ZM94.5793 106.815V111.622H109.436V106.815H94.5793ZM102.008 119.051H111.621V104.194H102.008V119.051ZM104.193 111.622V116.429H119.05V111.622H104.193ZM111.621 109H106.815V123.858H111.621V109ZM99.386 116.429V121.236H114.243V116.429H99.386ZM106.815 113.807H102.008V128.664H106.815V113.807ZM109.436 121.236V111.622H94.5793V121.236H109.436ZM102.008 104.194H97.2011V119.051H102.008V104.194ZM89.7726 111.622V164.496H104.63V111.622H89.7726ZM97.2011 171.925H102.008V157.068H97.2011V171.925ZM94.5793 164.496V169.303H109.436V164.496H94.5793ZM102.008 176.731H106.815V161.874H102.008V176.731ZM99.386 169.303V174.11H114.243V169.303H99.386ZM106.815 181.538H135.655V166.681H106.815V181.538ZM143.083 174.11V169.303H128.226V174.11H143.083ZM135.655 176.731H140.462V161.874H135.655V176.731ZM147.89 169.303V164.496H133.033V169.303H147.89ZM140.462 171.925H145.268V157.068H140.462V171.925ZM152.697 164.496V159.689H137.84V164.496H152.697ZM145.268 167.118H150.075V152.261H145.268V167.118ZM157.504 159.689V154.883H142.646V159.689H157.504ZM150.075 162.311H154.882V147.454H150.075V162.311ZM162.31 154.883V150.076H147.453V154.883H162.31ZM154.882 157.505H159.689V142.647H154.882V157.505ZM167.117 150.076V145.269H152.26V150.076H167.117ZM159.689 152.698H164.495V137.841H159.689V152.698ZM171.924 145.269V111.622H157.067V145.269H171.924ZM164.495 104.194H159.689V119.051H164.495V104.194ZM236.615 106.815H244.043V99.3869H236.615V106.815ZM178.934 106.815V99.3869H171.506V106.815H178.934ZM178.934 111.622H171.506V119.051H178.934V111.622ZM188.548 111.622H195.976V104.194H188.548V111.622ZM188.548 116.429V123.858H195.976V116.429H188.548ZM183.741 116.429V109H176.312V116.429H183.741ZM183.741 121.236V128.664H191.169V121.236H183.741ZM178.934 121.236H171.506V128.664H178.934V121.236ZM178.934 111.622H186.363V104.194H178.934V111.622ZM174.127 111.622V104.194H166.699V111.622H174.127ZM174.127 169.303H166.699V176.731H174.127V169.303ZM178.934 169.303H186.363V161.874H178.934V169.303ZM178.934 174.11H171.506V181.538H178.934V174.11ZM236.615 174.11V181.538H244.043V174.11H236.615ZM236.615 169.303V161.874H229.186V169.303H236.615ZM241.422 169.303V176.731H248.85V169.303H241.422ZM241.422 159.689H248.85V152.261H241.422V159.689ZM236.615 159.689H229.186V167.118H236.615V159.689ZM236.615 154.883H244.043V147.454H236.615V154.883ZM207.775 154.883H200.346V162.311H207.775V154.883ZM207.775 145.269V137.841H200.346V145.269H207.775ZM236.615 145.269V152.698H244.043V145.269H236.615ZM236.615 140.463V133.034H229.186V140.463H236.615ZM241.422 140.463V147.891H248.85V140.463H241.422ZM241.422 135.656H248.85V128.227H241.422V135.656ZM236.615 135.656H229.186V143.084H236.615V135.656ZM236.615 130.849H244.043V123.421H236.615V130.849ZM207.775 130.849H200.346V138.278H207.775V130.849ZM207.775 121.236V113.807H200.346V121.236H207.775ZM236.615 121.236V128.664H244.043V121.236H236.615ZM236.615 116.429V109H229.186V116.429H236.615ZM241.422 116.429V123.858H248.85V116.429H241.422ZM241.422 111.622H248.85V104.194H241.422V111.622ZM236.615 111.622H229.186V119.051H236.615V111.622ZM236.615 99.3869H178.934V114.244H236.615V99.3869ZM171.506 106.815V111.622H186.363V106.815H171.506ZM178.934 119.051H188.548V104.194H178.934V119.051ZM181.119 111.622V116.429H195.976V111.622H181.119ZM188.548 109H183.741V123.858H188.548V109ZM176.312 116.429V121.236H191.169V116.429H176.312ZM183.741 113.807H178.934V128.664H183.741V113.807ZM186.363 121.236V111.622H171.506V121.236H186.363ZM178.934 104.194H174.127V119.051H178.934V104.194ZM166.699 111.622V169.303H181.556V111.622H166.699ZM174.127 176.731H178.934V161.874H174.127V176.731ZM171.506 169.303V174.11H186.363V169.303H171.506ZM178.934 181.538H236.615V166.681H178.934V181.538ZM244.043 174.11V169.303H229.186V174.11H244.043ZM236.615 176.731H241.422V161.874H236.615V176.731ZM248.85 169.303V159.689H233.993V169.303H248.85ZM241.422 152.261H236.615V167.118H241.422V152.261ZM244.043 159.689V154.883H229.186V159.689H244.043ZM236.615 147.454H207.775V162.311H236.615V147.454ZM215.203 154.883V145.269H200.346V154.883H215.203ZM207.775 152.698H236.615V137.841H207.775V152.698ZM244.043 145.269V140.463H229.186V145.269H244.043ZM236.615 147.891H241.422V133.034H236.615V147.891ZM248.85 140.463V135.656H233.993V140.463H248.85ZM241.422 128.227H236.615V143.084H241.422V128.227ZM244.043 135.656V130.849H229.186V135.656H244.043ZM236.615 123.421H207.775V138.278H236.615V123.421ZM215.203 130.849V121.236H200.346V130.849H215.203ZM207.775 128.664H236.615V113.807H207.775V128.664ZM244.043 121.236V116.429H229.186V121.236H244.043ZM236.615 123.858H241.422V109H236.615V123.858ZM248.85 116.429V111.622H233.993V116.429H248.85ZM241.422 104.194H236.615V119.051H241.422V104.194ZM244.043 111.622V106.815H229.186V111.622H244.043ZM313.541 111.622H320.97V104.194H313.541V111.622ZM308.734 111.622H301.306V119.051H308.734V111.622ZM308.734 106.815H316.163V99.3869H308.734V106.815ZM255.861 106.815V99.3869H248.432V106.815H255.861ZM255.861 111.622H248.432V119.051H255.861V111.622ZM265.474 111.622H272.903V104.194H265.474V111.622ZM265.474 116.429V123.858H272.903V116.429H265.474ZM260.667 116.429V109H253.239V116.429H260.667ZM260.667 121.236V128.664H268.096V121.236H260.667ZM255.861 121.236H248.432V128.664H255.861V121.236ZM255.861 111.622H263.289V104.194H255.861V111.622ZM251.054 111.622V104.194H243.625V111.622H251.054ZM251.054 169.303H243.625V176.731H251.054V169.303ZM255.861 169.303H263.289V161.874H255.861V169.303ZM255.861 174.11H248.432V181.538H255.861V174.11ZM279.894 174.11V181.538H287.323V174.11H279.894ZM279.894 169.303V161.874H272.466V169.303H279.894ZM284.701 169.303V176.731H292.129V169.303H284.701ZM284.701 154.883V147.454H277.272V154.883H284.701ZM289.508 154.883H296.936V147.454H289.508V154.883ZM289.508 159.689H282.079V167.118H289.508V159.689ZM294.314 159.689H301.743V152.261H294.314V159.689ZM294.314 164.496H286.886V171.925H294.314V164.496ZM299.121 164.496H306.55V157.068H299.121V164.496ZM299.121 169.303H291.692V176.731H299.121V169.303ZM303.928 169.303H311.356V161.874H303.928V169.303ZM303.928 174.11H296.499V181.538H303.928V174.11ZM313.541 174.11V181.538H320.97V174.11H313.541ZM313.541 169.303V161.874H306.113V169.303H313.541ZM318.348 169.303V176.731H325.776V169.303H318.348ZM318.348 150.076H325.776V142.647H318.348V150.076ZM313.541 150.076H306.113V157.505H313.541V150.076ZM313.541 145.269H320.97V137.841H313.541V145.269ZM308.734 145.269H301.306V152.698H308.734V145.269ZM308.734 140.463V133.034H301.306V140.463H308.734ZM313.541 140.463V147.891H320.97V140.463H313.541ZM313.541 135.656V128.227H306.113V135.656H313.541ZM318.348 135.656V143.084H325.776V135.656H318.348ZM318.348 116.429H325.776V109H318.348V116.429ZM313.541 116.429H306.113V123.858H313.541V116.429ZM299.121 130.849V138.278H306.55V130.849H299.121ZM284.701 130.849H277.272V138.278H284.701V130.849ZM284.701 121.236V113.807H277.272V121.236H284.701ZM299.121 121.236H306.55V113.807H299.121V121.236ZM313.541 104.194H308.734V119.051H313.541V104.194ZM316.163 111.622V106.815H301.306V111.622H316.163ZM308.734 99.3869H255.861V114.244H308.734V99.3869ZM248.432 106.815V111.622H263.289V106.815H248.432ZM255.861 119.051H265.474V104.194H255.861V119.051ZM258.045 111.622V116.429H272.903V111.622H258.045ZM265.474 109H260.667V123.858H265.474V109ZM253.239 116.429V121.236H268.096V116.429H253.239ZM260.667 113.807H255.861V128.664H260.667V113.807ZM263.289 121.236V111.622H248.432V121.236H263.289ZM255.861 104.194H251.054V119.051H255.861V104.194ZM243.625 111.622V169.303H258.482V111.622H243.625ZM251.054 176.731H255.861V161.874H251.054V176.731ZM248.432 169.303V174.11H263.289V169.303H248.432ZM255.861 181.538H279.894V166.681H255.861V181.538ZM287.323 174.11V169.303H272.466V174.11H287.323ZM279.894 176.731H284.701V161.874H279.894V176.731ZM292.129 169.303V154.883H277.272V169.303H292.129ZM284.701 162.311H289.508V147.454H284.701V162.311ZM282.079 154.883V159.689H296.936V154.883H282.079ZM289.508 167.118H294.314V152.261H289.508V167.118ZM286.886 159.689V164.496H301.743V159.689H286.886ZM294.314 171.925H299.121V157.068H294.314V171.925ZM291.692 164.496V169.303H306.55V164.496H291.692ZM299.121 176.731H303.928V161.874H299.121V176.731ZM296.499 169.303V174.11H311.356V169.303H296.499ZM303.928 181.538H313.541V166.681H303.928V181.538ZM320.97 174.11V169.303H306.113V174.11H320.97ZM313.541 176.731H318.348V161.874H313.541V176.731ZM325.776 169.303V150.076H310.919V169.303H325.776ZM318.348 142.647H313.541V157.505H318.348V142.647ZM320.97 150.076V145.269H306.113V150.076H320.97ZM313.541 137.841H308.734V152.698H313.541V137.841ZM316.163 145.269V140.463H301.306V145.269H316.163ZM308.734 147.891H313.541V133.034H308.734V147.891ZM320.97 140.463V135.656H306.113V140.463H320.97ZM313.541 143.084H318.348V128.227H313.541V143.084ZM325.776 135.656V116.429H310.919V135.656H325.776ZM318.348 109H313.541V123.858H318.348V109ZM320.97 116.429V111.622H306.113V116.429H320.97ZM299.121 123.421H284.701V138.278H299.121V123.421ZM292.129 130.849V121.236H277.272V130.849H292.129ZM284.701 128.664H299.121V113.807H284.701V128.664ZM291.692 121.236V130.849H306.55V121.236H291.692Z" fill="black"/>
<path d="M79.1133 20.7059H26.2393V25.5126H31.046V30.3193H26.2393V35.1261H21.4326V30.3193H16.6259V78.3866H21.4326V83.1933H26.2393V88H74.3065V83.1933H79.1133V78.3866H83.92V49.5462H79.1133V44.7395H59.8864V49.5462H55.0797V54.3529H59.8864V59.1597H64.6931V68.7731H50.2729V35.1261H79.1133V30.3193H83.92V25.5126H79.1133V20.7059ZM156.04 30.3193H151.233V25.5126H146.426V20.7059H103.166V25.5126H107.972V30.3193H103.166V35.1261H98.3589V30.3193H93.5522V83.1933H98.3589V88H122.393V83.1933H127.199V54.3529H141.619V83.1933H146.426V88H156.04V83.1933H160.846V35.1261H156.04V30.3193ZM127.199 35.1261H141.619V44.7395H127.199V35.1261ZM237.773 20.7059H223.352V25.5126H218.546V44.7395H213.739V49.5462H208.932V44.7395H204.126V25.5126H199.319V20.7059H175.285V25.5126H184.899V30.3193H180.092V35.1261H175.285V25.5126H170.479V83.1933H175.285V88H199.319V83.1933H204.126V68.7731H208.932V73.5798H213.739V68.7731H218.546V83.1933H223.352V88H237.773V83.1933H242.579V25.5126H237.773V20.7059ZM314.68 20.7059H257V25.5126H266.613V30.3193H261.806V35.1261H257V25.5126H252.193V83.1933H257V88H314.68V83.1933H319.487V73.5798H314.68V68.7731H285.84V59.1597H314.68V54.3529H319.487V49.5462H314.68V44.7395H285.84V35.1261H314.68V30.3193H319.487V25.5126H314.68V20.7059ZM81.5072 107.513H76.7005V102.706H28.6333V107.513H33.44V112.319H28.6333V117.126H23.8266V112.319H19.0199V160.387H23.8266V165.193H28.6333V170H76.7005V165.193H81.5072V160.387H86.314V112.319H81.5072V107.513ZM52.6669 150.773V117.126H67.0871V150.773H52.6669ZM158.434 107.513V102.706H144.013V107.513H139.207V136.353H134.4V141.16H129.593V107.513H124.787V102.706H100.753V107.513H110.366V112.319H105.56V117.126H100.753V107.513H95.9462V160.387H100.753V165.193H105.56V170H134.4V165.193H139.207V160.387H144.013V155.58H148.82V150.773H153.627V145.966H158.434V141.16H163.24V107.513H158.434ZM235.36 102.706H177.679V107.513H187.293V112.319H182.486V117.126H177.679V107.513H172.873V165.193H177.679V170H235.36V165.193H240.167V155.58H235.36V150.773H206.52V141.16H235.36V136.353H240.167V131.546H235.36V126.739H206.52V117.126H235.36V112.319H240.167V107.513H235.36V102.706ZM312.286 107.513H307.48V102.706H254.606V107.513H264.219V112.319H259.412V117.126H254.606V107.513H249.799V165.193H254.606V170H278.639V165.193H283.446V150.773H288.253V155.58H293.059V160.387H297.866V165.193H302.673V170H312.286V165.193H317.093V145.966H312.286V141.16H307.48V136.353H312.286V131.546H317.093V112.319H312.286V107.513ZM297.866 126.739H283.446V117.126H297.866V126.739Z" fill="white"/>
</svg>
