<svg width="414" height="85" viewBox="0 0 414 85" fill="none" xmlns="http://www.w3.org/2000/svg">
<rect x="10" y="10" width="394" height="65" fill="#EB8683"/>
<line x1="10" y1="77.5" x2="404" y2="77.5" stroke="white" stroke-width="5"/>
<line x1="10" y1="7.5" x2="404" y2="7.5" stroke="white" stroke-width="5"/>
<line x1="406.521" y1="10" x2="406.521" y2="75" stroke="white" stroke-width="5"/>
<line x1="7.52075" y1="10" x2="7.52075" y2="75" stroke="white" stroke-width="5"/>
<rect x="399" y="10" width="5" height="5" fill="white"/>
<rect x="404" y="7" width="3" height="3" fill="white"/>
<rect x="399" y="12" width="3" height="3" fill="#EB8683"/>
<rect x="404" y="75" width="3" height="3" fill="white"/>
<rect x="7" y="7" width="3" height="3" fill="white"/>
<rect x="7" y="75" width="3" height="3" fill="white"/>
<rect x="399" y="70" width="5" height="5" fill="white"/>
<rect x="10" y="10" width="5" height="5" fill="white"/>
<rect x="10" y="70" width="5" height="5" fill="white"/>
<rect x="12" y="12" width="3" height="3" fill="#EB8683"/>
<rect x="10" y="61" width="6" height="9" fill="#D67774"/>
<rect x="398" y="61" width="6" height="9" fill="#D67774"/>
<rect x="15" y="67" width="384" height="8" fill="#D67774"/>
<rect x="399" y="70" width="3" height="3" fill="#D67774"/>
<rect x="395" y="64" width="3" height="3" fill="#D67774"/>
<rect x="401" y="58" width="3" height="3" fill="#D67774"/>
<rect x="12" y="70" width="3" height="3" fill="#D67774"/>
<rect x="16" y="64" width="3" height="3" fill="#D67774"/>
<rect x="10" y="58" width="3" height="3" fill="#D67774"/>
<path d="M72.3801 28.1765V25.9412H70.1448V23.7059H45.5566V25.9412H50.0272V28.1765H47.7919V30.4118H45.5566V25.9412H43.3213V52.7647H45.5566V55H56.7331V52.7647H58.9683V46.0588H70.1448V43.8235H72.3801V41.5882H74.6154V28.1765H72.3801ZM58.9683 30.4118H63.4389V39.3529H58.9683V30.4118ZM105.918 46.0588H94.7418V25.9412H92.5065V23.7059H81.33V25.9412H85.8006V28.1765H83.5653V30.4118H81.33V25.9412H79.0947V52.7647H81.33V55H105.918V52.7647H108.154V48.2941H105.918V46.0588ZM141.7 28.1765H139.465V25.9412H137.23V23.7059H117.112V25.9412H119.347V28.1765H117.112V30.4118H114.877V28.1765H112.642V52.7647H114.877V55H126.053V52.7647H128.289V39.3529H134.995V52.7647H137.23V55H141.7V52.7647H143.936V30.4118H141.7V28.1765ZM128.289 30.4118H134.995V34.8824H128.289V30.4118ZM175.239 34.8824V37.1176H173.003V39.3529H170.768V52.7647H168.533V55H159.592V52.7647H157.356V39.3529H155.121V37.1176H152.886V34.8824H150.65V32.6471H148.415V25.9412H150.65V30.4118H152.886V28.1765H155.121V25.9412H150.65V23.7059H159.592V25.9412H161.827V28.1765H166.297V25.9412H168.533V23.7059H177.474V25.9412H179.709V32.6471H177.474V34.8824H175.239ZM244.531 28.1765H242.295V25.9412H240.06V23.7059H219.942V25.9412H222.178V28.1765H219.942V30.4118H217.707V28.1765H215.472V52.7647H217.707V55H228.883V52.7647H231.119V39.3529H237.825V52.7647H240.06V55H244.531V52.7647H246.766V30.4118H244.531V28.1765ZM231.119 30.4118H237.825V34.8824H231.119V30.4118ZM280.304 23.7059H255.716V25.9412H257.951V28.1765H255.716V30.4118H253.48V28.1765H251.245V50.5294H253.48V52.7647H255.716V55H278.069V52.7647H280.304V50.5294H282.539V37.1176H280.304V34.8824H271.363V37.1176H269.127V39.3529H271.363V41.5882H273.598V46.0588H266.892V30.4118H280.304V28.1765H282.539V25.9412H280.304V23.7059ZM316.077 28.1765H313.842V25.9412H311.607V23.7059H291.489V25.9412H293.724V28.1765H291.489V30.4118H289.254V28.1765H287.019V52.7647H289.254V55H300.43V52.7647H302.666V39.3529H309.371V52.7647H311.607V55H316.077V52.7647H318.313V30.4118H316.077V28.1765ZM302.666 30.4118H309.371V34.8824H302.666V30.4118ZM336.204 23.7059H325.027V25.9412H329.498V28.1765H327.263V30.4118H325.027V25.9412H322.792V52.7647H325.027V55H336.204V52.7647H338.439V25.9412H336.204V23.7059ZM371.964 23.7059H365.258V25.9412H363.023V37.1176H360.788V34.8824H358.552V25.9412H356.317V23.7059H345.141V25.9412H349.611V28.1765H347.376V30.4118H345.141V25.9412H342.905V52.7647H345.141V55H356.317V52.7647H358.552V43.8235H360.788V46.0588H363.023V52.7647H365.258V55H371.964V52.7647H374.199V25.9412H371.964V23.7059Z" fill="white"/>
</svg>
