<svg width="290" height="85" viewBox="0 0 290 85" fill="none" xmlns="http://www.w3.org/2000/svg">
<rect x="10" y="10" width="270" height="65" fill="#EB8683"/>
<line x1="10" y1="77.5" x2="280" y2="77.5" stroke="white" stroke-width="5"/>
<line x1="10" y1="7.5" x2="280" y2="7.5" stroke="white" stroke-width="5"/>
<line x1="282.521" y1="10" x2="282.521" y2="75" stroke="white" stroke-width="5"/>
<line x1="7.52075" y1="10" x2="7.52075" y2="75" stroke="white" stroke-width="5"/>
<rect x="275" y="10" width="5" height="5" fill="white"/>
<rect x="280" y="7" width="3" height="3" fill="white"/>
<rect x="275" y="12" width="3" height="3" fill="#EB8683"/>
<rect x="280" y="75" width="3" height="3" fill="white"/>
<rect x="7" y="7" width="3" height="3" fill="white"/>
<rect x="7" y="75" width="3" height="3" fill="white"/>
<rect x="275" y="70" width="5" height="5" fill="white"/>
<rect x="10" y="10" width="5" height="5" fill="white"/>
<rect x="10" y="70" width="5" height="5" fill="white"/>
<rect x="12" y="12" width="3" height="3" fill="#EB8683"/>
<rect x="10" y="61" width="6" height="9" fill="#D67774"/>
<rect x="274" y="61" width="6" height="9" fill="#D67774"/>
<rect x="15" y="67" width="260" height="8" fill="#D67774"/>
<rect x="275" y="70" width="3" height="3" fill="#D67774"/>
<rect x="271" y="64" width="3" height="3" fill="#D67774"/>
<rect x="277" y="58" width="3" height="3" fill="#D67774"/>
<rect x="12" y="70" width="3" height="3" fill="#D67774"/>
<rect x="16" y="64" width="3" height="3" fill="#D67774"/>
<rect x="10" y="58" width="3" height="3" fill="#D67774"/>
<path d="M60.6819 25.9412H58.4466V23.7059H36.0936V25.9412H38.3289V28.1765H36.0936V30.4118H33.8583V28.1765H31.623V50.5294H33.8583V52.7647H36.0936V55H58.4466V52.7647H60.6819V50.5294H62.9172V28.1765H60.6819V25.9412ZM47.2701 46.0588V30.4118H53.976V46.0588H47.2701ZM96.4553 28.1765V25.9412H94.22V23.7059H69.6318V25.9412H74.1024V28.1765H71.8671V30.4118H69.6318V25.9412H67.3965V52.7647H69.6318V55H80.8082V52.7647H83.0435V46.0588H94.22V43.8235H96.4553V41.5882H98.6906V28.1765H96.4553ZM83.0435 30.4118H87.5141V39.3529H83.0435V30.4118ZM132.229 23.7059H105.405V25.9412H109.876V28.1765H107.641V30.4118H105.405V32.6471H112.111V52.7647H114.346V55H123.288V52.7647H125.523V32.6471H132.229V30.4118H134.464V25.9412H132.229V23.7059ZM105.405 25.9412H103.17V30.4118H105.405V25.9412ZM152.355 23.7059H141.179V25.9412H145.649V28.1765H143.414V30.4118H141.179V25.9412H138.943V52.7647H141.179V55H152.355V52.7647H154.59V25.9412H152.355V23.7059ZM188.115 25.9412H185.88V23.7059H163.527V25.9412H165.763V28.1765H163.527V30.4118H161.292V28.1765H159.057V50.5294H161.292V52.7647H163.527V55H185.88V52.7647H188.115V50.5294H190.351V28.1765H188.115V25.9412ZM174.704 46.0588V30.4118H181.41V46.0588H174.704ZM223.889 23.7059H217.183V25.9412H214.948V37.1176H212.712V34.8824H210.477V25.9412H208.242V23.7059H197.065V25.9412H201.536V28.1765H199.301V30.4118H197.065V25.9412H194.83V52.7647H197.065V55H208.242V52.7647H210.477V43.8235H212.712V46.0588H214.948V52.7647H217.183V55H223.889V52.7647H226.124V25.9412H223.889V23.7059ZM259.662 23.7059H235.074V25.9412H237.309V28.1765H235.074V30.4118H232.839V28.1765H230.604V39.3529H232.839V41.5882H250.721V43.8235H232.839V46.0588H230.604V52.7647H232.839V55H257.427V52.7647H259.662V50.5294H261.898V37.1176H259.662V34.8824H246.251V32.6471H259.662V30.4118H261.898V25.9412H259.662V23.7059Z" fill="white"/>
</svg>
