<svg width="476" height="200" viewBox="0 0 476 200" fill="none" xmlns="http://www.w3.org/2000/svg">
<path d="M70.7084 75.3193V70.5126H65.9017V65.7059H13.0277V70.5126H22.6412V75.3193H17.8345V80.1261H13.0277V70.5126H8.22101V128.193H13.0277V133H37.0613V128.193H41.8681V113.773H65.9017V108.966H70.7084V104.16H75.5151V75.3193H70.7084ZM41.8681 80.1261H51.4815V99.3529H41.8681V80.1261ZM147.635 75.3193H142.828V70.5126H138.021V65.7059H94.7608V70.5126H99.5675V75.3193H94.7608V80.1261H89.9541V75.3193H85.1473V128.193H89.9541V133H113.988V128.193H118.794V99.3529H133.215V128.193H138.021V133H147.635V128.193H152.441V80.1261H147.635V75.3193ZM118.794 80.1261H133.215V89.7395H118.794V80.1261ZM224.561 65.7059H210.141V70.5126H205.334V113.773H195.721V70.5126H190.914V65.7059H166.88V70.5126H176.494V75.3193H171.687V80.1261H166.88V70.5126H162.074V123.387H166.88V128.193H171.687V133H219.754V128.193H224.561V123.387H229.368V70.5126H224.561V65.7059ZM301.487 65.7059H248.613V70.5126H253.42V75.3193H248.613V80.1261H243.807V75.3193H239V99.3529H243.807V104.16H282.261V108.966H243.807V113.773H239V128.193H243.807V133H296.681V128.193H301.487V123.387H306.294V94.5462H301.487V89.7395H272.647V84.9328H301.487V80.1261H306.294V70.5126H301.487V65.7059ZM378.414 65.7059H320.733V70.5126H330.346V75.3193H325.54V80.1261H320.733V70.5126H315.926V128.193H320.733V133H378.414V128.193H383.22V118.58H378.414V113.773H349.573V104.16H378.414V99.3529H383.22V94.5462H378.414V89.7395H349.573V80.1261H378.414V75.3193H383.22V70.5126H378.414V65.7059ZM455.34 75.3193H450.533V70.5126H445.727V65.7059H397.659V70.5126H407.273V75.3193H402.466V80.1261H397.659V70.5126H392.853V128.193H397.659V133H450.533V128.193H455.34V123.387H460.147V80.1261H455.34V75.3193ZM440.92 84.9328V108.966H436.113V113.773H426.5V80.1261H436.113V84.9328H440.92Z" fill="black"/>
<path d="M70.7084 75.3193H63.2798V82.7479H70.7084V75.3193ZM70.7084 70.5126H78.137V63.084H70.7084V70.5126ZM65.9017 70.5126H58.4731V77.9412H65.9017V70.5126ZM65.9017 65.7059H73.3302V58.2773H65.9017V65.7059ZM13.0277 65.7059V58.2773H5.59916V65.7059H13.0277ZM13.0277 70.5126H5.59916V77.9412H13.0277V70.5126ZM22.6412 70.5126H30.0697V63.084H22.6412V70.5126ZM22.6412 75.3193V82.7479H30.0697V75.3193H22.6412ZM17.8345 75.3193V67.8908H10.4059V75.3193H17.8345ZM17.8345 80.1261V87.5546H25.263V80.1261H17.8345ZM13.0277 80.1261H5.59916V87.5546H13.0277V80.1261ZM13.0277 70.5126H20.4563V63.084H13.0277V70.5126ZM8.22101 70.5126V63.084H0.792438V70.5126H8.22101ZM8.22101 128.193H0.792438V135.622H8.22101V128.193ZM13.0277 128.193H20.4563V120.765H13.0277V128.193ZM13.0277 133H5.59916V140.429H13.0277V133ZM37.0613 133V140.429H44.4899V133H37.0613ZM37.0613 128.193V120.765H29.6328V128.193H37.0613ZM41.8681 128.193V135.622H49.2966V128.193H41.8681ZM41.8681 113.773V106.345H34.4395V113.773H41.8681ZM65.9017 113.773V121.202H73.3302V113.773H65.9017ZM65.9017 108.966V101.538H58.4731V108.966H65.9017ZM70.7084 108.966V116.395H78.137V108.966H70.7084ZM70.7084 104.16V96.7311H63.2798V104.16H70.7084ZM75.5151 104.16V111.588H82.9437V104.16H75.5151ZM75.5151 75.3193H82.9437V67.8908H75.5151V75.3193ZM41.8681 80.1261V72.6975H34.4395V80.1261H41.8681ZM51.4815 80.1261H58.9101V72.6975H51.4815V80.1261ZM51.4815 99.3529V106.782H58.9101V99.3529H51.4815ZM41.8681 99.3529H34.4395V106.782H41.8681V99.3529ZM78.137 75.3193V70.5126H63.2798V75.3193H78.137ZM70.7084 63.084H65.9017V77.9412H70.7084V63.084ZM73.3302 70.5126V65.7059H58.4731V70.5126H73.3302ZM65.9017 58.2773H13.0277V73.1345H65.9017V58.2773ZM5.59916 65.7059V70.5126H20.4563V65.7059H5.59916ZM13.0277 77.9412H22.6412V63.084H13.0277V77.9412ZM15.2126 70.5126V75.3193H30.0697V70.5126H15.2126ZM22.6412 67.8908H17.8345V82.7479H22.6412V67.8908ZM10.4059 75.3193V80.1261H25.263V75.3193H10.4059ZM17.8345 72.6975H13.0277V87.5546H17.8345V72.6975ZM20.4563 80.1261V70.5126H5.59916V80.1261H20.4563ZM13.0277 63.084H8.22101V77.9412H13.0277V63.084ZM0.792438 70.5126V128.193H15.6496V70.5126H0.792438ZM8.22101 135.622H13.0277V120.765H8.22101V135.622ZM5.59916 128.193V133H20.4563V128.193H5.59916ZM13.0277 140.429H37.0613V125.571H13.0277V140.429ZM44.4899 133V128.193H29.6328V133H44.4899ZM37.0613 135.622H41.8681V120.765H37.0613V135.622ZM49.2966 128.193V113.773H34.4395V128.193H49.2966ZM41.8681 121.202H65.9017V106.345H41.8681V121.202ZM73.3302 113.773V108.966H58.4731V113.773H73.3302ZM65.9017 116.395H70.7084V101.538H65.9017V116.395ZM78.137 108.966V104.16H63.2798V108.966H78.137ZM70.7084 111.588H75.5151V96.7311H70.7084V111.588ZM82.9437 104.16V75.3193H68.0866V104.16H82.9437ZM75.5151 67.8908H70.7084V82.7479H75.5151V67.8908ZM41.8681 87.5546H51.4815V72.6975H41.8681V87.5546ZM44.0529 80.1261V99.3529H58.9101V80.1261H44.0529ZM51.4815 91.9244H41.8681V106.782H51.4815V91.9244ZM49.2966 99.3529V80.1261H34.4395V99.3529H49.2966ZM147.635 75.3193H155.063V67.8908H147.635V75.3193ZM142.828 75.3193H135.399V82.7479H142.828V75.3193ZM142.828 70.5126H150.257V63.084H142.828V70.5126ZM138.021 70.5126H130.593V77.9412H138.021V70.5126ZM138.021 65.7059H145.45V58.2773H138.021V65.7059ZM94.7608 65.7059V58.2773H87.3322V65.7059H94.7608ZM94.7608 70.5126H87.3322V77.9412H94.7608V70.5126ZM99.5675 70.5126H106.996V63.084H99.5675V70.5126ZM99.5675 75.3193V82.7479H106.996V75.3193H99.5675ZM94.7608 75.3193V67.8908H87.3322V75.3193H94.7608ZM94.7608 80.1261V87.5546H102.189V80.1261H94.7608ZM89.9541 80.1261H82.5255V87.5546H89.9541V80.1261ZM89.9541 75.3193H97.3826V67.8908H89.9541V75.3193ZM85.1473 75.3193V67.8908H77.7188V75.3193H85.1473ZM85.1473 128.193H77.7188V135.622H85.1473V128.193ZM89.9541 128.193H97.3826V120.765H89.9541V128.193ZM89.9541 133H82.5255V140.429H89.9541V133ZM113.988 133V140.429H121.416V133H113.988ZM113.988 128.193V120.765H106.559V128.193H113.988ZM118.794 128.193V135.622H126.223V128.193H118.794ZM118.794 99.3529V91.9244H111.366V99.3529H118.794ZM133.215 99.3529H140.643V91.9244H133.215V99.3529ZM133.215 128.193H125.786V135.622H133.215V128.193ZM138.021 128.193H145.45V120.765H138.021V128.193ZM138.021 133H130.593V140.429H138.021V133ZM147.635 133V140.429H155.063V133H147.635ZM147.635 128.193V120.765H140.206V128.193H147.635ZM152.441 128.193V135.622H159.87V128.193H152.441ZM152.441 80.1261H159.87V72.6975H152.441V80.1261ZM147.635 80.1261H140.206V87.5546H147.635V80.1261ZM118.794 80.1261V72.6975H111.366V80.1261H118.794ZM133.215 80.1261H140.643V72.6975H133.215V80.1261ZM133.215 89.7395V97.1681H140.643V89.7395H133.215ZM118.794 89.7395H111.366V97.1681H118.794V89.7395ZM147.635 67.8908H142.828V82.7479H147.635V67.8908ZM150.257 75.3193V70.5126H135.399V75.3193H150.257ZM142.828 63.084H138.021V77.9412H142.828V63.084ZM145.45 70.5126V65.7059H130.593V70.5126H145.45ZM138.021 58.2773H94.7608V73.1345H138.021V58.2773ZM87.3322 65.7059V70.5126H102.189V65.7059H87.3322ZM94.7608 77.9412H99.5675V63.084H94.7608V77.9412ZM92.1389 70.5126V75.3193H106.996V70.5126H92.1389ZM99.5675 67.8908H94.7608V82.7479H99.5675V67.8908ZM87.3322 75.3193V80.1261H102.189V75.3193H87.3322ZM94.7608 72.6975H89.9541V87.5546H94.7608V72.6975ZM97.3826 80.1261V75.3193H82.5255V80.1261H97.3826ZM89.9541 67.8908H85.1473V82.7479H89.9541V67.8908ZM77.7188 75.3193V128.193H92.5759V75.3193H77.7188ZM85.1473 135.622H89.9541V120.765H85.1473V135.622ZM82.5255 128.193V133H97.3826V128.193H82.5255ZM89.9541 140.429H113.988V125.571H89.9541V140.429ZM121.416 133V128.193H106.559V133H121.416ZM113.988 135.622H118.794V120.765H113.988V135.622ZM126.223 128.193V99.3529H111.366V128.193H126.223ZM118.794 106.782H133.215V91.9244H118.794V106.782ZM125.786 99.3529V128.193H140.643V99.3529H125.786ZM133.215 135.622H138.021V120.765H133.215V135.622ZM130.593 128.193V133H145.45V128.193H130.593ZM138.021 140.429H147.635V125.571H138.021V140.429ZM155.063 133V128.193H140.206V133H155.063ZM147.635 135.622H152.441V120.765H147.635V135.622ZM159.87 128.193V80.1261H145.013V128.193H159.87ZM152.441 72.6975H147.635V87.5546H152.441V72.6975ZM155.063 80.1261V75.3193H140.206V80.1261H155.063ZM118.794 87.5546H133.215V72.6975H118.794V87.5546ZM125.786 80.1261V89.7395H140.643V80.1261H125.786ZM133.215 82.3109H118.794V97.1681H133.215V82.3109ZM126.223 89.7395V80.1261H111.366V89.7395H126.223ZM224.561 65.7059H231.99V58.2773H224.561V65.7059ZM210.141 65.7059V58.2773H202.712V65.7059H210.141ZM210.141 70.5126V77.9412H217.569V70.5126H210.141ZM205.334 70.5126V63.084H197.906V70.5126H205.334ZM205.334 113.773V121.202H212.763V113.773H205.334ZM195.721 113.773H188.292V121.202H195.721V113.773ZM195.721 70.5126H203.149V63.084H195.721V70.5126ZM190.914 70.5126H183.485V77.9412H190.914V70.5126ZM190.914 65.7059H198.343V58.2773H190.914V65.7059ZM166.88 65.7059V58.2773H159.452V65.7059H166.88ZM166.88 70.5126H159.452V77.9412H166.88V70.5126ZM176.494 70.5126H183.922V63.084H176.494V70.5126ZM176.494 75.3193V82.7479H183.922V75.3193H176.494ZM171.687 75.3193V67.8908H164.259V75.3193H171.687ZM171.687 80.1261V87.5546H179.116V80.1261H171.687ZM166.88 80.1261H159.452V87.5546H166.88V80.1261ZM166.88 70.5126H174.309V63.084H166.88V70.5126ZM162.074 70.5126V63.084H154.645V70.5126H162.074ZM162.074 123.387H154.645V130.815H162.074V123.387ZM166.88 123.387H174.309V115.958H166.88V123.387ZM166.88 128.193H159.452V135.622H166.88V128.193ZM171.687 128.193H179.116V120.765H171.687V128.193ZM171.687 133H164.259V140.429H171.687V133ZM219.754 133V140.429H227.183V133H219.754ZM219.754 128.193V120.765H212.326V128.193H219.754ZM224.561 128.193V135.622H231.99V128.193H224.561ZM224.561 123.387V115.958H217.132V123.387H224.561ZM229.368 123.387V130.815H236.796V123.387H229.368ZM229.368 70.5126H236.796V63.084H229.368V70.5126ZM224.561 70.5126H217.132V77.9412H224.561V70.5126ZM224.561 58.2773H210.141V73.1345H224.561V58.2773ZM202.712 65.7059V70.5126H217.569V65.7059H202.712ZM210.141 63.084H205.334V77.9412H210.141V63.084ZM197.906 70.5126V113.773H212.763V70.5126H197.906ZM205.334 106.345H195.721V121.202H205.334V106.345ZM203.149 113.773V70.5126H188.292V113.773H203.149ZM195.721 63.084H190.914V77.9412H195.721V63.084ZM198.343 70.5126V65.7059H183.485V70.5126H198.343ZM190.914 58.2773H166.88V73.1345H190.914V58.2773ZM159.452 65.7059V70.5126H174.309V65.7059H159.452ZM166.88 77.9412H176.494V63.084H166.88V77.9412ZM169.065 70.5126V75.3193H183.922V70.5126H169.065ZM176.494 67.8908H171.687V82.7479H176.494V67.8908ZM164.259 75.3193V80.1261H179.116V75.3193H164.259ZM171.687 72.6975H166.88V87.5546H171.687V72.6975ZM174.309 80.1261V70.5126H159.452V80.1261H174.309ZM166.88 63.084H162.074V77.9412H166.88V63.084ZM154.645 70.5126V123.387H169.502V70.5126H154.645ZM162.074 130.815H166.88V115.958H162.074V130.815ZM159.452 123.387V128.193H174.309V123.387H159.452ZM166.88 135.622H171.687V120.765H166.88V135.622ZM164.259 128.193V133H179.116V128.193H164.259ZM171.687 140.429H219.754V125.571H171.687V140.429ZM227.183 133V128.193H212.326V133H227.183ZM219.754 135.622H224.561V120.765H219.754V135.622ZM231.99 128.193V123.387H217.132V128.193H231.99ZM224.561 130.815H229.368V115.958H224.561V130.815ZM236.796 123.387V70.5126H221.939V123.387H236.796ZM229.368 63.084H224.561V77.9412H229.368V63.084ZM231.99 70.5126V65.7059H217.132V70.5126H231.99ZM301.487 65.7059H308.916V58.2773H301.487V65.7059ZM248.613 65.7059V58.2773H241.185V65.7059H248.613ZM248.613 70.5126H241.185V77.9412H248.613V70.5126ZM253.42 70.5126H260.849V63.084H253.42V70.5126ZM253.42 75.3193V82.7479H260.849V75.3193H253.42ZM248.613 75.3193V67.8908H241.185V75.3193H248.613ZM248.613 80.1261V87.5546H256.042V80.1261H248.613ZM243.807 80.1261H236.378V87.5546H243.807V80.1261ZM243.807 75.3193H251.235V67.8908H243.807V75.3193ZM239 75.3193V67.8908H231.571V75.3193H239ZM239 99.3529H231.571V106.782H239V99.3529ZM243.807 99.3529H251.235V91.9244H243.807V99.3529ZM243.807 104.16H236.378V111.588H243.807V104.16ZM282.261 104.16H289.689V96.7311H282.261V104.16ZM282.261 108.966V116.395H289.689V108.966H282.261ZM243.807 108.966V101.538H236.378V108.966H243.807ZM243.807 113.773V121.202H251.235V113.773H243.807ZM239 113.773V106.345H231.571V113.773H239ZM239 128.193H231.571V135.622H239V128.193ZM243.807 128.193H251.235V120.765H243.807V128.193ZM243.807 133H236.378V140.429H243.807V133ZM296.681 133V140.429H304.109V133H296.681ZM296.681 128.193V120.765H289.252V128.193H296.681ZM301.487 128.193V135.622H308.916V128.193H301.487ZM301.487 123.387V115.958H294.059V123.387H301.487ZM306.294 123.387V130.815H313.723V123.387H306.294ZM306.294 94.5462H313.723V87.1176H306.294V94.5462ZM301.487 94.5462H294.059V101.975H301.487V94.5462ZM301.487 89.7395H308.916V82.3109H301.487V89.7395ZM272.647 89.7395H265.218V97.1681H272.647V89.7395ZM272.647 84.9328V77.5042H265.218V84.9328H272.647ZM301.487 84.9328V92.3613H308.916V84.9328H301.487ZM301.487 80.1261V72.6975H294.059V80.1261H301.487ZM306.294 80.1261V87.5546H313.723V80.1261H306.294ZM306.294 70.5126H313.723V63.084H306.294V70.5126ZM301.487 70.5126H294.059V77.9412H301.487V70.5126ZM301.487 58.2773H248.613V73.1345H301.487V58.2773ZM241.185 65.7059V70.5126H256.042V65.7059H241.185ZM248.613 77.9412H253.42V63.084H248.613V77.9412ZM245.992 70.5126V75.3193H260.849V70.5126H245.992ZM253.42 67.8908H248.613V82.7479H253.42V67.8908ZM241.185 75.3193V80.1261H256.042V75.3193H241.185ZM248.613 72.6975H243.807V87.5546H248.613V72.6975ZM251.235 80.1261V75.3193H236.378V80.1261H251.235ZM243.807 67.8908H239V82.7479H243.807V67.8908ZM231.571 75.3193V99.3529H246.429V75.3193H231.571ZM239 106.782H243.807V91.9244H239V106.782ZM236.378 99.3529V104.16H251.235V99.3529H236.378ZM243.807 111.588H282.261V96.7311H243.807V111.588ZM274.832 104.16V108.966H289.689V104.16H274.832ZM282.261 101.538H243.807V116.395H282.261V101.538ZM236.378 108.966V113.773H251.235V108.966H236.378ZM243.807 106.345H239V121.202H243.807V106.345ZM231.571 113.773V128.193H246.429V113.773H231.571ZM239 135.622H243.807V120.765H239V135.622ZM236.378 128.193V133H251.235V128.193H236.378ZM243.807 140.429H296.681V125.571H243.807V140.429ZM304.109 133V128.193H289.252V133H304.109ZM296.681 135.622H301.487V120.765H296.681V135.622ZM308.916 128.193V123.387H294.059V128.193H308.916ZM301.487 130.815H306.294V115.958H301.487V130.815ZM313.723 123.387V94.5462H298.866V123.387H313.723ZM306.294 87.1176H301.487V101.975H306.294V87.1176ZM308.916 94.5462V89.7395H294.059V94.5462H308.916ZM301.487 82.3109H272.647V97.1681H301.487V82.3109ZM280.076 89.7395V84.9328H265.218V89.7395H280.076ZM272.647 92.3613H301.487V77.5042H272.647V92.3613ZM308.916 84.9328V80.1261H294.059V84.9328H308.916ZM301.487 87.5546H306.294V72.6975H301.487V87.5546ZM313.723 80.1261V70.5126H298.866V80.1261H313.723ZM306.294 63.084H301.487V77.9412H306.294V63.084ZM308.916 70.5126V65.7059H294.059V70.5126H308.916ZM378.414 65.7059H385.842V58.2773H378.414V65.7059ZM320.733 65.7059V58.2773H313.304V65.7059H320.733ZM320.733 70.5126H313.304V77.9412H320.733V70.5126ZM330.346 70.5126H337.775V63.084H330.346V70.5126ZM330.346 75.3193V82.7479H337.775V75.3193H330.346ZM325.54 75.3193V67.8908H318.111V75.3193H325.54ZM325.54 80.1261V87.5546H332.968V80.1261H325.54ZM320.733 80.1261H313.304V87.5546H320.733V80.1261ZM320.733 70.5126H328.162V63.084H320.733V70.5126ZM315.926 70.5126V63.084H308.498V70.5126H315.926ZM315.926 128.193H308.498V135.622H315.926V128.193ZM320.733 128.193H328.162V120.765H320.733V128.193ZM320.733 133H313.304V140.429H320.733V133ZM378.414 133V140.429H385.842V133H378.414ZM378.414 128.193V120.765H370.985V128.193H378.414ZM383.22 128.193V135.622H390.649V128.193H383.22ZM383.22 118.58H390.649V111.151H383.22V118.58ZM378.414 118.58H370.985V126.008H378.414V118.58ZM378.414 113.773H385.842V106.345H378.414V113.773ZM349.573 113.773H342.145V121.202H349.573V113.773ZM349.573 104.16V96.7311H342.145V104.16H349.573ZM378.414 104.16V111.588H385.842V104.16H378.414ZM378.414 99.3529V91.9244H370.985V99.3529H378.414ZM383.22 99.3529V106.782H390.649V99.3529H383.22ZM383.22 94.5462H390.649V87.1176H383.22V94.5462ZM378.414 94.5462H370.985V101.975H378.414V94.5462ZM378.414 89.7395H385.842V82.3109H378.414V89.7395ZM349.573 89.7395H342.145V97.1681H349.573V89.7395ZM349.573 80.1261V72.6975H342.145V80.1261H349.573ZM378.414 80.1261V87.5546H385.842V80.1261H378.414ZM378.414 75.3193V67.8908H370.985V75.3193H378.414ZM383.22 75.3193V82.7479H390.649V75.3193H383.22ZM383.22 70.5126H390.649V63.084H383.22V70.5126ZM378.414 70.5126H370.985V77.9412H378.414V70.5126ZM378.414 58.2773H320.733V73.1345H378.414V58.2773ZM313.304 65.7059V70.5126H328.162V65.7059H313.304ZM320.733 77.9412H330.346V63.084H320.733V77.9412ZM322.918 70.5126V75.3193H337.775V70.5126H322.918ZM330.346 67.8908H325.54V82.7479H330.346V67.8908ZM318.111 75.3193V80.1261H332.968V75.3193H318.111ZM325.54 72.6975H320.733V87.5546H325.54V72.6975ZM328.162 80.1261V70.5126H313.304V80.1261H328.162ZM320.733 63.084H315.926V77.9412H320.733V63.084ZM308.498 70.5126V128.193H323.355V70.5126H308.498ZM315.926 135.622H320.733V120.765H315.926V135.622ZM313.304 128.193V133H328.162V128.193H313.304ZM320.733 140.429H378.414V125.571H320.733V140.429ZM385.842 133V128.193H370.985V133H385.842ZM378.414 135.622H383.22V120.765H378.414V135.622ZM390.649 128.193V118.58H375.792V128.193H390.649ZM383.22 111.151H378.414V126.008H383.22V111.151ZM385.842 118.58V113.773H370.985V118.58H385.842ZM378.414 106.345H349.573V121.202H378.414V106.345ZM357.002 113.773V104.16H342.145V113.773H357.002ZM349.573 111.588H378.414V96.7311H349.573V111.588ZM385.842 104.16V99.3529H370.985V104.16H385.842ZM378.414 106.782H383.22V91.9244H378.414V106.782ZM390.649 99.3529V94.5462H375.792V99.3529H390.649ZM383.22 87.1176H378.414V101.975H383.22V87.1176ZM385.842 94.5462V89.7395H370.985V94.5462H385.842ZM378.414 82.3109H349.573V97.1681H378.414V82.3109ZM357.002 89.7395V80.1261H342.145V89.7395H357.002ZM349.573 87.5546H378.414V72.6975H349.573V87.5546ZM385.842 80.1261V75.3193H370.985V80.1261H385.842ZM378.414 82.7479H383.22V67.8908H378.414V82.7479ZM390.649 75.3193V70.5126H375.792V75.3193H390.649ZM383.22 63.084H378.414V77.9412H383.22V63.084ZM385.842 70.5126V65.7059H370.985V70.5126H385.842ZM455.34 75.3193H462.769V67.8908H455.34V75.3193ZM450.533 75.3193H443.105V82.7479H450.533V75.3193ZM450.533 70.5126H457.962V63.084H450.533V70.5126ZM445.727 70.5126H438.298V77.9412H445.727V70.5126ZM445.727 65.7059H453.155V58.2773H445.727V65.7059ZM397.659 65.7059V58.2773H390.231V65.7059H397.659ZM397.659 70.5126H390.231V77.9412H397.659V70.5126ZM407.273 70.5126H414.701V63.084H407.273V70.5126ZM407.273 75.3193V82.7479H414.701V75.3193H407.273ZM402.466 75.3193V67.8908H395.038V75.3193H402.466ZM402.466 80.1261V87.5546H409.895V80.1261H402.466ZM397.659 80.1261H390.231V87.5546H397.659V80.1261ZM397.659 70.5126H405.088V63.084H397.659V70.5126ZM392.853 70.5126V63.084H385.424V70.5126H392.853ZM392.853 128.193H385.424V135.622H392.853V128.193ZM397.659 128.193H405.088V120.765H397.659V128.193ZM397.659 133H390.231V140.429H397.659V133ZM450.533 133V140.429H457.962V133H450.533ZM450.533 128.193V120.765H443.105V128.193H450.533ZM455.34 128.193V135.622H462.769V128.193H455.34ZM455.34 123.387V115.958H447.911V123.387H455.34ZM460.147 123.387V130.815H467.575V123.387H460.147ZM460.147 80.1261H467.575V72.6975H460.147V80.1261ZM455.34 80.1261H447.911V87.5546H455.34V80.1261ZM440.92 84.9328H448.348V77.5042H440.92V84.9328ZM440.92 108.966V116.395H448.348V108.966H440.92ZM436.113 108.966V101.538H428.685V108.966H436.113ZM436.113 113.773V121.202H443.542V113.773H436.113ZM426.5 113.773H419.071V121.202H426.5V113.773ZM426.5 80.1261V72.6975H419.071V80.1261H426.5ZM436.113 80.1261H443.542V72.6975H436.113V80.1261ZM436.113 84.9328H428.685V92.3613H436.113V84.9328ZM455.34 67.8908H450.533V82.7479H455.34V67.8908ZM457.962 75.3193V70.5126H443.105V75.3193H457.962ZM450.533 63.084H445.727V77.9412H450.533V63.084ZM453.155 70.5126V65.7059H438.298V70.5126H453.155ZM445.727 58.2773H397.659V73.1345H445.727V58.2773ZM390.231 65.7059V70.5126H405.088V65.7059H390.231ZM397.659 77.9412H407.273V63.084H397.659V77.9412ZM399.844 70.5126V75.3193H414.701V70.5126H399.844ZM407.273 67.8908H402.466V82.7479H407.273V67.8908ZM395.038 75.3193V80.1261H409.895V75.3193H395.038ZM402.466 72.6975H397.659V87.5546H402.466V72.6975ZM405.088 80.1261V70.5126H390.231V80.1261H405.088ZM397.659 63.084H392.853V77.9412H397.659V63.084ZM385.424 70.5126V128.193H400.281V70.5126H385.424ZM392.853 135.622H397.659V120.765H392.853V135.622ZM390.231 128.193V133H405.088V128.193H390.231ZM397.659 140.429H450.533V125.571H397.659V140.429ZM457.962 133V128.193H443.105V133H457.962ZM450.533 135.622H455.34V120.765H450.533V135.622ZM462.769 128.193V123.387H447.911V128.193H462.769ZM455.34 130.815H460.147V115.958H455.34V130.815ZM467.575 123.387V80.1261H452.718V123.387H467.575ZM460.147 72.6975H455.34V87.5546H460.147V72.6975ZM462.769 80.1261V75.3193H447.911V80.1261H462.769ZM433.491 84.9328V108.966H448.348V84.9328H433.491ZM440.92 101.538H436.113V116.395H440.92V101.538ZM428.685 108.966V113.773H443.542V108.966H428.685ZM436.113 106.345H426.5V121.202H436.113V106.345ZM433.928 113.773V80.1261H419.071V113.773H433.928ZM426.5 87.5546H436.113V72.6975H426.5V87.5546ZM428.685 80.1261V84.9328H443.542V80.1261H428.685ZM436.113 92.3613H440.92V77.5042H436.113V92.3613Z" fill="black"/>
<path d="M68.7084 71.3193V66.5126H63.9017V61.7059H11.0277V66.5126H20.6412V71.3193H15.8345V76.1261H11.0277V66.5126H6.22101V124.193H11.0277V129H35.0613V124.193H39.8681V109.773H63.9017V104.966H68.7084V100.16H73.5151V71.3193H68.7084ZM39.8681 76.1261H49.4815V95.3529H39.8681V76.1261ZM145.635 71.3193H140.828V66.5126H136.021V61.7059H92.7608V66.5126H97.5675V71.3193H92.7608V76.1261H87.9541V71.3193H83.1473V124.193H87.9541V129H111.988V124.193H116.794V95.3529H131.215V124.193H136.021V129H145.635V124.193H150.441V76.1261H145.635V71.3193ZM116.794 76.1261H131.215V85.7395H116.794V76.1261ZM222.561 61.7059H208.141V66.5126H203.334V109.773H193.721V66.5126H188.914V61.7059H164.88V66.5126H174.494V71.3193H169.687V76.1261H164.88V66.5126H160.074V119.387H164.88V124.193H169.687V129H217.754V124.193H222.561V119.387H227.368V66.5126H222.561V61.7059ZM299.487 61.7059H246.613V66.5126H251.42V71.3193H246.613V76.1261H241.807V71.3193H237V95.3529H241.807V100.16H280.261V104.966H241.807V109.773H237V124.193H241.807V129H294.681V124.193H299.487V119.387H304.294V90.5462H299.487V85.7395H270.647V80.9328H299.487V76.1261H304.294V66.5126H299.487V61.7059ZM376.414 61.7059H318.733V66.5126H328.346V71.3193H323.54V76.1261H318.733V66.5126H313.926V124.193H318.733V129H376.414V124.193H381.22V114.58H376.414V109.773H347.573V100.16H376.414V95.3529H381.22V90.5462H376.414V85.7395H347.573V76.1261H376.414V71.3193H381.22V66.5126H376.414V61.7059ZM453.34 71.3193H448.533V66.5126H443.727V61.7059H395.659V66.5126H405.273V71.3193H400.466V76.1261H395.659V66.5126H390.853V124.193H395.659V129H448.533V124.193H453.34V119.387H458.147V76.1261H453.34V71.3193ZM438.92 80.9328V104.966H434.113V109.773H424.5V76.1261H434.113V80.9328H438.92Z" fill="white"/>
</svg>
