<svg width="301" height="85" viewBox="0 0 301 85" fill="none" xmlns="http://www.w3.org/2000/svg">
<rect x="10" y="10" width="281" height="65" fill="#EB8683"/>
<line x1="10" y1="77.5" x2="291" y2="77.5" stroke="white" stroke-width="5"/>
<line x1="10" y1="7.5" x2="291" y2="7.5" stroke="white" stroke-width="5"/>
<line x1="293.521" y1="10" x2="293.521" y2="75" stroke="white" stroke-width="5"/>
<line x1="7.52075" y1="10" x2="7.52075" y2="75" stroke="white" stroke-width="5"/>
<rect x="286" y="10" width="5" height="5" fill="white"/>
<rect x="291" y="7" width="3" height="3" fill="white"/>
<rect x="286" y="12" width="3" height="3" fill="#EB8683"/>
<rect x="291" y="75" width="3" height="3" fill="white"/>
<rect x="7" y="7" width="3" height="3" fill="white"/>
<rect x="7" y="75" width="3" height="3" fill="white"/>
<rect x="286" y="70" width="5" height="5" fill="white"/>
<rect x="10" y="10" width="5" height="5" fill="white"/>
<rect x="10" y="70" width="5" height="5" fill="white"/>
<rect x="12" y="12" width="3" height="3" fill="#EB8683"/>
<rect x="10" y="61" width="6" height="9" fill="#D67774"/>
<rect x="285" y="61" width="6" height="9" fill="#D67774"/>
<rect x="15" y="67" width="271" height="8" fill="#D67774"/>
<rect x="286" y="70" width="3" height="3" fill="#D67774"/>
<rect x="282" y="64" width="3" height="3" fill="#D67774"/>
<rect x="288" y="58" width="3" height="3" fill="#D67774"/>
<rect x="12" y="70" width="3" height="3" fill="#D67774"/>
<rect x="16" y="64" width="3" height="3" fill="#D67774"/>
<rect x="10" y="58" width="3" height="3" fill="#D67774"/>
<path d="M75.1252 25.9412H72.8899V23.7059H48.3017V25.9412H52.7723V28.1765H50.537V30.4118H48.3017V25.9412H46.0664V52.7647H48.3017V55H59.4782V52.7647H61.7135V46.0588H63.9488V48.2941H66.1841V50.5294H68.4193V52.7647H70.6546V55H75.1252V52.7647H77.3605V43.8235H75.1252V41.5882H72.8899V39.3529H75.1252V37.1176H77.3605V28.1765H75.1252V25.9412ZM68.4193 34.8824H61.7135V30.4118H68.4193V34.8824ZM110.899 23.7059H84.0751V25.9412H88.5457V28.1765H86.3104V30.4118H84.0751V25.9412H81.8398V52.7647H84.0751V55H110.899V52.7647H113.134V48.2941H110.899V46.0588H97.4869V41.5882H110.899V39.3529H113.134V37.1176H110.899V34.8824H97.4869V30.4118H110.899V28.1765H113.134V25.9412H110.899V23.7059ZM146.672 23.7059H122.084V25.9412H124.319V28.1765H122.084V30.4118H119.849V28.1765H117.613V39.3529H119.849V41.5882H137.731V43.8235H119.849V46.0588H117.613V52.7647H119.849V55H144.437V52.7647H146.672V50.5294H148.907V37.1176H146.672V34.8824H133.26V32.6471H146.672V30.4118H148.907V25.9412H146.672V23.7059ZM182.446 23.7059H175.74V25.9412H173.504V46.0588H169.034V25.9412H166.798V23.7059H155.622V25.9412H160.093V28.1765H157.857V30.4118H155.622V25.9412H153.387V50.5294H155.622V52.7647H157.857V55H180.21V52.7647H182.446V50.5294H184.681V25.9412H182.446V23.7059ZM220.454 23.7059H213.748V25.9412H211.513V34.8824H209.278V37.1176H207.043V34.8824H204.807V25.9412H202.572V23.7059H191.395V25.9412H195.866V28.1765H193.631V30.4118H191.395V25.9412H189.16V52.7647H191.395V55H202.572V52.7647H204.807V46.0588H207.043V48.2941H209.278V46.0588H211.513V52.7647H213.748V55H220.454V52.7647H222.69V25.9412H220.454V23.7059ZM256.219 23.7059H229.395V25.9412H233.866V28.1765H231.631V30.4118H229.395V25.9412H227.16V52.7647H229.395V55H256.219V52.7647H258.454V48.2941H256.219V46.0588H242.807V41.5882H256.219V39.3529H258.454V37.1176H256.219V34.8824H242.807V30.4118H256.219V28.1765H258.454V25.9412H256.219V23.7059Z" fill="white"/>
</svg>
